<mxfile host="app.diagrams.net" modified="2023-08-02T14:39:13.801Z" agent="Mozilla/5.0 (Windows NT 10.0; Win64; x64; rv:109.0) Gecko/20100101 Firefox/115.0" etag="N9qg-p_pEfgNUyBKIc3_" version="21.6.6" type="github">
  <diagram name="PÃ¡gina-1" id="naEGNhNuhZYli5EGwniA">
    <mxGraphModel dx="2261" dy="782" grid="1" gridSize="10" guides="1" tooltips="1" connect="1" arrows="1" fold="1" page="1" pageScale="1" pageWidth="827" pageHeight="1169" math="0" shadow="0">
      <root>
        <mxCell id="0" />
        <mxCell id="1" parent="0" />
        <mxCell id="Ln3pn8HurW_zNOlzEYXV-19" value="" style="shape=image;verticalLabelPosition=bottom;labelBackgroundColor=default;verticalAlign=top;aspect=fixed;imageAspect=0;image=data:image/png,iVBORw0KGgoAAAANSUhEUgAAAyAAAAJDCAYAAADzZ3AoAAAAAXNSR0IArs4c6QAAAARnQU1BAACxjwv8YQUAAAAJcEhZcwAADsQAAA7EAZUrDhsAAP+lSURBVHhe7P1rsHXLmtcFzrXWe9n73Zez9zmn7lSdUxRa3iK0/FAtWN1FqWhVYQdWKFU0rQ1+ACJsQ8XQ1g41PNgtamtLIaAiRFh8RQmkG/DyBekwpOWDBREYrRJAVSFa4YG9z9m3975Wz99Y87/e582dOZ4cM0fOMeacz2/v5x2ZIzOffPI6MucYY42L7/s//Qc3mwouLy93rjw3N1VqilxcXOxcPjau3F7+U/TnaE0vUj2p/aVw0Zreo1f6udpnX/0eXv5L96+ly+fh6a+tnzSe/LLPhtfqhClxe+Dl74X3bh9vfvf47LPPNk+fPt28ePFid+aVzVdXV8MRG957773NvXv3hnicv76+vgsbo7b9S+FL9x+v/Tz9vfP36G2fSPX00psyVz4letd/q/7e6TXOwcaVu3f9B+uk7aqzAloHThAEx8E5X6Qoe4v0Jp2Hc3mW5upa+7x4reEtoLtFguAcib5/3hzlBiS9kMUmJDh10gXLVPHIpZkivUnzyPlD9pdWmIMlHoozJd80bg//mLSS0zlFWsnpnCJrJ2ezlaXJ2TRFTom0PKdWvqCe6g2IvcDkpDdpPofIMwiC9WEvWKd4gc6hcu4rvRm7DoyF7WOfjZ9L3xq+D9KzrwTBKZP28+jzARzdHRB7IStd1IIgOE3iIrZOeMZ7bKOhsNY522v/1vAgCPoR4y+wHP0jWHNc1IJg7TBZt4hHLs0U6U2aT5qnwk9VWsnptNJKOg/X6t03XppmrvCSeKj8JfHI5WmllZzOKbJ2cjZbWZqcTVPklLDlOcXyBfUc1SNYlkPkGQTB+kgvWOdwAbNz7T7Sm7F8Snbs225e+7f6e2DrICdBcMosMeaC9XNUd0Biog6CwBIXsnWgufnQc7TX/q3htWgjUZIgOHdirg5SLn7Zb/h9w+zYOkku/Z2Q3heauQZPqkd+1U8p3GLP7ZM+hxdvSnjObf8OeI6c/SV3jtZwr3/2Tt+b3vl75RfWjpw7tVN+r3974R6t7Vebz7701u+hb3bY73Yg1BvnPvjgg+G8x1tvvbV59OjR3Tsj6OVYWz4bb0qdeHFbv4MyxZZjxBsfHnPVf6pH/tbx25reC/dozd+7vraWv5ZUT+q3dhBmJTg/LqPhj5u1t98U+1on8WDdRPseL3PPM/v0heg/QRAEp8Pws0NsQo6LtL3W1n772JcuLg692CC/MVmanE3HJpbUvzSprVPlHLDjeN8ypzqkR+4xseT8LRKMk6uzOWVpcjZZ8aBft0guTyseuTRWgmCNzPYOSG5QWelNLs8p4pFLY6U3aT6HyHMKc9pnJ8yYQE+PaN/jxraXxr0naVzYt92j/wRBEBw/s21AgsOgizdY91potS9dXASnRbTvcZJuGvZpO3RYPZIp2Pj72BAEQRCsg+EdkH0WisFy2PZaY/vtY1+6GDn04kL5l2RpcjYdowjrXgOpnVPl1LFjWOXVccr8Y+cDW2+qR0+EdUMab6oE4+TqbE5ZmpxNVjxyaeYUj1waK0GwRuIRrJ145NJY6U2axyHynMKc9qUTZkygp0W07/GTthnjfUwUR5BeMpU0zT46gmBObH/eR4LgHIlHsI4IewFfIz3si8n5tIn2PT5a2mzuOSL6T7AG6IctEgTnyMX3/sP//nBF8P4OtzdIWi8sa/qOSM7t/Z1tkeYjv+wvhXsoXi/9opTe09M7fw8v3lQ75qY1/97pvfHVu/5q9afx5rLL6sm5W+ef3rTWA+VjDpYe5jsEP6L5Wd8Def78+XAOefr06eYb3/jGEF4C/cibb765effddzf3798fdADuFy9eDG6bl0X1n5ZTfi98aXJlssj+El54azl715OnP9d+Jfc+tObvXf+99m3Fa3+LjSu3Z59Xvtr6S+1M/VYPYVaC86PvqDkBYmAEwflyjuNfZWaxIIHcQoGFy8uXL3c+H6tDetPFD/40n+D0sYvTJRjLX+OgJGtlzbYFQWxAMqQXv7gYBqdOekFN5Zw4x/GvNrZlVdvz6yl3PjjKf+/evUHw19QPaZQeQR93PjjqHCLQeQ71Htxi2x5Sf2+8/PGPSW9yeVqxeP4cVldOgqAHdxsQTfj7Sis5nVZ6k+ZziDyPCdVPSYLgmEn78bn1abvIUNnt4oNHpKzozgfuZ8+e3dVfSXjcSkJ86UA4Zzc4Nl/SngJpfaQSvEJtD7YvHIpc/p4sTWrHGmwKAo+4A5JgLwZxYQiC8+Kcxz/lVZm1gMHPJkEbBI4S3QVBPLjbgRBXGw2rI83Xcm7tcM4svYheOv9Wjt3+4LyIDUgGe8HDHRfA4NThYjUm58S5j3/b3mw+uFvBXQrd/bB+7oLU1A+bDjYa6NZdD+lCB3dFdC7m2/MjnWcOPecsnb+H7CuJxfpz4TkUryRB0IO7v4Ll4XXC3p20Vb+XnoteGmefPEs6dFHdNw/F66VfePpLKF6v/D28eFPtmJvW/Hun98J7Lwpry5fGa60X4Y3/ufLpxZz2oQvR5oMNwscffzzUke52cJ47GMR7/Pjx4B5D9YsQV3dBFMY5RHdJFCdFaYTVAaXwtePZqfKVaC1n73ry9NvwNC5+r/werfkzFpbEsx/SOmqtM4unS+GeDbYchFkJzo+4A2KIQRAE50uM/1u0SKA+WHixAeGohYLOq75yG4WUN954Y5CHDx/ebVakC9jEPHnyZLgTYu+qYEvN4is4TZZu+2PqezFOgmOjyx2QnLv1FwTvIqcL1r5MKV8OL1yk8WrTiZr09pzctn688By5NJCmt2GQ+j1K6Vv1T7VjblrzXzr9WkjLMbVcrelLLD0/tYJ+5miVAzcbBY6ffvrpIGN45ePOxhik584Hm49v/dZvHezhHDKl7Glc+T37puTRg9b8dX21ekruHK35t9Zva/41m+AxWvNfO177WGxcub36yaWBNL0NA/lr0wenRduorSDtcMFh8eq/tX2ifYMgCJYnFmnB3LT2qaXTB+umywYkXZTGIvWwePXf2j6t6YMgCIL5SBdqh164kd+YBMuSaxMrFs/vsXT64HiYbQPCItQuROdelEp/SXqTy3OK9CbNJ83TC/doTR8Ep4zGR0mOnVyZrATrwS7YcJ/DAi7XJ60E46T9ZGqfWTp9cJzMfgfEDvYY+IfHq//W9mlNHwRBEPQhFnFBC639Z+n0wXHR/REs3LFQPSxe/XvhHq3pgyAIgvlgsbbk4k35lyRYllybWLFYfy7cY+n0wfEw6yNYlrkXpVrolqQ3uTynSG/SPKb6PVrTB8Epw3gYk2MnVyYrwXpIF2znsIDL9UkrwTitfWbp9MFxMusdkBjoy+LVf2v7RPsGQRAcD7GQC2pp7StLpw+Oj4uv/h//vWFV6TW+F+4tTr2/092qv3fnrdWfxqv1q3xe/H2Rnn3zr7XP85fw4tXqKdH778R7/dOjtXxKn+qRf2n7DkWp/L3x8mm1o3c50K/vgFg33+X45JNP3O+AePbpC+ol+OYIX1fneyFf/vKXh3xJw7nWsQuefb3rt5Up9tm4ch/7+G/Nf8r6I+fWd1bOnbQfpeuCUrg9n3N77WvrP5eHbd999AfL0D6zB0EQBEGwOtLFWjCNqL++7LMxSNOM6YiNx7qJDUgQBIEDF7IxCYK1kC6aYxE9jai/vqTzZc38mc611p2Sni/FC5anegPCIBwTj1yaKRIELeT6lBWPXBorQRAcL7kxPUWWJrVjDTYdE1F/fUk3DFM3BaW00isR1h2sl7gDEgRBEAQnQCyi24j660vLJkGbjFQs1p+GBesjNiBBEAQO9oKXkyBYC+kiOhbS04j664udL2vnzzReyQ1pWBoerId4BCs4C3J9yopHLo2VIAiOl9yYniJLk9qwBpuOiai/voxtEqZgNxRy23Mi9QfrJO6ABEEQBMGRE4vmNqL++tKyKajZYMSm4/i4+w5IK62N76X3/o536+Qxl35voLT690V6SvpVPi//fdPXhpdI06XY8Jzb+zvunn6PpfunpVQXY7TWf+7vsLeW2dLaPl763vo9WtO3Qv4t3wHx8L4DQp7IgwcPNm+99dZwBI1br368cI9Djs8cyj8th/y147OU3qNW/1qpta+mfuw5ueecy5bAq59S/0ux9VBy52gN9/DsKrVja75BG22zZhCsnHOfYA5VfvKRBEEQnAIxn73iGOvC21AFyxIbkBOBgTYm50Q6UZ7bRWSJ8pOHFcj1w30lOD8O0W+PhdyYsNJKTqeVcyLtd+fQD9N21jxuxZL610TaX8+t/x4TR7MBSQdDKq3kdFoJ1k3aToduM+VfklZyOnMirBvSeKm0kuqyOuMCENSQ6zv2XE9pJafTSrBu0nZK20zhJVk7OZutWFJ/ig3PpV+CdAMV15zjIO6ABCdFOjmeG0uVfyyvc2yHYBrqI+kRov8Eh+Lc+11afokouddCbEKOi9iAnAj6BaAk50Q6Sa5xouzJEuW3fUz5KW8k7Y9TJTg/DtFvj4XcmLDSSk6nlXPC9jvNX+eGyqzyp/Vg3WvD9tdz7L/HRDyCtSOn00qwbtI2OnSb2b6Sk1ZyOlOx5Pxj0oomek32c+sPTh/1E9tf7Lme0kpOp5Vg3aRtlPOPydrJ2WwlRync8y9BusmITcdxEHdAgpNhDRPhkqyt/NgjCYIgWDMxT01nTXUWm47j4+Irv/7frepB3t859zqi1zlaO0+r/tqBlOqZYrfi5o7KP9WX+kvsG682XevfuffSe3b07l+19VCiNX0rc5bPxpW79ULj5d86v3hMKX+O1v7v4dlH+bFB8fg+BoK/tWyADr75oXIqP/LgGyAff/zxcL4Ga4/c3ndAyA95+PDh5t13393cv39/8+LFiyEM9/Pnzwd3CfRLB9hy6JsmPWltA6VP9bTqFXPpWYq56rc3vdpvLjQ+ROrfF0+PVw+1duxrv+Ltmz7oQ99ZOQiCoyYm6PWhNuGiPpek+uSHlj5A2inplScoLRuIq6urUSGOzUtuxOoMgiAI1kFsQIIgeA0t4kTqDw5PbjPAOWSOX/e1WAebFwt7xEO2gHRZqSFNL7dsGBOlkQ6dD4IgCNZJ9ZVLE3xJWsnptOKRSzNFgr7k6nyKtJLTOUU8cmmsLE3OppwI6z4EqR2pLE3OJiu90cIalJ9d9M+J9M9RPqvDE6A88tvy2Xg5gVx9KCwIguVIx2sqwXkSd0CCILjDXgziwrAu7MXaLsz5pV+L732Fuyi5c3rEaV+kqwbiUR7eRUFUXkR6SqJ4uhsifUgQBEGwPmIDEgTBa2gBB1rYBevBLqpZcPOythbt+4oeWbLn7ELeQ/1Ei36EDYykFmzghfOnT59unj17Nrg5PnnyZFSUBqE+rC1BEATB+qj+K1ge3kTvhXuLHO8i5qVvtU+k8WrTgeLmjrI/1Zf6S+wbrzbdlEXEPnh2tIa39o/W/rd0/Xn2QarD+j39Hsee3qO1fafYR1zEbj68vxLlgf3okh30F/76FMfHjx8Pm4AxiCe7rADH2v6HHWl6oKxj6EV00mD3m2++uXnw4MHg99LOgbV1H5Q+1dOqV8ylZynmqt/e9Gq/uUjHYc24rMHT44XX1tO+9ivevumDPsQGZEftAEjj1aYDxc0dZX+qL/WX2DdebbqlF9Ct4a39o7X/LV1/nn3C6im59+HY03u0tu8U+5SXNh5sHD766KPh3L6gEz0WFvLYxQak5s/oEtcKOjmCtwlQPPRIdA68+kW/NiBvvPHG5u233x42Ifipp95YW/dB6VM9rXrFXHqWYq767U2v9puL9DqQ+vfF0+OF19bTvvYr3r7pgz5Ub0CWHkit+XvpvQtcbUdN87F+uUvHMWriQBpv33QptXrAxpXbq78p+efcrb9y9s6/tX/N1T9LePotpboYo7V8vaktRwkvfanO5Pb6D/XHr/wspqkr/Er7V//qX3XvUHj2tfYf6cc23BLh6ffs8yA9eagfffnLXx6OaV31wtM/JbzkHqO1fr3w1v7hUVvOfeldfps+526tP/Vrq6ekM5e/5pc0TatdwtPjhVubc9TaWSpfrh1K7uBwLHvVD06e3gN76Ynj3CeumLjbiPoLxoj+cdzM2X776Ir+84qoi/URG5BgdtKBPvfA763fY+n8l+bcy99K1F8wRvSP46ZH+03R2SP/YyfqZJ1c0hA1jaF4JTl2cmWyEoyT1tPcddZbv0dr/kpfEo9cGiut5HTmRFg3pPFS8cilsXLspOU4dJmUf0mCZUnbIW0ThZeklZxOK8dOrkxTxCONV5NmX9J8rAjrPgbScqQyJ1ZfD/1BPXEHJJiVdHDPTW/9HkvnvzTnXv5Wov6CMaJ/HDe928/T3zv/YyfqZ13EBiSYnXSQzz3Qe+v3WDr/pTn38rcS9ReMEf3juOnRfqmeMZ1pvLG450JaD1En6yAewdqRK5OVYJy0juaus976PVrzJ/6YeOTSWGklpzMVS84/Jh65NFaOnbQMhy6TrcucBMuStkHOPyat5HRaOXZyZZoiHmmcmjT7ksvrkPn3QGUoyZyk+ubWH9QTd0CC2eg9kJeeKM59ooqJuo2ov2CM6B/HzRLtZ/OM/jOdqLNlufjuX/e7hxbw/g6zh/5OdQmvoVvTe/a3lk+kemr92C937qjy6ZxI/SVsvJy7tf48vPSt4R6t+nv3r9byeaxJv42bS5cL976D4eXvhVuWzj9HTfqx74A8ffp0cJfw+nfr/CvQg12SuajRhY3KX98Boc5qbPfiePnPWdYcVn/Obe33wnPYNDm88Jo6bmGu/jkHPepX5bN6Su598OrPm/9qSe2Uv1RPteHCq0cbv+QO1sN4rwyOnhh4wZJ4/W/p/nls4yPG8zROvb7WPr5OnTnrN9qqjai/4yM2ICdIOhBjYAaHxOt/S/fPpfNvBXtl87HZfgj2aV9+WR2TNeGVb5/yB/X0qN9os3HScUj9pGJJ/cE6ufrC3/LjX8Oxtkl2Kq3216ZP403xy106gnVD6vcY09XCnLqOkd7lb9W/tH2a8G28XBovvMSUuGMslf8c9qODek51ffbZZ5sXL17sfMuCbVbmwtOlRYgeNXn06NFrNsxpS47e+oXNx7prx1+JQ9l/rPSuXxuuvMC6j5kp5c9Rqp8cp1h/p0rcATkxYvAFS+L1v6X759L5B3059fb1ynfq5V+a3vUb7TdOWj8SUXIH6yQ2ICdIOghjIAaHxOt/Xnhvls6/Bdkrm4/J9kNh68TW1Rj8wjoma8IrnxcetNGjflM9c+g8ZVQ/qjeJsO5gvcy2AUk7QioeuTRWWsnptHLspGWYWiZbFznxyKU5Jmklp3OKHDtpGab6W0GfJ5bU30qaVyoeuTRWFMdiz3vikUtjZe2kNh6DzVPwyte7/Ogbk97k8rTSmzSPnnn2yAsdY3KMlOz3/MF6iDsgJ0QMtGBJvP63dP885vERY9vn1Oto7ePr1FmifqNN24j6WzcX3/N/+D1DC3kN5d2G7n2b+lC3wdN85Ff9lMJFyZ8eRe58zj3ndwp66PeYYl8OL9z2Xxs3l84L3wdv/Hh/h31K+XJ4+j1a8/eYYt8+7ePZN6Wdc/l7/av3d0QUzsvm9+/fH+yRfPjhh5snT54M4SW8+p+r/siHuJJavLiefUAclVPfAcHPeelP8ymdT6nJv4Xe7WPDS+4xWvNfO632t7afR2t6zz6P2vkttbPWbi+ewm07cU7i4bVvjY5gftp6ZdCd3gPj1AeeV76YeNbN0u2zlv5DPtFXg7mJPhUEwVLEBmSFpBeFuS8SvfUvjVe+Uy//sbN0+0ztL4e2TyyVb3DcrKX/BkFw3ly9u/sOiEfrLcql09eS5jOXPz2KMX8aNkZt3N76S7Sm99BF1CufFx4sS6/28XR5/ae2f5WYEjeH0mOHHisSPH7V+zsgtfYTz8qhUZ58BwTkT49iCRt7UFsOG2/Osh97PZ5KP1iKQ9VftNNpEXdAVoZdWFj3XPTWvzRe+U69/MfO0u3j5b+UfcorzRP/Ie0IjhvbV6LfBEGwJLEBWSHpRWLuC0Vv/Uvjlc8LD5Zl6fbx8vfCezFmRxDUslT/DYIgsFy9+zf/2PAIlndrywv3JrHWW2dL3eKby58ehfzUXymsBi9ub/0eNfa1UFM+z9/CnLpy9NbvcYj8W9rHi+uFe/3nEONzDKUnnv6ijdLwCNbLly8H97549tWWlXhWaqktv4fiTX0Ea678e+Hl74VTvlLZa2jNf+30tv/Y68fjUOXbN5+1j+9zJe6ArAhvkLTSW//SeOU79fIfO0u3zzH0H9kQfTmYSvSZIAjWxMUv+anfNcxKa/8FoPXvbLf+HWyRlqPWb8/n3Nb+1vB9sDpzeOEec9V/id72t+rvnf9cpPksle8YNu4+9uXSe3/nXqT51ea/j50Wxjc6uNNx7969wV6EcfWNb3xj8/jx413MPF7+reGaf7CHuBJRm76El55wdJA/R74DYv3e/OPpt0wpl/DK51FT/jG8/EtlyunNhXv6vXCvfVrrr5VcPVi8cI/e5Wu1r/U7RyItp/ylfpT6bT6ESTy8OK31E+xH31Vh4OINjNbwtYCdYxIE+9Dad6LvBS2cev/xyhfjJwiCfYkNyAKkk/bc/iA4ZVr7f4/xwy9oYxKcDj36z5rwynfq5Q+C4DDcfQek90Vy7RfhWvvSeC1+69Ykvm94K3PqCqbTu/5r9afxDtUvvHzm6v9zpgf5PV1zLNLIAz16rAjhXM13QDz75oJ8rMyFp0vhOqYvoc+F1Te37jEOlZdXvlL4HP17zRyq/o+V1vqpTd+rHaJ9lyHugBwYO1HnJu3W8CA4ZVr7f4yfoIVT7z9e+U69/EEQHI7YgCxAOomnE3lr+BqRnSUJglpsf9mn/7SmzyE9JQlOB9uep9i+Xvm88CAIghpO5hGsVv216dN4tX4m6bG4reFp2FS89K0XmVb7Tp211H8a71DtVlP+VtvmKFtJR2v7eJAPQj49HsFqtV/6ZadEePpt3By14Tr2eAQr1TVFd6sdXvrW+lVfskzxt+bv0Zq+FS//ucZPL1rt8zhU+/aqp971H+SJOyAHxJsEWsPXDLaPSRB4tPaTnv3M9uWcBMfPqbejV77ox0EQzMnFd/+63z3MKt7k4u0QvfDe+lupzT+NN9XvUZPenqvV78VrbZ/W9B5T/k78PvXTmt6yT3ovnhfu1X/rdxBqy1GiNX1r+QAbEHTxd+054q9JO6X/9eDq6mq4y2HLgE3Pnz/ffPTRR5unT5/uYuYhzRie/V56gU2ysTYNTIlbQnUCfAcE8Ne0TWv+Nn3ObW0oxe1Ja/uWbJ7L/t714Omv6SNBP2rr38YruXO0tq/Xf6J/7Yd/5Q1Wzbl0bMo5JiXGwmpYOn0wD+onOdFH/XpKLt99JNUHvRdvwf6ojUp44Wvn2O0Pjofoa6dHbECOkHQgnsPApIxjYvH8HkunD+aHNpAAi3a7cJe/l/BLfItY28G6g3WRts1U/9o5dvuD4yP63Gly8Ut+6ndVtSQX0Z606u+dXuFpvKl+j1J6DTgbPkX3VDsOjWefN+Eo/b7101q/Yt/0Xtx9bLG06u+dfyueftqXOGk8+b2XuNkEjFHbP/fl3r17m5cvX97ZwV0Q3Jz75JNPNo8fPx7O96LWfmxSPbeW2VKjizZQ/Rz6ESxh9Vj3XPNLL2pt6WW/p2tNdRV8npoxNsaU9DZubbpW+6L/9SHugBwZ+wy+c6K1fpZOH/TBLtzVLlxUJPfv3x8VNgBjkktjhXc4WgSbsZNyaJEPnI9+th5sW+TaxQtfO8duf3DcRP87LeIOyA4vvcLTeFP9HqX06WCbms9UOw6NZ5832Xj1MVX/1PQpU9O3hnusPf9WPP0s2rlbwJ0OtTVpJNqg7Evv8mE7ebCZwVY2Uvh5CZ07IPwp3p7Ulk+bI8lc1OiiXdWOS90BEZ6+NHzu/KcyNf+57ffSL10/wTg1Y2wML30aPjW/Vvui//Xh4rt+8t8ZWqZ1AvAauLf+3gsIhafxpvo9Sum14LBM0e3F9cJb27d3+6G/pX5a00NLei9ua7jH0vo9WtPTv1is89eiOKo/Sq/3CJZH7/rTXZQ333xzuOOi/ordn376qfsIljf+5rKfeiaupBbPvpr5AR2Kd+gNiNrDYv1eeG+8vLzw3vZ7umrafwyvD8xZlnOE9UkLNWNUpHFzfTNliv4crfqjf+VpG9XBQWkdRKdOa/0snT7oB23DXQRtQliwf/bZZ8PiHSGsp7TCHQ5tnuxjZMF68Nrk2Nss+lywNqJPHjfVd0Ba6a3f+4VEHTW1Q34v3GLP7RO+D1P05PK3A7WHfa14E8nSv4CtPdxi49ammzP/fZiSfxoXv9e+wML9gw8+GBbx3E3g7sFcv5CjgziKJ53k09p3Ab3o+sIXvnDnphy4P/744+aX0GV3K5QVXRLRqt9LT7jaALgDgl/tW5N+DLVniTnauAXPfouNOyXdGK16vPSt4b3x+ofH0uXz7mB4+beWX+mtnik6W/PvjTc/rN3+Xiw7a54AXsdZumOt3b6gL6fYvmmZzq0Px5jNE/UynaizYA7oRy0iHcF5ERuQPUgHylR/b9ZuX9CXXPvyC9aYrB3KILH+IIC0L0TfKLPGusrNSVbWTs5mK8E4MX7Pk6t3/+Yf+xqO3oNkLYMwtaPWrwFhw9O44IWXmBJ3jFL+tfafK6dSF6X2PYXytZSH+IwBHlXicQNuiXOs1VMTjzhpPD2SNAfoeeONNwa37AfeDen9En0tqgNJLa35Kz1H2vnRo0eDH2Ix8wpbz4dsH49jf0SltX56129v5mwfq0vuY6+fIE/cAZlIbnBYvPDerN2+oC+n3L6UJyfnhMp7jmWvwdZJ1M/nifoJ1kz0z/MiNiB7kA6SdKB44b3x8vfCg+Mm176erJ3UzpL7HDi38tYw1j+C10nraQ11JTtKsnZyNls5dXJl3keEdQeny9k8gqX8Uztq/QyIfdPW4MWtGZBj+dfYvyS9bfH0e+HHMCG2tO+xlX9K2YD4lOFYH8HS+E0fweIcj2C1/qnfOWwE9FgRXv/x8q9Nz5G4egRL/lY8+46BtAxTyuTFba3jU6jfMbzy9a7fVrz857Qv1YX/3PvHqRJ3QCZwyEG4D2u3L+jLWPsSNiZrJ7XxGGw+BFEP40T9vGLNdYFtY7J2cjZbOXVyZZ4iJcbCguNntu+AtO7gvfS99XvYl+Ssrla9YooeL/9c+JT62Sd97/rvjWdfq/1eelt/Nm4unReew4vnhXsvibbS2n9KdWLd5PHX/tpfG17Y1ndAOHp5gxeHcPJSfopf+x0Qa2cJvob+1ltvDUfd/eDOR82X0Fvx7FP5dcdHIrz68+rIS09exEEPx/Q7IDVtMIYtSw4vfGmm2Gfjym3rPxfuYdPnaG0fD89Ozz6P2nrYl9bx4ZFr55xOL3wp1mTLPvTuP2ul76g/A5bu+F7+rfbNVT70jEmQx6ubQ9Wdbat9ZCls3jk7lrSthWO1OzguvH4W/fAwUM9jMgeenrnyCQIRG5A9SAfioQeml3+rfa3pc6BjTIJXpPUx1X+M8AvQmEwhVz+nUme2LLlyLY21R/atzcZgnLS9pvqD4yPaPFiCu5fQPaYuAqZyLPqtnt425/Dyb7WvlN6bcFrD97F1Cr31t6L6KdW/8MKPlbnK4tUPjyrx2BKPNOhl9LkupuSX5on+mrLVxEHXgwcP7h4bIw3H58+fN38HxKO2DIpXE39O0nztS+hBPba+rLt2fjpW5poDjpVcW0OuXrzwYDqnNJamEHdAJrL04PPyb7WvNX3Qhlf/0T7jjNUP/ty5Y2DMzjWUIa3bY6nX4HW8Now2Pm2i/YNDEhuQPUgH4aEHope/F+7Rmj5ow6t/L7wHymdf8cilsTIFG7+kY6rOtWDLI1kT1p612hiMk2tDixcezI/quSStpHpSnV54EOzD3SNYXofybhG1pl9afw2pjjl0TsHLf8zv2Ur9jqX36r+mfcakN14env298eofPH9PDplXDi//mvqDfR/Bqik/cdJ45/IIluyxYvHSe3jpFa5jPII1nbSurL92fJVYezvUzAFL0rv+0ra2TPUvwdr7l8ex278vcQdkAksPNC//VvvWMJGcM73btwXybhGPXBorNdTGC/oypc2C9eC1WbTpcmhMlaQXnu6eeQenz8V3/trfWdWD+PVtDK8jHnIHvw9e+t7hU7C65Lb1nwu3eOFL0DqRTSlHj/LP2f/3sa+URu4p/SNHbbx9maJ/H/tV/g8++GC4A6LvgMx5B8RC/FTG8MK5W1P6Dshnn3322ndArC5Pr2gdf0J3fCRz4ekinDIoXvodkDlt6UGrfV5627427lz1UtLZQ38PWvt/q329y1eLrYdcnymFL81a6m8pWtfnSxF3QI4cr2O1hp86ay9/q32n3v7n3n89zql+zrkvUPYxKTEWNge99Qfz4bVVtGUwN7EBOULSiWBu/6mz9vK32uelb9W/NMduf2/OsX7OvU9Q3jGxeP5WeusP5mdqH4k2Debg6p3K74C00vsW2ancAvWwdlq3JoRSuPDCT51e5Z9rQm61r5S+tn+snVb7eVSJuuCWtR5jqmFqXsRPpRUeGyu9hI6AzWeOPKeiskrmolYX8agTvYQO6vunTG0ZbT1OaZ8p9S+m6F+ac+gjtdi6kNu2pRe+BMfU14JXxB2QIyM3+C2t4afO2svfap+XvlX/0hy7/b059/qJ/jFO7/qJ+j9uvPaL9g3mJDYgR0g6CaQTQWv4qbP28rfa56X3wtfOsdvfm3Osn7Sc51DmfUnrae666q0/mJ+0ndI288KDYB9mewTLuwXW+xZZq34v/RoGXGqj9WPfWDh4/iVptaWmfXqWf47+0WrfWPqa/rF2WuxX3LU+glXTf8YewXr27Nnn8vDytEyJOwZ6rMxFrS7iUSf2OyA1dXvsqL5Lov5iSf1jeHFb9S/NOfSRWtK6SNvWC1+CY+prS7DW+ok7IEeEN0m2hp86ay9/q32n3v7n3n89on4+T9TJK3rXRdT16eG1abR50MLFd/xDPz30oNYdUu/0Xrg3EJbW7zHFvpzb2rdPuIcXr3f9eCzdPh5T6j8XvnT7enjpvXCv/by/c15jP9/M+PTTTzdPnjy5+z4Ed0Hu3bu3i1HGs49wbJAdis/dCvJqLT9gJ7/sc9TdG46UiTsgLVj7cm7yqUFllQivfDZujppwbFS76jsgnNexBS99a/ls/dq4rXbXUspTblu+pe1bO0vUz1zYdvb69L7k6sebX7x6bK1nL32vujgUrfXTi7gDcuR4A6M1POhL7/aL9g1aOJb+k9o5t93o6yklxsIOgZf/0vatnWOqnyVsjf5z3sQG5AhJB+3c/qAvc7fXVH8QjHEq/edU7D50Obz8l7Zv7Rxj/RzS5mOsn6APV+/8TT86vITe+xaWR+9bRGvXX5vexrNuDeJ9w0+dpctaW/+l8GjfNqgL6ogXtl+8eHFXN5zTYzutoDOt85rHr2pB1/379+/sTcs0Rq0NNt4+dpPGSi375GVJ0x/6JfTWPJTeluOQ9SdK+bfady6cQv3Yvjz32Nm3flrr8ljbYi7WWv64A3JkeJNDa3jQl9b2aQ0PgjGOuf/IXo7WfUxYe5ew3ct/afvWzrHXT2/7j71+gnmJDcgRkg7idCC3hgd98eq/d3gQjHGM/Sdn45x2qx56icX6c+G98fL3ws+dY6yf1M6eNqf59MwrWDdH8wiW10m99Evr96ixL41j/a3hrXi6vPptxcu/tayt9tfU/5h/6fbtTW9b0U8d7fsIVo19xEnj6RGsOfT3fARL+iw1NqWQxkotXtyp9WcfwVoDNeVL40yxvbWcXv5z9Y9T5lTqJx1r3tirpaV+vLiejb3Tr5212h93QI4Ib5C0hgd96d1+0b5BC6fSf9JyzFEudPQU5bEkXv5L27d2TrF+5ixT9J8g5eI7f+3vrOoVrTtID0//0ju41vxby+fVL7+KjtGaf2v5W2mtn9byLd2/lw6fgtUlt62/1vB9QA9/a/6zzz7bPH369O4uAuf4Vkfr36FHF3FSe/UdEM9+Tz/h6HrzzTdf+w4IeikTX3gfw9PvYdPn3LLHiiX1zw11jA2q6y9+8YvD0Z6vwbaT12ZTmFJ+G1dua0su3NPfWhZPvxfemyn527i16bz6a62fVv2tePNfb0ptInfv/uvhzR+t9vXGK3/v/l0i7oAEQdANb2JrDW9l7ReOtXNK9bfGsiw9Pk6dqL91E+1z2sQGJAiCWUkvGnP756KX3h6U6mSJMpRsOWbWVCbPljXZeoxE/a2baJ/Dwx2MMfGgjfaRq3f+5h8bXkL3qDGiBU9/7/w9WvNf2v5z59j7z7Fgy2ndTDawb3gr6CKPZ8+eLfISukdNHHT1/g6Ih9WT6sRvxZL65wb9qhPgUTXQ+SnY+HJ79k/No4TNx7pzdng2zckh8+pJr/pr1TVX/zl21to+x85ayx93QIIgmI3c4s3SGr4v6CrpmzOfnqgMsncJu22eS+Tfm6XL5+W/tH3HTtTfuon2OS9iAxIEwaykF5H0QtIaPhc9dc9Naqf8S9hv88S9hA1zk5ZjyTKldqS2eOHBOFF/6yba5/Bwh2RMPHJpaiQewaqkNX8vvTfIli7/2mntP73rvzX/YyAto/VTvpbwNGwfyKP0CJZHTf7ESeMd4hEsytP7ESyvfQC/FUvqnxv0WxvnegQLcmVPmZpHjjQP68/Z4NlkmRI3h5d+jvL3pmf9tdbPMdRfT7z+PaWtcrSm9+itvxXPvlb7dZ2bKnEHJAiCWWi9yPa+CJf09863N4ey/9jraR8OWWYvr3Os/zmJ+ls30T7HS25zUSX6DgieMXp3Di9/Dy99q36v/K36PdZePx7er8yt9bv2+m9lSvlzblu/XngOm8Yjp1/tTz4SC36+b2Hhex2cf+ONN3Zn9gc9/K17vpnBXRDdReCcvqsxhld+0hNH8VQ+fQfES6/4Y6CLusDely9f3pWBb4BQpjE8/Z59tfarrBLhpfeoyZ+8aQfq6e233x6O+FVPPWmtXw/KIHL1qv6b5iO/l78XXoutB+v29LfW39rDvfJ54b3x7O/NlPpT3Dlt9nQtXT8qv7XDulvHj0dr/ZTC4w5IEJwwS1/4pJ8FkiSXpxauhOuRIhbZiBZXQRC8Tu/xO4UxWwgbkyAYg2uD5Fw5xbJXb0BsB+ghHrk0VnqTy9NKEKyF9II+1d9KTn9p82HHEGFsOPizsvyizxF/b/uC4JhI++8a+rNnE/4xCYIx7HUCgXPqPyqzyPnXLCXuXkIfi7QGWu1be/k8epf/2Nu/t/1L109t/jaedWuS9sJbGdOPPxWhDYq+aaG7H8R58ODBa3H3BRu0qZE+2TUH6El16c7OHKCLx6/0SJH01ryE7jF3HUhqmSN/dFAv1A99Jq2nJZnLBqsnpzM9t0TZqXMhtz2Xw7NziXLMiVf+pVm6fr38NY8qno0/xxhfOv0UbF64a/LuXb599ccjWEFwQuQu/hYvvJWSfk2UqQDx2BhIWEzrbglxuPi0gi6JSP1BsHbS/rs21m5fcJzoWpFjLOzUsGU9hXLHI1iV5PK0EgRrIV0EpAsBL7yVnP50rHCOOxH69V6PXNnHtNI0c2HtC4Jjw/Zf3Gvoz6kda7ApOB1sf9L1oNf1YY2k5UzLrPC1Som4AxIcBF2gShK0kdbhPv5WsaR+4BwbDG082HCw8eCvXXGOMGDC0i130KakRVLsuVx4itWVE49cGiut5HRaaSWn04pHLo0Vj1waK6dOWsapZbZ11UMsOb9djOSkFWvLMUowTlpXc/cfD5t/Tg5JWt5DlL8XsQEJghPBmwh7T5Rj+jVRI+kmBLFp7eZDaYLg3DnGcRBjN+iFNh/HvABv5djLfvFdP/nvDDPE0gXxJqpW+86lk9py5sqcnpO/9ULRWr9e/q3vAXj2tdq/NL3L56Wn/fTNC9xsMDjiR/iCtx61QnTHA73SrbRyEwedb731VrP96EXHN7/5zUEv+rEH/XMg/bJT5VCdeNSUD1184ZujykAd8h0Q7iKN0Vp/tWCT6mFKnq32qS44Uvdf/OIXh6POe7Tmr/Yu0apfZbB6cu40n9Z8U9Jyyu/l01o/tvyKa92t+uknY3jpe7e/h5e/h2dfb/un1K/i9rbJ0rt+VD6rp+TO0Zq/l97rX974KaWPOyAnRGsnDIJ9YVHMJMOinsUCfZFzHPE/efJkWCSn73kIb4ILbqGeoq7Ok3Oe3yk7ixxbB4yD3FwSnB60u+RUOeWylbhcS6PKjpD9xZL6105allQ8cmmsBH3RLyAsCLQBQVgcsCnhC+RsQtiA6O5Irl04L7H+4HWiXtaF+ntJWkl1zKHzkNi6yIlHuvkQjAHmm3Mnrc+5xSOXpqeA5sBTmAdVJpHzj4lHLo0Vj1waKx65NEjcATlBaFihhg6CnugiwEIBwa9HrvSyue6OgO2XpQuIPY+7RU6ZUy9f8DrnOL+XxvFc5Zf+fSXoi9pZbW3b/NTq35bNlvkUiQ3IiZF23iA4BGwu6G98KI8jfh650mNXgjBtUlLiQl6mtNCJOjsvznV+151V29/H5pLgtBjr66c0Ds5tfMcjWCcmwrqPgbQcqXjk0lgJ+qIFAqI7H2w+cPPIFW2gxULaLnZxLXfqD26x9RP1sh5sn85JK6meOXQeEtlfEg/b13HbNDXpTx1blz3EI5dmTrHtj19HybGTliMtk8JL4pFLY8Ujl8aKRy4NEj8dnCA0rCX1B8HcsLFgo8F7HvxVpvRP6wL+VMaw4Wm6qXLKnHr5gtc5x/ldP1wAR/V5jvzo0YrmiX0l6Eta1/QBK6dEWp5TK58lNiAnzil33mA92A2I7nyALhD2Dkl60Y4+GgT7cS5jx945FZpH5tiABMeH+sMpj4FTLhvM9h2QpSvKy7+3fZ5+u+BaEmvn0m1mabWFC9SSLN3+Xv5eOBsGfbOCuLq4W7+QW3GQTz75ZDg3BnqsWFhEkL8WE9rQcI7vgLS2L/mhm7/GxQYJfdjNOd5b8RYxqb0puXDVHeyT3oKt1MUbb7wxHKkb9GM3d5y04StB+jHmsA9UZslc1NhHXahd0++AeOlVvxzpHzxCSBrO1ZSDfGpQPYF1e/1P5QDa/v3337/z15Sv1r4S1tYcNXXUQk39tOClV/ltOaeUuXf9tOrvbV9t/fbCK19r/67Rn8axfrlz52roPT5b05eIDchMePp7D7AaUhuXbjNLqy2tF6BWlm5/L38vXIsY1aMu+JxD8BOmBRn+3F+3GkO6JBbSo1t6yOsYNyD2QsNRdtemL4Fe6iI2IHkIpy7UrlM3IEBc6pX65E4e6Unn1R2Qdgwvfy+9LYfKZ/0enn4PL4+a+m2hd/5e/ZB/mseUPHvXT6v+3vbV1G9PvPK19q+p9ZfGx587txZ62XLxS37qd1W1fKsBS1fmsds/N2l5on3aWHv+XrgmYOLhlnDhUFqOcrPgtS+as4j3UHqrB5TXsW9A0CdURitjeOGqn9iA5CGculC77rsBoR4//fTToU5tnyBsDE+/0iteevTaB4ij+F/+8pfvyleT1rOvld76vTJ64a3tl5LG99Kvvf7Xbt/StLav+qeNV3KDpy9lavy10HZVD46StOMfa+cN5iPtB7i5aOs8i17grgeLeC3ktQiqwS4S5PYWDseCVw7CW8Qjl8ZKKzmdVo4dWw71d4TNKUIfbxGNI0TnbB42PCdpPZ9CnU8hVydWDonNb4n8g+Mj7SclN6RhaXgOxSvJWokNyJlhO+OaO2ZwWOxEZRdIWjzxi7seudIz8vpluebuhxZMdiF1iouocynnqWHbSGNB4wChr7cId1asMJ6sKM+SaCxqPEqCw2LrPOo/mIIdt1Ys1p+GnSIX3/3rfvcw83oXSSa+MVrTt+Ll39qYreVfW2ca6/hLcOyDzbO/d/nmyF99mLiKrwUUmw67oLJxayC+9Fr9IF0sstANjDcWZpw7hkewQOUAW07JGF44UBelR7Dsxx73oSb/GrCptsxT8HQRTl2oXfd5CZ241Ct9hDpN27MF2VASm1cO2pw4ivulL33pNT/Hnnj6e+fv1Y8XTtu2kJbP86f0rp9W/b3t8+idv9c/Wttviv02bilder53//bw8t+XvlYHqyTt3FMGT3CaaILhiLBg4pdae8cDP+eBPjO139hJzOZ3CnjlILxFPHJprLSS02nllFB57JELfIuwyWUTkYrCPVTPVs6JXPmtaD4qyZyk+ubWH5weaV+07pT0fCmeJTcmrKyV2ICcOTWdOzgPNFFxZKPBr8H8ss4GJD2P4Kf/1CyghJ0MrTsI1oI2BWwQ2DjoDlmL0NetpOHKsyQ2rsaNjsHrC7yc9KKn7uA0SfvMWB869f5191ewWgvau6JOXX/rxaRVPxfbMXrb57H29u/dvixCWvDsUzj9gE3Hxx9/PBy1+PHy9/SjgzhWUpSXdbP4e/vtt139NfWLvtwjWF7f3wevrCleHMKx88033xyO6SNY2iSW8NqvtX8K8plSblFTfg/qQu1aegQr1WP9uLnLZx/Bqsm3FnRJn9pD57z6J44tn/0rWLZ8JbzwmvzPAVvOnDutB/l715/052yC1vxb7fOYq/z7Mlf+Vk9OZym8Nn2JKXH3obf+Em2rmuBooIONSdCXXJ1PkSAALmStF+MgCD7P2ufZMfvstSInQTtePbaGnyOxAVkJmiiWEo9cmkPKsZMr05okOC5iIxLMSW5OsOKRS3NsYkn9S+PZpzLsK2snZ/OhxdLDPyYeuTRTZCliA3Im5DqdlaAvuTqfIkujBe++EvSjpn7T9khl7eRsthIEc2Hn27XMv5acfZ4E82HrM1e/reHnRGxAgiAIVk5poR2L7yCYj3RxuDbWbt+p49V/a/i5ERuQlUBn7Cmt5HQeUs6dXJ3MKcFxoI1IaUMSBPuQmxOseOTSHKMI614DrfYpfUnWTs7mJURYN8wVXhKPXJopshSxATkT0oVLKkFfcnU+RZYmZ9MUCfpRU79pe6SydnI2WwmCuUgXZEsu0HLk7MuNCSvBfHj9o9V/TsQGJAiCIAiCIGHti8NzXryuAa/+W8NPneoNCBXVIh78PfMxWZpcmax4lH6JqE3firV1H7G/puTEI5dmiuRsmiKt5HROEY9cGiut5OrUis1Dbhveii2Lzcvqt9+20DcP+C5DDan+VNDFEWy5lHcraX723ByM2VuTh2wpybFj6weZWr40fSoWq7f2+kRc9OgDnkjuXEkYD3ILa0NvlFdJemProqfYvKy7VE4btwVblzkR1j0F2VmSoI5SW2geQNRmadz0HOTaIic2fU5yaawsTc4mJO6ABEEQzASTqrDu4DSJNj4dWMgFQYnoH/tjN0tWYgMSVJHrPFbWTs5mK0HQihajsQk5bdI2XUMb5+Y0K8dOrkxziyX1B+dN9I8+VG9AmGRbxCOXxsrS5GyyEgTB8ZIb01Y8auKMkeaXSis5nVaWJmeTlaVJ7ViDTUEf7OISdyw2A8sx9g/NXyXpjeoplbgDEgRBMBOazO3EfogJPjgMti2jXU8PFkXCuoMAon/MS2xAgioYbGOydnI2WwmCVnIbjliknh5p+66hjXNzmpVjJ1emHiKsOwiif7SheTKVeASrkpxNVoIgOF5yY9qKR02cMdL8Umklp9PK0uRssrI0qQ1rsCnoQ7q4jMVmYDnG/mHn0pwsRdwBCYIgCAKHJS/UwTLE5iMYI/pHHemGR3Lx3b/udw+zKp4WvIaw4Tl3a/5e+rk6Sqqn1v7W/L2/9d6a/1z104ta+2w86kQirFtxOfJ39sfgb/U/ePBgc+/evcGNkI52Qec+9oG1wdqq9saPbVdXV4O/hJe/LXcOpScfvr3xzW9+c/Ps2bM7uzz9HipPqkd+ffcDsIHz5E99v//++3d27IvK8I1vfGPz/PnzIS/KqXqtrZ8S0q940od+9ZFW0PXo0aPhqPri+Nlnnw1lGsPLX3VfosZ+yo4e1YPqAlrLb3XlIFx1Ql5f/vKXh6PqyEsPxKVPfPrpp5vHjx9XpwMbL+fGFrlzR7lLkF7lAcoHKq+Hp7+VVv015R+jd3oPL/2c+nPumj6wBtJ6qLU/TZfihXvUpi/ZvzSeHb37/776x686B+BYBk5w3Hz44YebDz74YDgiLER1RD755JNRYYHHpoNFCTCguPhzbB28Keiz48Lms6+gY0xYeCHaXJH/IccmNgqbt85T75zjmAr2BsEaOeQYCs6P6F/BMbPIBiQdNDGIgt7k+phdmGvhXRI2ICzQWfAqrZVWZJ/VxTnpTxfdUwVdY6Jf6i2yhfBDQH6yR36JUHvZc9YdLIvtK2pLe+4cSMt7buXvgZ0LcuKRS2PlmIj+FayN3JiyUuJgGxAGiR0ouUHUIqdOrsxWgnFyi3GQWwvbkrAJIa3QoCKtPb8vsscOVtkGdjDvIx48Xnb//v3hkSfKa9PIhp6k+SGynfrlmLYJwsYJm88d1VlJPHJprExhavxTIK2nfepsTILzJu0H0SeCU+Dgd0BiEAVLYCdwuW3/0+akJFoMg46kV/hcoFP6Ad1sfnKLbyuyryQe3N3hLo/u9Khucrr2EQ+VG8Gt/DlSfj0iZoXzShcsi20zsO5zIuog6En0r+CUONhL6CmHXjTMlV+qR36v/lrz752+VX9vau2z8WgTCe95COKkwoLWgxeA33jjjSG+2psjmwR+ia+BtBbrl042FIBeLbQ9lLaEFw7a6BD3yZMnwzn7wvMclMpPnspL9ck5wqlz2Yaf8wh+/WEAD+k61ZfQeWG/Ba98Hrb8aidLq34vPeGqE2w59EvoKWk6/DpXOnqoPHBuL6F74V4dtKb3aLV/Kqm+ufX3omR3a/u1lr82fcn+pfHsaK1fj33zP9gGBP1pHOvvnb8XXkupDL0b2KO1/L3ta6XWPhuPNpHwAnraRsSVaCFagrRvvvnmsBiWX3lp4VODtQ+sX7Zq0cqim43A06dPh0VzC2nZU8iT/DhiE/lx5LEsW9Z9Uf6l8lOH5MVRduAmHZsMzhEX4Tyw8Xj48OEgHirDqW5A6CNjePZ7TCk/dqXxe+dPuOoEWw69AVH5LdaPW/7c0esfioONEBuQ16mpvzFq6nCMVvs9sC/VYf2t+g9FqQyt7dda/tr0JfuXxrOjtX499s1/np81K2kd5EHQQjpI6I8SFhtjYuMK9LEA0KKgBXTZPGQrebMoakV2liQ3gXBuLvGw9Qryc6T8qhe1hY7Yrk1EsA7UVufGOZY5OBzRv4JTY7Y7IB7eIqRmkXIIUjsOZdch68fqkttr/0PVQyvWTsok4U/uWohnpab/cweEX9sVn8Uv4ObcGF44SC/Copojv8TyiyzunqT24bfi5Z+m74HykC3cMeGOlNpkDKXhTpjusLCxoQ3nqFt0qK7kB/IpbfAsNTaga613QITKKjkU5KU6oS7TOyAcx1Dc0h2QOcpi60T26FxN+xOHtgfdAcHP+Zr0xCUvysUYII3yR8ZIw734U1EZVI5au4QXr6Z+xvDSe/3Lo7U+W/NvpbX+921n+Vvbp7Z/lPL38OLV6inR2r89etm/bK8NFqd3xw2CIAiWhXmejYfmexYMLMo47rN4QI8VNjQtInvYJCGyLQiC0yU2IGeILkIi9QdBEASngxbzzPW4tcjXop9zUySF97FaRNcgdLdsjHohe0oSjJOrMyvBeXLJwF/DAlR29JJjJ1cmKx5pvJo0QXAsqH+XZGlyNlkJgp6wyaCfcbdBd0I46nEsTxRX8a1/DuGvuOldL9CiNBaodWgeKcm5k6sTK0uTs2mKLE3OJislLn7JT/2ug1i/9CRSm38a71B2t+bjpbedwMatzfdQ9dCKtdMOgHgHZJzUPvxWvPzT9D1QHrLFvgNSy1LvgMwBuuIdkDzkpTqh7uMdkNchP/01PdzkyThQub30srsEulogf8YzY5k7IrZOaurHs89L34qXv0fv9K36PXrrF2k+8rf2j1pK+XvMlf9StNpfSh8bkIQ03qHsbs3HS58O0KnlPFQ9tGLtpMyS2ICMk9qH34qXf5q+B8pDtsQGJDYggrxiA1KGsqhcylMbEOmoQfbrCLjR3wpjmTmWP7ud6vfss/Fz1JavhKe/lVb9Xvql7ffCp/Y/IX9r/6illL/HXPkvRav9pfTxCNaRkCuTFY80Tk2aIDgW7FjIydLkbLISBD1hAcDmikedEO6EIJyrEaVL07KJ4Yj+FmEDo02MzsX4qMfWVU7OnVydWFmanE1TZGlyNlkpMc9Pc8FRMNYRgiAIgtOEuxzcdbGLfvyIHnkaE7B+pUV0V6YV6VV+4C1ggiA4Xg62AdFEUpK5sJOkJjTEQ/FT5ravhK2LnHjk0ljJlc+Gt2J15UT5l8QjFzfVr4tXKpy3cfeRnE4dpR/SeMdCWt5U0nKlkktjxSOn04ptQ9V97lfTklhbcpJLY8VDNkkfyD/H4ylg7ZBefoGuef5edu0rHjVxxkjzS0XtUBKPXBoregyJdlS/kpvw1J5UPIiDLsW1R50fE5Gel632nEXlo49QHpWTNII7GDZ9TuwGBtJwjzR+KujX3RXFB/KcA9VDSTxSe1PpTc5mK8Keo+4kOZuteFi9OcnpnCIeyielNv1cWJuR2vFnw3OyNLKzJB65NFZKxB2Q4OjQpGr/jCOTgBZjOWlFE41Eerl4c9HUOfwS/GuYXE6Nc6zTNV2sguMh+sv5MLbQC5Yhxt84sQEJjha7KNNO2/7qI5ljYpZufqnTr4HSrTC55bfxgzZyE7na/hxQWdMyq7+tBWtbzt6gP2l9R/372Ll7H1ma1Iacf0xayem0ck7kxl+uTqycK7EBCQYYJC3ikUtjxcMO0vQOBNKb1FbZY+3SZCIB4mPvsWPLn5NWcjqtpKTn0vipeOTSWFka289ANtm+1pO0PlKxpH5I46fikUtjxSOXxsqxk5bj0GVS/iUJDoedDw41P5w7aT+PPl9HbECCo8AOaCZU3XHQnQY9GlWSVrThkaDTTjryA3Yp7FAbpHNAdap6Fqn/FNFCgrKq/9k+tzRpu5xDm6yRaIPzhjlCWHdwGGL8TSM2IMFRYAczEyubDr3/wfcg9KiTxD7+hLRi89BiUHlgg8K0IZJfNgZt5CZzzp3TJM+Gg80s7xzphV38nF8Ltj3UPufURmsg1wbBOJrT95WlSe1IbVJ4SVrJ6bRyTuTGnyfnSmxAgoHcoJgiHrk0VmpQXLsQ02JMvwrbOxTW3YomUulV3nYRmC4OOafNyLFj2yonreR0WvHIpbHikUtjZWmwQf3uyZMng/DxQfuXg3qS1kcqHrk0Vjxyaax45NJYOXbSMhy6TLYucxIcjnTBf24bgCVI+3jOPybnSmxAgqNAkyiLei3y9ZXwTz755LVjKpxvhcUeiz6+Oi2dH3/88Z3o3EcffTSIzpHmEAvEc8BO1Oc2aacbX/o/wqYXWRPnflFdiqjzICU2H4djbPxpTizJuXLxXT/57wylb+2ovTu610he/r3D184hy2d1yd3afoAO7iaw4GKRzwKMOwwszlrtn+MxKWzAFnRhI7a+9957d2FjEI5oQiItR22yvPrzqK0fm49sqklbq39f1M5AXtjJ8Y033tg8evRoOF/DBx98MCzk1Y/Qiy6OLaj8+9aflz96U7HMZX+JNL8S2DGl3DlsOrm9/IlHHLXnl7/85df8HsTTPPLNb35zGHe46SOM5xodNZTqx7pzkL/KA5QPastHHOYRfkCx8yXncXs6UvvwW5maPkV2fPGLXxwed2WMUu8cOa9yl/D0e9TYN0bv/D2OvfwevfV7HCp/m0+PPFOdc+Wxr562q1YQOHgTV/AK6kr1FfUWBDEOgiA4fVjA20V8yX1qxAYkmJ100RCLiCAIaon5IwjWhRbIJQnaydUrcsrcbUCY5NcsreR0HlLWTs5mKx5pvJo0wTiq0xrxyKWxcu7k6sRKb3J5WvHIpbHikUtjpTdpPofIc02o/CU5d3J1MkU8cmmsBEFP7EYjdZ/yJiTugASzYifrmLjrsRc7SRCcG7bfxxgIgiA4XWIDEsxOuoiIhUQQBLXE/BEE60K/xJckaCOd88Spz3/xCNaBZO3kbLbikcapSROMY+vfE49cGivnTq5OrPQml6cVj1waKx65NFZ6k+ZxiDzXhK3rnJw7uTqZIh65NFaCoDe5foecMnEHJJiNUx8sPbF1F/UYnCPR74MgOEeY+0prgFOeFy/TgpfI3XabUzxyaayoHCVpJZfnFMnZNEVayem00orKaZlTv9Uht63f3ti8ctJKTqcVD/62v2Sfek/Tzo21KSe5MlvxyOm0orKhS36dgzS/VKRnX2mlpE/2eaTpU/GwdZET6bA6VceIh/RYrK4abHxJbf7E4VsT+u4Ewjl9j8eTGlRPU9OBbCpJDeRHmSijRPVTskn6bXhOrC05yaWxonhQOj+G4pXEg7YfEw9rc048cmmstJKrEyu5PKfI2snZbMUjl8aKR67OPdk33Zik5MoyJpac/pLkxtQgO11BEJwg6aQRBKdI2s/37fe5C+05E3URBAGwkZib2IAEwYkx12IsCI6ZtfX7FntIa9On/jlJ9fbKJwiC4yDdfMy1Gal+BEvxeolHLo2V3uTynFM8cmms9CaXpxWPXJopsjQ5m6wsTWrHoW1S/iXxyKWx0ptcnlbOnVydWPHIpbHikUtjRVi3SOPmRPGEdfdkaj7WXkj9+5LTOwWlL0lvcnnOKWsnZ/MUCYJa7OYDd81mJNfnkLgDEgQnBINaWHcQnDrq77q4yV1DLr701OoYw+pP9eq4Bqwta7IrCILlSTcfrcQGJAhOjHQREQuJ4NTJ9fF9+32v8dKil7Q2feqfk0PlEwTBcZDe6Zhj8wHxCFYluTznFI9cGiu9yeVpxSOXZoosTc4mK0uT2nBom2xd5MQjl8ZKb3J5Wjl3cnVixSOXxopHLo0VYd2WNH4qiiOsuydT87H2Qurfl1THVJ2yoyS9yeU5p6ydnM1TJAhqSTcfNZuRXJ9D4g5IEJwIDOggOHfScdA6Ls5lXMX8EQTBFFrvhNxtQJh8xoSMxsQjl8aKzcuSi5sTmz4nreR0WvHI2Wwlp9OKRy6NFY+cTVZa4W8+62/O4+bv64NsS+1NBbCDv13/4sWLO5vwQxpX1Nov28b+Jn4NlE024cbWe/fuvaY/J6mN+hv9gB5rU06Ig6i8NWW2tKQ9BLkyW7G2lwRUp/Yc6T3S/KaKRy6NlVZyOq142HrMCfVq9eTi5GQupCvVL/EYq4up6XMC1hZ7rNGfi5fLB7HMpV/zlNpZonit2Dxwyx7cmk9bQE/Ozly590F6SuIh+0rSSs4mKx45m6x45PK04pHLc4p45NJYmRNb7vS6nZKzJSe9yeU5RUqs/g7ImPHB8cCGA8kNMmCRPiYaoKWBWqK1/9Smzw00/NowaaIpiTYc0jGljL2prYPgfFlTfz1V9hmHuTkpJcZ3ECzDsY+9VvtXuQGpmTSD44MFNovxZ8+ebZ4+fTocnz9/Ppx7/PjxqBBfQhq7WE9p7T/7pM/FwUZsxeYnT56Mispk0aIuPd+DqXUUBGPU9qepPyicK1PmpFLcXJoxPUEQzE9pfB4Lc9p/9fbf9KNfw7H0RUCFsHbMaVPv8i2tv3f+Hl7+tK9dbLPp4Ci3NiQl0cZD8RF0ki93ELRIt3bsUyf7ppctwg5KbKMMsj8npLV3iaSLcpLW6ssxxdYcSq98rL5W3TCHfaltHLk7dv/+/cFfA5tZ9KjP1NrlxcuFc07SSknHHLqhVc++6ee0n3aVvkePHg3H9PwYxKFPMB4Zdzo3F+iSPnuckgdxKY/KBxoXYHVZN3E0B6nfK92U/IH4Vmqojffmm2/ePZ7LGN3XxhKpnrn0Hjut9XDq9eiVr7b8Nt6cdXao+p/b/tXdAbGTqXUHx40eReICqDsZuiBy5KI4JkqrxUGpn7T2n9b0gsFJepXbI13wkNa6D0Gp7IfKPzh+6CuIxq386XlEzHEhOxeoQ2HdojY8FxYEQV+88bl25rZ/9Y9g4T7Ghgpeh1+z7EIDt/WrnUuid0H4dQxdVh/hFutX+insk760iCKtXWyVIB46KNcS1JQxCMbQWLGbDCR3Xn6FBeOk9TRWZ2k8+XNpbHgQBP2x4+0Yx9+c9levdpRRT7Hk/GPSSk6nlVZyOqdIKzmdU6QVu0DXBsJuJHJ5Wskt8O054lhSv0drepVD4LZiF185sXFB+eOfaksOdIyJsP6cuyRLk7PJytLkbLKydnI2p6J4uf6NpGE2XVBPWme5ehzzy53GCcpQVz3FI5fGikcujZXe5PK0cuqkZTy2Mveyf1V3QM6hI54rdsGhdrZ+3eEoiX38isealC63aN+XlvSywSLbasVuYqwtOndIWusyOD/oM/tKsB+27qIeg2C9HPv47GH/xbf/g79j0Ootcloz9/S3LrKOPb1XvyxOx/Dyb9XvUVP+Tz/99O4lYB6l4oiQ1rPPw8t/avsQ30pv++D9999/LS+ObNw+/PDDwd+T1D6VW+KVP00/FS89/ZO6ANnD8Y033hheyK1tnw8++GDYwNL/2Myil7Re/6/VL7AtFXRILDbcovMil17hNl6OVPfcePpt+6nO8dMODx48uAvbF9UVgn6JPTeG6hU79CexdeR8TfoxSK84sk3nvLRAGWQHxy9/+cuv+QkfgziffPLJMAdTJtIJ6R7DhqtOEenx8q8JR956661BADt1ncCdojQIbTWGLW8J9OyLl9arX5s+5/bSt+LZ3xru0Zp+6fqpJdVTq9frv1P6Vw88/Tbcuv1RGQQdsAOm9+QRnDbH0H+0mC2JysAxlcCHixp1RV2yseSPXPBjx2effTYsvGtEP5DYvxYl3XMSbZrH1ktaR2xEEBZiag/ah3GlHxLGRONsTOwYXUsbRV8JTpnYgAQHgYlUEgRTUb851j5kFzo5Ubls+VL/qTJn+dDFQhJhE6HNBIvUMVE8xbVt0otTb9c5UBto02HrzG4M0/GUCnHHhMd82ajYc0u1T5rvUnYEQQ9sf777DkgQ9EYXd2CCn5NWfWl6XYQkrdTo4G/gp/EYrHw7pTdpviq3xKMmzhheesI1cVk3C4dDfAdkKui1Ql4lFEfYCVrYcEvp/BqhXLJXZaQd+GW7FVtnqk/9+i3R+Zzo13Ubb06kT3UwNQ/F1dF+58Qex9Amy7YD1KS1EN+KzrWg9DyOhwidZ/xgt9qZ82orsO2fw2t/5hDpUD8A1ZWnfy7IS1i3l7+Nuw+t6U+dueon1XOoeu+dT61+Gw933AEJDg6TaSpBcMow2Y6J0Fg41TFhy9Vz7KtetZjUL+ElUTylybVJC6Wy9qyDY0J1oPrI1Yv8alv8utOlR7RKYnXmhB8mEH7sQacNOyQ2v0PnHQS9Sfv33UvoS2Mn/H049vQenv61l5/OpmesgYs8qEOuzX78VlovBqn+HPES+jjYgCguR15Cz905KlF6Cb3V/hT0WaEdQWWw2LwVpnNKLzvT9DbtkqRlSsFO1YHKgp92mHIHqwT6ZYPqSAL71JNN01rP1j7clFs6Oe/pV3rV3bG9hO6h9G+//fbwEjr5ISqf3UQoLuNXH7TVdaUE6cegD6KPO6rkz7yS2jBGa/lTpuqbq/73Zen0vZnLvlRPrd611+9U/Yp/NwtpsJWklZzOkFfikUszRTxyaeaUpcnZZCVYP7ad5J6r7dQPSjIHOb0STcgcc26PnE4rS2Pt6GVPWlc2PxaRYyL7SrbZ8JzUMiXuKZHWVyoeiqcxgeDn7gebEIWXJNfmVtCTe0SYtDq2iEcaJ+cfk97k8lyTnDq5MltZO6mN8scjWMHBUec7lsETrJNj6jv86qz+nhNIF9CidP4YUVl17AH1xaJS3xBCqP8xsXG1KO1Jz/KfImwMuHNJWwFtLAGNo5KQfkxs+9t+IN2H4FD5BMES5Pr3bI9g9R483kXYC/doTe8xRb+NO5ddnh4v3Gtf74JNev4kJs/Y4iY/6STt0v0nhfhWPPs8/V44F9Zv+ZZvGfLBzSMDHHm84KOPPuqef6qf+KmM0dp+NQs+5aH+gk0PHz6segRLaXmcjYUMCwwWHqSrsd3Tn+vDpJGQl8J1lE7FAatD5yWESYTS6ehh41l93iMqHloYeqS2S+yLx/ug/KU/PXrU1l8JLz3h2ILQVyT23BiEU0al0SNY0mvzz7np8zx+hdj4VscYVifgT2UMTz/QB+3jT+ikvNjO0eah+qA8PFpGHNlBWuVHPMQDXcwJHL/1W7/1NT016a1tObzwVlr115RxDC9/tce+ePZZ/dYWub38W+330reGe7Smb23/fdu3LdegO60DNwiCZVnjGE5twt8irbCAbBFrR3o8BdKy1JbtlOogWC/0szFpJafTSomxsGB5YgOyQtJBE4PIh18AxiQIenIsYxQ7ZWvOva+0kttUTJGSTdZ9apTKlZ63dTF2PCaw2UqwLGl7pNJKTqcVi+c/RnJrGivHytVbf+PfdxTfAVl7Jc9ln9UzRecxdMLcS34wh+1zlx99VjzmyJ/HD4AJk1uiHFlc8ZKlxxz5W2zZ59a9D9YGuTny2MSUv6KkRwCpXx63qC2bF0/hutjZ+LhzF0HF4WjjC50vhUPpfI4pcecml7fKheTqZwpW/1hdl/DCPaboxy0RU9KD/Q6ILW9JJ3Fy3wGx7jHSOPitzAFjkkfxGNMg3bLR5qPzlIdy5eJA7lwO0mvOZR62aWrS18QZY+n0rVBva2Bqu81F77yWbt9exB2QlWEH8loGdRAEPqWxu5ZxPGZfq7TCBbZF5rRlrahstpxpea0/5y6lWzvYayUIcti+Ef1k/cQGZIWkgygGkk9uUWIlCHpyLGPUzidrmltyY3aK5Mpiw4+dXDuV2s6et/XiHY8JbLYSBML2h1PpHypHSY6Vy1xh9pGlydl0SPHIpUnFkvOPiUcuzRTxyKWxcu7k6sRKb3J5WvHIpbHSSk6nFY9cGiuHwuZ3yLyV15j0JJefFY9cmikCdqMh96lsQITKmpKeL8VLqY3ngZ4xOXdydWJlaXI2TRGNs5Lk0kyRnE4rxLGkfg+bV05ayemcU1rJ6Zwi+xJ3QFZES0MGQbAejmksn8K8wyJEyG3PnRJpe8l/DtcPyngO5Qymc8r9Qv2+JMfKxbf+xP+zynpvMu9dCV7+rRcbz/7W/Fvtm5Lexm3NV8xRvrHvgPBCcAvosyJsHnLnjjYNpPoUt0SaPsVLz4uX77zzzmCnbNVf+OE7IK3145Hab8uOtJa/FWuD6odz+g5IDdTlxx9/fKcHP98e4EVWkZZD/t7lo0xjzFX/Nh46JV7+6n82/T51YstBeklvvPJ5eDZ64ZTbllX22HNj0FeJx5E/uvDee+8NL2zrWzaeDvJ//Pjx8N0M0pA/wnl0Tqkf5WfFtmsO4owhW95///1hLsRNObFNuq0O4tMn9R2Q3PxIHKXx8icP8iW/b/u2b7srEyLbxvDCp9RvDs9+j9b0SzOX/eoTal/htV/v+mvtHxZrq9y9+6dHqf765hosjtfxDsVa7Fg7UybFIDgUXEByFzYoXVyC+WCjjLBI1oKYxTILb0TtUxI2HcS3oGOfOWbfdIfA2rVWG4P5UZ8sCWNER8k5QJnXgG0LK7EBOUFoWEvqXwPqgHKfO7YOoj6CqeQWnVbmIKcXCQ6DrW/+NLfuKOPWV85LQhxtQNBh5981tKFsSedB67cozMZJj2DdwemisVESNu26+wG5fnMqpOXBn9ZHKktx9ehv+Htn+Q7IqTViypKNNAVr59ps1ndANCDEHHaiw0qKl0cabnV5aeeAyZFHKpQfdSRh8dB7fKVllB0Sj5o4LVj9cnPkF2Ee1fDqh7jE4ZsBAj/1bn8NS8th82qhxr4xvPSUo4Z9y2HTpW7Esy+H0lp9S+HZMIeNtqz2iHj1Z/socfX9C+ZThDkCf0nGfvWVLWNY+2Rz6h7Di6PwN954Y7jTQ346CqsDt60HGw8IT8WDOOix32NCdL4nNfaN0Zq+N0uXj/mR/oQexgHtqTlTbTzG2utXWDtL7jURd0BODDtR9p40g/lJ2wx/tGMQBMwDLCQ4sunQDzoctcEoCXHs+xQtWB2459AJ0pPqUx5WSijMxhuLL6bEDdYHfXtMeP8J4Y4hRzatnD81bP89hr588S3/wL9VZaW3g+pdWC//3ju8Vv2HTp/G752/F07/0ASgvsKRdK22gfSk+pQXv3bYfNNjakOqT3F7gX3vvvvukJd+mWFxweKBl9B750++Flt2xMs/TW/5L/9f/5edKwiCY+LR3/l3bn74l/y6z41/xjvzlOYHj5o4wMv1uqOpl8KF1YGbuZHHy3gJnfjWRtkl0ZxaAl0tL6F7oG8ML9yjNX1vepfvr/yVv7Jz5eHuB/0KPbQ1bu508dQBbevp712/c+tP9S1dvtL4uXr0/b8qHsHa0tpAayj/1E53aOyvcNa2OexEh5UUL4803Ory0oLX/p4OwvmLTsoPfRIer+hNap/skHiMxfmN//1/sXMFQXBM3P+e79n8zLt/y2vzm50T5pgfLEs9gkV64nC0j2CBzo/h6feosW+M1vS96V0/vA/FRrEk9BF0sPnghz3Osflg0wme/lb7D0Fq4zHYHI9gnRBLTzI1HIONS5GrG85FnQVBcC6MzXeHng9j/j0O2FiMCRsNhE0tmw9xSu07Vg6VsyS9yeWJVG9Aco1qxSOXuZVWcjqteOTSWLFltecFu80xsWlyMhdWZ8nmnOiXANwMUvzYDWlZSgKkB/3yANYGSNMcApWzJCn2XBo3J3Nh2ww5FLkyWfHIpZEEQXDcaL7WvG7nd8FY1zxv4yrME+Jyh1zXBX6pxp0+q2/TCLllJ37Nn/KPSVqeNNyjFFf2eOKRS2PF5p+T3pTykX0etiw5sWXJSS6NFdqWx78BN32D80qb6psqrVhbc+KRi2fts7pyYuPmpJVcnkj1BiTIM0fjrAG9zMitSgaq/ryj/rqKzpVE8fSYlb0QIceCbc9TadsgCIJ9YR7UXCi3J8K6z5FzL38QjBEbkD1IJ5VTmGS0AWEjUdpg1Ag69PK0sL8srRm1o23PuIAEQXDOMAemwvyuH5nSY+pG5mAuPTmsnXLvm1+abl89QXDqXNrBNiZLk7NpCRHWDWm8VFrJ6ZxTgIuGNiLaSEjsbbOcEIc7H/buB0LYMaA6CIIgCF6huVFzut1wlMTGQ1qRjtJxLlJ9Np8aEdYNabxTE49cmimyNDmbDimt5HSuQeIOyESoNGHdxw53KXKbBZ3TRqMkSi9RmmOrI9nL0bqDIAjOEc2F6ZyIpJsOKzbenFjd9tiLKfpt3N52BcGxExuQPUgnmVOYaNINBH5eRpffXmhyQnwJ8S3HUj+yM23fIAiC4BbmxDHpRW/d0i/3vvnZdC16guDUufji//7fqBod6aIyxQv3BmFreg9Pfw2pjik6vbhLl59wPhTIexy49TfY2VwA/jHYeOjIX9DiQz82DXqkH8gD/YjStoA+K0L1pvygdLSU9O2Lp4M6eOedd+7c2MTjbBz5EOGhmbP8f7LyQ4Tv/SP/yObB933fzrccN8+ebb7+23/7zjcPb/xtf9vmnV/za3a+1/n4j/yRzZM/82d2vnl561f+ys2jH/7hnW86z3/u5waBZz//83fuOTkGG9//Lb9l50rYjtEPf//v33nGuf/Vr27e+w2/Yed7nR594Ev/5D+5uXzvvZ3vFVPyevRDP7T5O7/9H9r56mD+Yu7XvM4cVjPHk4ZvcPAtEK4XzDuks48Aa66Wmw8RIoqPgOJZO8YgPnHJ61u/9Vvvzum89I2hvEXqH2NK3DUi+0t14NWfV34v/Bd/8Rd3rjykp21t39JHLz3d0Gq/h5e+Nbym/47RWr4SsQGZiNUzRacXd+nyo5+P+fCXrHQBAS2C+WhPDaS1GxDyJT0SG5Ay1MG5b0C+8l/8F5u3f9Wv2vmW43q7oPn/vf32zjcP3/Of/CejG5Bf+Af+gZ1vXr71a1/bfMu//C/vfPPw6X/5X24+3pbno63dcyz257bx5Te+MSywsfEbf+APDP5WvvP3/t7N+7/5N+98r/iff9Nvqt6AwFe3dfdWZrOFvX/hB35g52vnS//UP7X59t/xO3a+VzzfbtD+wnYzXFsn2oDYOSA3X1p0/dC8TvyaOZ40a9yA1KQXyh+s22NK3DUi+9NyyK/2KOGV3wuPDch4uGe/R2v5SlyiuEY0GEtCo47J0uRstuKherBMSW/j7iMetq1yktNpBZhoEeID5/HrmyBjAjpapNvmlROPXJpUQDbgV7/L2ZWicpTEI5fGisXanI4T6lov8+PmnMo2Ri5PK63k7K2xK7j95bu0+QDCiHMscMfi23/6pzd//V/6S5vv+g//w9XZfrVdWMjGv+HDD1dl41/5jb9x8/Kb39z5XsEdMjZic0BZSxu6If+JG7J0/kjnFiS3SB8LSyEeaJ6R5NB5e1QezEv64Ub56/yYEI8/vMKcy0JVP54BunO2SD9CHERpgDSSpbG2lERYv8pjyzomKdKViztFpGdfUZvSN4CNB+cFedAPOKe2VNrUlpx45NJMEQ/ZWpKczinSi/qtfRAEs2MHOBNFemHUpLg0srHnZHSqvFtxd6Mmzhp5b7ugZSPC4z5rBRu/72d/djguDXeMvl7YaLBpYCPSChsuNmEpX/9tv224ezWVQ8w/No8585MuzbMlsfOtfgBC7Bxs4+T8Y6JF7VqFOhCqE8D2Q2DrMidsHsbEQ2VSuWhb+9kBPZ3BObW72i7oR2xAgtkoDdYYxLd1oHqwk6EVC3HXNgnKxtRWsOVI5dypWZyveQFfA3cbWPiuFRbk2LeGTchf29bVp3/yT+58r9Nahzx6xd2flCd/9s9u/teZ7rD0wpvnxsJtWDrnEJbOSamwiOXuB0f80odbxzEhviSH3dSsWbjmAGU6JLbe0rpFtBEpiYfdaJEXZeVxczYePMLH4+fahHC3xNpTatOgnep3QFqh4ddMq3290x+i/vglgEFJXgxWDTz5ayAeE3k6mSO93wFBj3RJN+cRnSsdFUconURxW8nlo+OjR4+Gd22YHJUf9fXJJ5+4dZTqbQV9qWCTRHDeHnNUv4T+D//Dmwe/7JftfH159yd/cvPwb/wbd77X+eQ//883P/+jP7rztcFi8Kt/4k/sfOP83I/8yF6/UI9Rer+CBfBnE/J6tC3Hg69+dXP/K1/ZncnzCz/xE8O7F1M4BhvnegdE8JjU9/2ZP7O5+sIXdmdewZ2KfTYLg86f/dns3Q/eL9nnJffal9CZn7QQxF37y7SFdLwD8vDhw0EXfoT5EDQHWbfeARHp3ER6ucfAVtJyJH+O2KBzKak+bMzloXMqQwnPvt6onigrjyfht3Xt4cXxwpW/SON7mwzvHRD0Uzb02n5KGdlw4Ea4/nIdZv2i8qe27UNr/bTSW/++xAZkR6t9vdMfov5aNiDEJR7C4NVL6ILw2ICU2xG7tQEhLwltwgW2lE544VNRuSXC2gYKs3FS/j//739u51oHb//Yj22+8sf+GEbvzrzi2V/8i5u/+Lf/7dnn9Pfhu37mZ7J/+YiXgdOFMi9M84z+nJQW9/sucnlEiLsduRepgfcL/vz3fu+k9wwObSOPQbEgn2Lj3BsQKL0oDvtsGNjo5u5+7FuPcKgNCPMJ8ZkD7YvCnGOBqHlIc4/y45drfqDR/KN5CZSmBqtXdqcLVUj1lfK1R/Ds8MJ7ozJy3X7zzTeHa7htA1u+HK3lUzh5kleuPsf4+te/vnPloQwIutSuuMnHbkDYfNoNCML5VmrL34ve+velvWaDYIedNCyl8+cEE4AmPAkToZXcF+g5v5bJw9peKkNO1sTD7//+zXf/wT9Ig+zOvOJ6u5D5hR//8dk2H/wSnXv5nL969VHmF3ji5n69XhMsin9uu8hls5RjKPPC77N4NnKnYGkbYc5HsY750SvBfGKPKaXzoPkoRedz85IV0PzMvKu5OBV+oMv50aG8rIg0v0NLzjYrlIFy27vvHJW2N+SLDfxAyaZSd7ZqxSNXBl2TtfmQPzgclzRMjfQml6eVpcnZdEjxyKWx0kpOp5WU0vkSVldO1k7OZit2YsNvLw5Mvkz+TL5Mpvyix5E7RkzKqa59pJWcTiuUoSRrgcddvueP//HNZe5P7G7L8Jd/8ic3T/+H/2F3oh0WubkNxYc/8zPD4jNlDYv3WrhTU1o8r+WF+mOxsfWvYnl/9WoOcmPeytxIZ+1RaBGJECax53PCApRfyPnlW4tR+XVOv6JrwWr9uaN1p/mtUVR/2Cy/reeeAlwLtQnRi+Ec5R6TGnJ5pqRhqhubLmQ+iTsgQbAQDED9wsQGRC/Fjb0QtzSaOKbIKtheVL/7D/2hzYNf+kt3J17nf/2X/qXNJ//pf7rzzUPuxXIWm7x/wGNA/Dqdckwvo+c2UTD2J4cPzdptHPurWF/c9gU2Fx5jf/Vqn/c+UlYzhvdAc5AWkiXhhxL9GKQfhmy5pUeSnmPhLGHOTsXGXaNos2TFlrE3dtOjdrCijWBJaqEsalvbxipnKiC7gvmp3oDYwZoTj1zjWmklZ5MVj5xNVjxyaaxMwdqtyUCTYkk8cjZNEQ9sVVxrM5MH53BbPbaMc5HmI5s4Z/OzYuO1SKpXIqgH7LBCOlB64MiEql/NgLr0kD7pBNkgPcKeR9Cf80OtTrV5TtbAt/+b/+bmrb/77975XocNwdf/1X9155sHFo65P6n6jZ/5mZ0rvzgmTc2icw1MfZF7CY7BxtKjWGwqvEex1vjoleYLO29oHvHEzo9afOYW8CKdh9I4mqus3pzYeYr4WpAD4WP52LzsvCdJ064RyoCdHKlvykwdcC1S+VpBp66Dto5VR/o2h+766zxH/C2iskHu+opfdhHOkXMI9XHspPUxVXqxjtVBUKRn458TaT32rtfcwO2ZpyZTSym/nF0S6xfWDal/7Xzhp35q86V/+p/e+V7n6Z/7c5v/6df/+p1vPlgY5rAbkNLiuJR2jfAyfY7c5isoU3oUi81FqT8c4tGrWo5tTggOj65R9BVtLln0a2OCqB8RF8FP+Jzk+mqp/5bOB/MQG5AVknb6YxgE2GhlrfS2zZZf7pz0xOpP81WYdYMN90TxRW7zsxbe/MEf3HxX4WXkF1//+ubnf/zHN9eVzxBPIfeXr/hV2j4Sw19hyr0onUu7Wkw/sMzx6M854X2gMHdXrPejV/uQmx+se07Q20v3vqTlXqONJXraKd26VmjTwZEwHUGbD+DcXHZZXTV658o3KFO9AVGDlWRpcjZZWTupncdg8xiyf83l6Gmj1Z2Kztvj3Nj8JCJ12/Cc255LWfPm4953fMfme/7oH91cPHy4O/OKm+fPN7/w9//9m+d/+S/vzsxH6eVze/dD5P4a1jG9jH4sj4sdA1MexTqWv3pVmjf2YU5dKXaey8kUpsZfA7I5td2ebxGhzYWuG3LbR7Es8ud0WmkhTe/5e6BynJvEHZCVQaMI6z5GZP9aymHt6WFbqt+KfuGRKN4hsflbEak750/PrxU2HXzr4963fMvuzOvw/YbHf/pP73zz8n7h8ZfcBoTHsHKP3pR0rInSY1a5l+uXorSRK/11rKWpeRRrTY9eCTsvpMc5sDolYs589mWNNu2LyqIyzFEWq08bjvQ9jHSzIQhrxerLuZWn9dtj0IfYgKwQ2+ntoFgzsnOt9sqm3rZZ/aqLdPMh6UkuP0SU3Bb7a1ROx5rhsas3fuAHdr7X+eD3/J7iNyJaYXFY+vZH6cN3uY0JOtZ+d+FbC4vgub/m3kLpr4qt9RGxmkex1vjoldD8YOeJXnPGGuejtNxrtLFETzvt5kIbEI5cG+1fD8NvsdegVmxbWHcJLzxoJx7BWgmpjcdg8xiyf83lmNM2qwu3ldK5Xlj9aX7WLzfCRG8n+9zEb9OtmS//M//M8OJ5js/+q/9q84sd/9Rt6fsSfPujRG4DAmv5VkWO937jbyzeXSiV59BgY+4xJSj9ed41MPYo1vf97M8exaNXPeg572geLMmpozKmZbXnW0Q67LseHNl48Cfn0+9e6Xpk04xJC2n6Vn37YMtyThJ3QFYEDRL0J63nXvUuvTn9c+c5tmGANL+x/NONiC4EkB4hl/dS8Kd2v+3f+Dd2vtfhfY9f+DW/ZnPzst/HEce+/VGCX61zjy2t8ZsgPHbFL/ClPw/7137n71z8V3hs/J4//IeLNnKngDsNa6b0KFbuzgcs9eiVx9g8MwWrB/dcenuwdvtqmNt+XSNs3fASOhsOff2co/4Sln0kK70rsg+15cnFq00bTOfivV/9r1XVrrfIaA3v3che/q1Y/SoL53Sec6Uyct4+55hL4z0HSRrFsQOW25p84O7Bgwe7M3kY/MpLR9lhyzGG4knsJKJfNoBj+kuIV74a0MFzpWDLgOC3+eWOQmkQ2ZXGyUF8oGwSUP5jKK2OIvWXyKUnT4mwbuJKaknLIf+Yjj/1n/2LO1df+MjgL/1v/9vhi+cp1598svmLv/yXD392txf8Mv3VP/Endr5XsCj/RedP6/J8/7f/jt+x873i537kR5oeaeJr2rn3BbhL4d2p4HEfPQb25nZR732jhMfa9lkIH4ON3/l7f+/m/d/8m3e+V/Au0Ye///fvfPNS6hMpbKh63f149EM/tPkV3/YP7nxlmCc132ke1lxcA/MH8fkGA9+DsPMuovmF83JzbeO6pcd3elI7R8o+yVx4urzwdN5OUXrq/s033xzWC6r7Gmryt3GoJ85x1+OT7dxs87Hx5Pb6EhuXMWx/kk6OEiAO5X748OHgpj9znONbKMojeJ3YgMyE9JcGkiZnkZaXTp5D8Wrs1yCzC19tQGoGqPJK8+To5Z+Gp36rO+f29NdAGWIDcnu0ZbN5WzdxJbWk5ZB/TMchNiBsOr73v/lvNg+///t3ZwxbG3/+V//q2b90nvJd28Vy7k/o/oUf+AH3rgC/bP8NH364871i3wWzKC3u56ZlEXwIG7mbwLsV+z56tcQGBL663Xy+9cM/vPN9Hu6c/YXtpqsXh9qAMI/Y+Ugi0G3nGoRzXNcQzdO9sLaMgR2yrzZNDZ4uLzydt1OU/tAbEO588PiVzSfVhb91A5LTaYVNLGCXPkSITeRLXTx69GgI3xf09aS2nUr0tq9E31F7ZpQGkTqyFTq5FeLY9NZf0zkUvyS9ScvLhMDmh4GNaEFubSENA773xeOcsO1t3SfNtv989x/6Q/nNxxYWxr03H2wgci+fs0CseSSJF9R5UT0FnaXHbpaG9xR+8bf+1s1///77q33/QDb++a9+ddXvfZQoPYol1vro1T5wzeDHsidPngwLU34dx805XUe44yHh+sL8FtePeVjLtSK1Yw670DEm2nSwRtGPtvQ33N7mJtif2UZurlGnyKlC2ewvNYgW41Z03sbTubSuakR5S9INUCpzYfMsiWDAS4I2bL2eG9/2r//rw7sfOXj34uv/yr+y8/Vjyrc/SuReVB82Nit9Gf3BV76yeeNv/VuLf453DcjGscey1gzvqlxn7owBm9bSX1Y7NvRDlL0W5K4VimP9c16/jhV7fc2Jh+Kkce35FhGpX+TiWRTeS/RDMH1JfdFKLk1IvZSInw5mRpXN5Aj42UTwi45+1dHRCjtt7bY52t036aeSNrrd1OSkFVtue3GwA7iE6ipow9ZxyX1q8NeuvvzP/rM73+vwvsf/9Ot//c7Xl9IL41M2IKVvgqzxZXRgUc9fmuK9F2SNGxHZyF+PwsZj24jweFrJZjanpRftjw3NUVwr7A9j+IFrlL0O6sc6XSuD+aAtJPK3YvVBSX/J3RuttVK71M+CPsz2DojH0ovM3vkzUdJZ6bRafAMdG+GWsSBc9tijRB0fN5OwduZjkEZ5aqImPXlzO1GDqgRpFUdH0usodwmF5/LhnD1v9QrZ3AJlUD3ZMiDWhtJRKA2iOk3j5CA+UBYJKP8xlFZHkfqnQJ7KV3qsHZyT1JKWI9Wfo9c7IHzn45f+qT+V/dL5yw8+GJ6N7/Gl8xQWiH/9X/pLO98reKTqFybevfj2n/7p7Ibjf/ze793rLzeV3q/g0aTPJrzcrpe7uZtQgl/jedxpyqYL5rRxsPMrX9md+Tz72rjEOyCUhY2TB+Xp9XjZod4BsYu8dI4BzjHHaD4mL84p7pS89qF2jsQ+zam1aWqYU1cJ6pL3HZZ+BwRSfayBxpi6SUC/FZUVt+1j9Cvq4p133hnO7Qt6e6Kxty8qcy9K5Z9tA5J2oBQvfe8G6q2fBqQTILjVoLqTgcgGjhL5CScNbuqSAYWbgceLYYo7hiZh2xm1AalJrzbUUWk41qQXqR5Lqkf+1gEE1J/qwJYBwZ/alR6F0iBqxzRODuKD+oHKpPzHUFodReovgf40LueUr8KsHZyT1JKWI9Wfo8cGhC+cf9+f/bObe9/xHbszr+DP7P7cr/yVwzc/DkFp0/BX/tF/dPJCt7TorPlLWjlKi/t9XxpnE8L3Sb5lmzb318ZgarmXsPEXfuInRv80csoSGxD6Af3Bg00Vf+igx58WPtQGRGk5at6ycwo6EZ1TPLB596J2jpSNkrnwdKXzckptetYavHCtDQj1StpW/WD10DdwawOifCzW7/UlbwNCu9gyoNsK+tWHlC9+zlMXb7311nBuX6SzF177ePS2j/rP0Xfbc8bYBqVzIHRo65bfdnyls0erq0Qujk2rfEsyF9Jny4aUyjF3/sHnObX6vdheJL/nj/7R7OYD/pd/7B872OYDcn/5ikeppm4+oPRNkFweS8Ail1/beak799I88KdjS48NHQJrY+6DflD6mvhaYFNWs/mAU3gUix/aWKTYhYrmLa4buo6w0JTgD/rQ45pR0qnzva9TWoNoHWLdQP7qW/YReGTtYHuLLEX1BiRntBUP2/j7yOZiuwPeQ262RUQ0gdXYmiNnkxXpZseMnw6MX7cOL2+2u2ks2R6tXFy/vHXvJl46u9Khh0FQA2lsGWWXznsoHSLkr0lPXjoilMcepaskrSj/tPygPFJ7bFzFKYlHKZ61Ywyb1z4iHWOMhVtdObFxqDeJsHFTmZvv/H2/b/PmD/7gzvc6H/z7//7mw//gP9j5+lN6+XzKr+spuY3L2l5G51d3Hi/LbZaw9Ts6PRI0BWz8yyM2cudqjbDxKP1ZYu4K5eAbNLzr0oPcmE5Fc6nEprPzRAmue5pTlN7OnekczTyua2aNfps2J8qrJLk0U8Qjl8ZKK7kyWdF1EdJ858hfbWtFeq0dNm8b3koub+u2T6gAd4K0dtOabkw8tJGx/Vx5I1r3oUv9Gj/gV7x9BeS2eQuF1YglrYeS5PQg1RuQpbm5fjEqm5ttAxbOI5qwbKUEQXA7+RwLX/qtv7V4N4C7Hr/4j//jO99heL+w6Gt5Jr9056SU15KUHgvjzwcveRdEDO98FGykH63BxpSxr8zzSBrHHNx5ym2GjxUtUqw79QfzUKrLuepY6690Dba2tVjJJrtp2EfYzCBsZmwdAHVs3bn0bJDGRPpKgg50qz05B63t25r+aDYgNNyY0Ki58xLbGLYhguAcOIX+zp/a/fZ/69/a+V6Hl81/Ybvo5f2PQ8HiNfftD2AxqL8ONVW++w//4WHhnLKWRb2Fr7Tn7jDAWjZM2Pj8539+53sd3hVZE6VHr7CfDykCx1x52Hycyl/Fsuh6LbGLKbmDdlSP6XFOrG4trpGl0YI8xa4bx8RusHJCea1YpANULzYu/pxOKx42T+UlbFgNafyp6S0H24BgZJO8eF4lm5cvspK7BYbeWj5nTyJrJ2ezleA8sO19TG3/4Jf+0uFjg9vZdnfmFdePH29+/sd/fPjLV4dkbPHKIzEtUvole20LZmCBn6P2HYZDULKRul4LY49eDR8k3G1KOZY+QMhjemv8bozmmpKkpGHWn0q6YMuJRy6NlVZyOq145NJY8cilsSKs25LG31e09rLrMWQNpAvzKWgTURIeyUdK60/ipKQ6xkQ6S2I3K0oj0jYaE2HdkMZLpcTR3AHRdzQ84S8qyG2/s0Hjp1+3pGGoHNsYQXCq2Img5F4jl2+/vfmeP/7Hi3/RiG998M2PQ7PE9znW+E2Q68zdGhj7k72HpvQXoi5X9MjS2KNX6QYKf+lRrLW/YF8L81JObFjQh7nrWYvekqyBsXKmC/qpYhf/oGOufgkjrp7cAcUrCfHGxOYNpLHHWmz8qWlzHM0G5Prl8yopvQeiTYeETjFHBQbBMXC0fX07aX73H/yDm4ff//27E6/DV85bXvjeF345X+JxKPJc06/2Y6zx/YqUt374h3euZal59CrllB7Fsosj0HzFcWzuimv4PNh6To9zYBfCWlxbWRqVvySpvamoXCXJvQNi802x4axXVX8lkZ6SoENrYPsDPJB+CugT0r8vR/MIVtrgY0IDy61GV0PtS84mK2snZ7OV4Dyw7X0Mbf9tv/23b97+sR/b+V6Hjcc+34mYg15/caiGJfMO5qf20auUY3oUS3NNSSzyp8ccuqZLT0k8cmmstJLTacUjl8aKRy6NFWHdljT+VGHBa8XeHSB8aWSDtdlKav9U4ekbPYGjcyo7ksI5NgqkefLkyfAh6zkEXehEN/kzflgvy44xseT8Y1LiaO6AbFusWi6o2K3Yc9qY2N1nEJwrY5PCWvjCT/3U5sv//D+/870Oj1zx6NW2ILszh4NfmHMvn/Ptj5/7kR+ZVXK/cJP3mh6xKT3GRH2shdLdmNIL9IdkyqNXKaf+KFY6T9lrd1zH+zH39cEuwCUsghHcS2MXyrbsOs+j/WPyySefuEI8XgdgI6ANANh+rPwIY5NC3VBvH3300ajY1w1yktZ/Kf8xbL3Mxd0GBCPGpDeq+KKwSxuRy4tX73Jstxy3cnE1yIurB0NjokcNC9qUKGxMWrnaqtiaOIi43pqLvJxhG2jbaU67hdWZE+rVHhGl03FMPFQ+bSLtRpL06YBlkGvA2YmOc3bwKa2HtXUfkf0l8cilseKheKX6q0E6JEDd1dTfVN74gR/YfNcf+AM73+vwsjkvnfPy+RLwy3JuYccdGRaEc0ruz/kOG6AV/bpdeoyJjyquhZKNpbsLh2KfR69Sej+KpbE+Bc0LtfOD5iDy0txk5yiOiJ1TbZo1IBtz4pFLY6U35GGvCzZP1fMYPGlCO5OO+Bz5lgbXZOTjjz9+Tb6xHXcffvjh8Is86zDbngI/OrVeGyOXvoTKpjTqo1oXIKwTZDubB/uesd4vtncmtLAvicqBXtLhptwqO/UOHImrR7Z0x0J2yWaJUJuVhLQcgXS40c+Rcqd6UxFj7jQuKH8bbuV47oAEgYHOG5wm977lWzZf+WN/bHPx8OHuzCv4M7v8uV3+7O5SlF4E/6jDuyglnWt5GZ33UUp/7ar04vehGXtfZ8lN0r6PXqUc41/FKmHn9ZjjD4sWhfugxbFFC24W69JtZQ3U2jFmsxb2Y2gzY8VuKvTDaHoetDmZC5WlVJ4peDq88NiABEeFHTjWHfQnV9eafNUWOZnCxf37m+/5o390c+87vmN35nV+cbvw5oODS8FCtvSLdY+X4VnE5x4TwoY1vORdWkBDjw3ZVLgLwDdZSizxBwxEy6NXKcPdshN5FGvqnLEmrO37zoFrotZ2LZxBv3izoOYX/NIGxEor+qVdjOn3/DlsHOWV5jkF2SUd0m/9krmYS1eqZ6rfcrcBIdKYBMGSHHsfTMdTKh65NFZayelMpcS+k3CO7/x9v2/z5g/+4M73Ot/4A39g88Hv+T073zJ8qfBV7Z6L7dJX1Uu2HAI93lP6i1y8/7Hk4h5kY/EOzXbTOHWhPxdzPHqVcsx/FcubY46Jfcqh8pfkkOTytedKIuTXL/lsTmw8SS9yutM8p+av9FPTCT3eJtFGA8GvR670WsCc11RLan9tedKy5/TUhKcSd0CCo4EOK0ruoB+aNIQm0Ln40j/xT2ze+w2/Yed7ncd/+k9v/uff9Jt2vuUo2feNn/mZnWt+Sgv5ki09YTFLvt/3sz87+te4fnHhzRGPqP11f+kvjT5+9L8sZCN3rr5YeIRuyqNXKafwKJbmF3u0c85aSe08Bpstsj9nd01ZdB2werS4tu94ID2x+nN5ltz7ok1WjQjcbMq4Q5R7X0Tvosi+OexMyy2Rv5ZUT4oXnnLx3q/+1+pzX5Cnn360c+W5utnusnf7qWstjC5u//zuzeXtABjc2yPCbvPBgwfDAKEzaADti3SjD9DJwANuQV48e7a5UR6Xu8G6O+K/uLnd9aqjkhYd8Oabbw7HMUgrG9ChXTQdmtugHsQdQ+XyIH9L6i/h5Z8D3dKv9DY/zklq7QCbTuX20hOuNNS/ROdq8yeuJfV72PjkKfH0TM1nCv/f//xf2rnKPPrlv3zzvf/1f73zfZ4P/t1/d/Py61/f+frz5M/9uc1H//F/vPPdwgLue/7wH975XsGvzv9j58ehvme7Ccn95a1f+ImfGL3TwC/tucek9JJ7LQ92j56V7iZYPv2Tf3LzcxO+VbKEjdxNKy3Wc3zn7/29m/d/82/e+V7BpvjD3//7d746vvon/kT2zhGPUM2xcfv2n/7p7DtCbFD+/Pd+76QNzqMf+qHNr/i2f9Cdv5g/FIc5UwKcr7l+EE/zJm6bZ24eJk+JR+v85qXHLtmCrVPz621fDZSBdRHrDV4gx69rmAfrFdYapCcNkJ4XzlnHECY99pieK4E9Y2itpP6RHtP+5+WXonpAj9WFfuUxBuntRgwdWn/a/k79AW1Afrysz3nVaWq3/EpXAh2Ki5v6fOONN+7aK9Xr4cUv2ZlytwHBqDGmGjg3sQEZh7SyAR3Ygf9UNiDoSeNwTvoVZvPjnKTWDrDpVG4vPeFKQ/1L7LkxiGOPQn4v/1x60khSvVPx0o+F/6n/7F/cucp86bf+1s23/9v/9s63PGw+/vKv/bU73y2lTcAvbm0vPSY1F9xtyD1G8/Ef+SObXxj5Zbu0uO8F76uw+ZiyyD20jVM3HzDXBoTH5nLvpPDI2p/fbqD2vfth4Q7Q9/2ZP7O5/5Wv7M68YuomJzYgt3jpsUu2YGtrfimevjnyowysi1iYasGva5it9xysV/jlXgta4MgGRL/oC/RJ5PfYZwMigVyb1OQrVA9WD7o5z9HTRTzqiHhab2p9KL/iIO+8885wZAOiPCDNR/7aDYj0aANCHjX25+JYvxdeom5VGQQrRoMq6MdYHTPRjMkpwGMzuc0HHOJlax7xyn1XA5vW8DI6sLiduvk4NNg4dfMxF7RTaaPV8uhVCnpKZeTOyBq/pM/8Uppjjm1+HyvLMbFPGeycT3oW12xARHo9OOT1Yc42URsjbBA8YeNiRToIo47YCNi6sPVInDXg1Z8XnuNSlbh2toaOim0wULkkNGJ6TvHm4OW2j5A/g+3xJx9vPvv4o81nH324efzxNzYXz/grEC822+F4K3c2sCPdyvXtTphz6qC4VZ7h705vdXpCnhyffvbpnf/5k8eb7R53W0fbQTAiF9d8wLEsHths20BlrEXxS5LqRQRhNp61A9Lzngi5OUp/SSzUhX7JAP06M0ZOpxUP9e+0n6ekYZTNtt2YlMjlc2q8W7jLwC/+h/pzs6VHrUq2HYrhkasf+ZHhl/W1bj6w8S/8wA8s+m5K6a9RcRdr7hf2eXSNOz05SnaUSBdAdk7Q9crDzjslUbwU8knjpjInufLtk4+1z+ocE+WHpGFWJ9j4Nq+c6LqgdIBfGwTO8Ss6wnnOEUa63PVLNkmIT1yeuNDjVrJL10HAn0rp/BQhbyucs+icPW/TWWy5VL8qA2ls2RBbvjGoR9UlOqSLuxGcx6/8AD/glz0pssETWyfSldOZnld6ey7nlt3yK9wj7oCsFHWWYDnUBhw1wEqSQ4OwdjAG66X03Y3ej15Z1vJNEO7EsKD/+m/7bZv/8Xu/d7jrMeVdjUOQs3HJb37w6FXuzgN29rojM2wIM3fNhjsxX9vvL22lnPp16tDlI78xEaXzJbxrkP5crr7qrQ8G8pXtb2770AcffDAIHw9ErBvRl775sRRdWlBPWYyukZq6nQvy0iYlt4maC/Qi2nxJyJeNpKTGhlYbL77w47+9SsPSnej5J5+fSC18CX27TLytWNlq3gGhMlkoqvLZ6T98+HAIJ6y1fNc3F5ur7TqURuSuAw2IH70Xu4bki+0DW7sAuwa2fuxPka3g3YXw7Jeefbm4N/4Mpq1ba/dcqHyp3tSf1oP8Xv3koExKV9pkCNrd5qU60CBO7SyR2llrN/pt/qA8bZi1g3OSWvtKjNXPf/2f/gs7V5k3/46/Y/POj/7ozrc8T/67/27z0X/0Hw3u4a8qFX45ZwNyyF/9eV8iR8kOFr2tj9zYzcWzn/u52e/4HION7/+W37JzJWzHfc07IPSf3F0H7O65eRur25q+yzsgf8e3/MTd/CFSP2gOYS6QgJ1/SiitnS91DpQ+PWdlDC88xYtv7QD8soNyp+nH5kew+nJuq8+ek9Ri41LXqm9dv6w+zis8fQcjzZN46NCd//QdBsRi80JUphLeOyCstyDVY/02P6HwtH1sHEEZOK87HlqkkzYtX4r0p3rlxw70EQ/977777lBm1Z+HVz+yU+UlPutf2a4yEY5gF0I4x9SGUjmmEhuQbThhreVr3YBsrficDbIVah6D6smxb0A8Uv34JfKPYfsQR9WBlRrSfLx8Bfpt/qA8bZi1g3OSWvtKSH+OmpfQgyBYH9qACDvO0zGvOYRrgQTs/FNCaZlHcUuE0qfnJB41ccDGK6WxNgjN/5RZR6jNF3LlTkGf4tj8avNRPOnAbtmuMI4Kl1j9OTcLWC2gERbQnONOCWsidFhIZyUNT+m9AdE5G2bdoHrqvQFhbfqFL3xhOLIBof48vPpBv8073YDIvhykS+sJ0rLsQznX4ODYwVJyB4eBOkcYnByZBMZE8W0aJAiC4FSwc9opzm9e+dLwnChsH6SDa4hEfouNU0u6YFReiL2WsRDmqLzTuFYUB91WjhXKIqz7EFBvbG4QNgSqx7ntsO1EPtqEkI8VztEPeKdHWFuse19iA7Iy1PipO+hPWu9WGIxjkoujtEEQBKeCndNOcY6rKZ/OKTz1t1DSKT+k/qlYndKT6rMLVX6NR/jl3LrlZ5FqNy4S6TkmbD3Y+umNNgPUF3WnuqypP9lZEgt+20aINj2I3NoMIRarL6d/CrEBWQktjQjqCCU5d3J1YkXk3DZeSdIBjdjwU8eWNZUgCI6bdByvbVzb+WZfsaT+HGnasTQ2bk5Ki0zCSoyF1SIdWmhqEYpgk9wshhE2GdpoyI1wvQPSIOjVNfAYSO08tN2qN6A+nz17Ngh1qPNjYO+YCNy2Lcnj6dOnd342kpxTm5I3G0yrA3L+fSQ2IEcADRUcFtW5jpogSgIaVKkEQRAcO6c+l7WUr7Vu7HUEpuiz6UqMxSEvhAUnogWqFqUcPewdEf1iLr3HwhpsxQZtDNgM0B41qK5LYtco6NRmQ6K/fqa/esaRc/xFM2xR2rmp3oDYwuTE4/qaHdWLbVw6M5XK7oqKqROP1A4NaCtUPHG0q1ea2/DP52llG31U7t+73NzbtvHwsvi2jLxUrm+U4K/B2v850DEifAn+clu/yMXL54PIP3wlnrrfSppuePl9aI9xhhf8R4SX8Evnh7CLbd2PSO7bJFY2L7e2b0XfJZGU4tm4w3mHtO7pE8B59ZsxIb76lUT9DuT2JEX6PWzaNI0NS/MiHuWz5+eWIAiOm9xY1jxj5xpI/SIXX4shSNPZOUTp7DmRptuHVCcoTwQ77XUAiJ/O98KmRaS/JCzyU/02vfyyA0jHuZoNQqrf5o3tygNsGFI6Z5Fufk3nyIaEeGxGWOAugS1TLaSRqK4R1TFlUrjaHXctSiuRfunATZ0xJqhL3AobQ3qsLmwjve5gINiPnzDKRD6cx02YNpGES4faErFIJ5LmLxHoycouvDtUhESZ20LZAuRkbmylaXC2CnqkN22AY0cblRrhL5Ihr53fVsWYBEEQBMeJrnWla5691sttZWl0vd5XUtLy5dJYsXH3IafTitW7bx5joJN8tA7SGkhhrdiy5ERxSpRs6FEX+5ArxxTblB5R3U9dhyquFZELs/LapiIjuTTIwTYgZJbCOVVSzmgrc6GCS5Q/jd0ipcZO/eeG6icIgiA4XY75Wqdrd6uAXRfUXv9svDS+9LYg/dJt7Z0L9LEOkoDNsydpWXJls7bk3GMifel5mKMepaNktwfpJNZv26IGq8fma8ucEw+r18rBNiDsiiVUiDViSgW1klbcXBucVK8EKOOxYx97GhMed9LRysX1tkOPiO0POTl2cmU6pHjk0swl24EQEhJyjNLI3Rywcux8tY8IXfOnonTpcU5a1iNpeVMR5IGwpupRhhqsPal90GJXqntOWvSp3ktls+E5se2FHXLb45iQRmLX994GqPpDhB4YMcaLF8+GOCpoGt/bhLz49JOdKw+P+Wg/xYcIB/3JhwipENBzcRxlB++njJHam3J1dX9ztbWAZ+qePd19iHAXds07GZf3Rj9EOLyTgdPko0ZErm7G7eNdE5VPR+niqKdE03LI7+1F03QpabhsEKm/FzYfbJJst0e7s3lk/752p+Wfm1b9Xvre9reSa5+0rcfwwqUrjSe/l96jth+VaM2/lVI9pH7KmZaVOFPKnytr7ty+WF1yt7aPSO2stbtkR61d3o9onh2t+ZOeuAi26FFr4Bx+hRNX+WmBQlyFSyzyp+VI/SW8eN76wwP7VG6tK5QnYV7+hKsuJEJppdPWD3kq3xqUDv3So3Nj1NgP6H3w4MHwJXTgxWbeZUjTqywSzwbeSxhD75lYPdZNHSkvqMnTQrlIo7YF0uuxew/yH0M6rH3W7eWBfhtH6aWjpn+QXkI60tCW9p2QEuqvyg9KbsvVG3/d3/21nbuJUgbi8vL1XRZHic5zLMnLbSceY9tEw79ws9O7XfXfHdPGkd4hfIvs21dQjw00xPXL2xd7Lne6b7gDsLVh+8/gx57PH2/tkz0pl9sN1hi5VNLFUaVP9b/y5/MVbPBubSzItoyvSRJ+cbNtk62rJLf/zAtlk2wt2J3Nk9bLVFrTe/S2r7f9dvzNQapvrvKl8eTvXT8ea8m/VD9zM1Vv7/i17Fs/rfZ46VvDa9CYRBfXRKsTN+HpuNU54teQ2llrtxcvtWsfyEPrAeWn8tXkj2hjIGw63KkenUvPp0i/FeGlhZo4akMWrgiLc/6Cks1LWLun6C5BXpZcnjlq44G1M61DD6+MaT2keXnUjB/ZXBLQRgK/bMDNeT3BlBPFs7qsv2Tfwe6A8JekMGRYoO8KCap4rwKff/LxzpXHuwNiK4NzDBCb59WVZ/94+MuXN8MdEMr2/NmTIR/tOU/hDsjwF7RGSPVaCLu5LofDdn8yyph+i8oOpJEsfQekVk8JT79HzQS1JF79WPtzbeSVr7Z90njyt9Z/a/t7tNrnUaoH66eMKmepPksoXqmeavWM4dk+xtRyiKnpUjs8u0Tr+Fb6ffMHxUWXrq86R/lwI7hVXq0H7F/qkVjkT+sz9Zfw4qX5TYUy2HKTHzo5z9HLX/GVRuck0mHjAXkhSrMP6GxJL7TpQB+/nGNj6S9gqSwSlWdfbPpUF/40P9Gaby200Rglm+S24TnQnytLWt4SxCG91aF+jNTab/Oy7kePHu1cr3OwDQh/fpdOTgfVn/4C0iHeAHgw/KpextuADOe3eSDKc4izBVtebjcJYyhuCT2CNeh6cbvrv79rtGHxvrXlqB/BcuonJc1nW0O7Y56XafSEz+vLo7IDaSSxARlv39545ffCubgJG1fuKRN8DulJ48nfWv9e+Vpptc+jVA/WTxklotYuxdu3nqbmA6ntY+yjH6amS+2orY/W8a30++YPiosuxqstE+d0jee8wrQm4DEP4lmxyJ/WZ+ov4cVL85sK6SmjROfsmmMM0hBfAqSRcM66FUf5saYag3Qp0gdqmxZoczYc6GJDCXLLXqG8JWl4imefygFWl9wKV34WL29QGuJanamuEuoTJWyf0THNawzCbVrFr7VP6WvzS1E6sGnl/uIXvzgcUy7e+9X/2pDSKugBd0D4NgMD5eWL207KY0UYuB16uHYxC9zUTbAqMEcJXJsGtqJz93YbgBIXV+P5S1eJly9uw2UPlNw5vA7sDdCXwxZEt4Z3eW3r9Na/1X0xPoF55fPwyufitL/uoKT5yH+tx90K8A0X9Ym0rOjw0vOiPaRpc7os8qfxSpTSexssi9UxNf99Se2eipfes98bP63pW8dna/m89L3196a1fB5z1U+qZ6pdaT7yt/ZfD8/OueqnhFc+j6n1nDJH/SG6AwKMeTZX6G6tP+m0ekgj0fk0H/k9/Z59XriH8i/Zx9G6QWlUxjG8cK9/pXalePq99GnZRK6sFi/fFKvfs2kKU+rXxpXb9l/ZxXG8VU4J+37CTrZ7vldHBypyTGpo6RC5PK0EbZxrHUbfmQc7FnMSBMF5EGN+P3J1FvVYz5wbjhRtHEpSIhdm2/SkNyCaCBB+jUDsOSseuTRWPNKGGGu0HLk8rQT9OLX6TcsT/acdjcOSBEFw+qx13GuhWJI1sba6OwbSNsz5e4rF8wva+OrhTH8Fy2Ow4Wa3CdhtBLjzMBSAIPcREi/8FlvY1wvOQyrbTp3c+XjlHqd5OJi3rFMbX7czjzcgPR3bIb39V3kprvFfjD8i0kpNGcdx0u+C03zk5y+jjcFO3E58Ot6ld/Kv3cmX7KulWD7HvrQ8MDXvnqzJlh70Ll+r/tb5pTet+R+q/tN8lq63Wg5VP/vipV9DPac2pNeSFqS7VM5SeCn+VHrpsX7cuXyovznqsCde/Sg8jeelq8XqSd1z5CE9ngjrFjpn457cHRDbUdVxkfQOiLDuQ+A1UrAMpT5x6P7Rm1MuWxAEwVIwn+YkqCOtr6i/6Sy9vhzLX21p2/UkH8HKddoL7nJkhBfgkd7QGEt3jmA/Tm0StOWxk0EQBEGwP5pP1zavav1RkjWxtro7BtJ2TNtU4fvKFGz8sfS08dXDX/Z3DY9gTc1kKoP67YK/1yNYYwW9ZfwRI6+/X1y++pvIOfEGjH3fn/iW1J/D5pUTj+2Q3v6ruIpv/Gf+CBZ90U58Ot6ld/K/HA++o2RfLcXyOfYN420k76l2TMUdH07+rek9WtPzVz7QURKP1vJ54Z5+L9z7KzK9aS1f7/QKT+N56eaiNR8vfe/+6dFb/1ykdnj1JmrLV4pXCvfS1dKaXpTso55w5/IhrLX/teLprw1P481lt9XTIw+v/tPrw1iehCn8JO+A5OA7ITm5vLgZZCnm6BzBvNReNI6NUy1XEATBGrBzbMy304n6m5dDri/H8krbUv6Ld3/sXx1crYZe3Xu4uX72ZCufbW5ePt1cXG93rRdXw/cT+DDg5fWzXcxXmVujvPxvdi9xp/Hkv+Y34J1bR5uPu8fYfRywhDYp1maQ37V/uMOw++7G3TcttBO83H2nowwxWrhwPgR4fXn74aAS3ocIaeOeeL/Apu3SgtVV275eeDNO/2zl7qOYBWz5cm7VU9oOqT+tpzT9vqR650YfQrR2lmweq5996V0+Dy9/L9wrf2/9rfPHFPtK7hqsHdY9Vc9Ujkl/rn5b9Xvtv3T/kn4bD51WbF1YqcGzz8PLp9YOSOPi3+dDi5Yp+efYR7+tU/sh3Rxe/XvhXv/rvX4ivepAR+m0utN6GrdqAi9fvrh70ftObl6dC1YOH2IckzPFm3jOndaJ65jYp6znVD/B55nS/tFXpnNOdbbPtUj1w3FMWsnpnCIWz38M5MowJufKbBuQ242G3YS8viERtrJjcbce0gGRyjmR9svop6+T9odz6B9TynyO9RO8Yp/2jz5TT9TV6+SuT9SJlbWT2nosdgtrf87uNDyVc+XuOyCti6xtNW53IS83Nzxqtd18DE8sbVXy8u/11n1VeAaKfOvyvo2TxpV/yG7nzun7/JmEi/G9mGeiW4ZdhdzGU9xX/qH+xrhpvYvk2LcdBBdj4pTPe8l77VA+W0avvClT40/G6Z/NVOpvqSNI08xVb73r3+q3F4z04mHjzWlT7/J5HLJ+l2CuRcAc7T/Wv0osXX+teParHuao32OER2hK5bV9RHGm1k1rXc4xfqwNqT2e/lb7e3BIm9ZQftkwZksaNtuqBsUX20X27XErl3LfuM+fBcFasAPEuoNb7IVgjovOseGV/9zr59xpbf/oP+Occ/1Q3pxY5Lfh9gmUEjb+PjIHOb3IMUAdpzYfi+1LMt8GhA3HVtvtJgSRm0Xc5z8AKG43KbHQW5r0r4Olck6km5Don69jx3FpXJ8aaTnHypzGG4sbnB77tH8arybNuZLW0znUVbrATcWSCz8WESX3WknLkB6DPLM9grVdpW5uXr7YyvPNzfULan6z3X4MDxbxqT/7sT/lNS3PfBr50T6m9/NnElb/CFbri+Dj9vEdC2wpiZd+6Uewbm3cn/Qu3VR9rfm7LPwIFhNpWkbrry3/mI4W5tJTwupPLyryj5Wt1b7e5fPw8vcutF763vo9PP01pDbsa1Opf42xhvK3UNP+c9Vvjjl15agp31RIo3Sp/lRf77+C5JVvav3OHb+1fB7pXSbskU1yj4lnH3HG8MI9WtODdIzpSsNmW9Xw0jmVeLNdKN9skt1645+QDfqTu+th5RyYYxCeMt4keY7YOon6OW96tH/0qVecc11Q9jGxpH5I469RLKn/GDhGm5fm7jsgrVxs7t1+B+T5Z5vNi8fb1thuOi4vNi8vuPdxeXsDgHjJIu+Vf3wvxONcUOqozUvHK+c7GLtsi/k7i9frm9d3vKI2/XBXaYwLvrOyrWv07b4zcnFxtcvvapv/63anXG2TkFYi7uzq/B0K7zsil479N42/8Lj17+V/Pd6+fGZDdWt1efmKa+c7HZfXzia/sf1qvxOS1pP8uXDVFZKmm4r0l/D0t76npl/AZIctG9Q8hw1eOWy4dXvl8/R66QnX37J/+fK2r927dztn8jf60a/HRIiHKE/O1egXuTLuW3/yl2yp1d/aP2p/gU7rSf60HCL198LLR+El+0XJ/t7laG0/j7ScKa3l8/R7aKyiJ9cmnn6F23LM2WbSZe3gnMSzzyOnH1K/4onU77Gv/V4+XrjXv730h8Ta0ndUBkEQBJNhkka4sCDycyGTsBGQLIHsAG06dCFkQY+02if9raj+VKccQTYGp4366r5yCpTKpaOHxkxwfKTtPrfsS2xAgiAIOrDvBK0LvRbMiBb0++qcA+Up+/Bjk9xC9tlzU0jT7avHwiZDtoLqNQjOgXRMWr/OjZGOldSf6kvl3NF8U5Le5NpkTpmCjX/3EnorFzz+w0vo1883fAdkmw21vns5eVvJQ6zPd9xX/vFG8NrICfbxbmHtjiW8TsQL+epsubheevc7IBf8iicdt8eLC/1yav8EQB5eQs9xZ1fnl6C9l9jHQ7d49efg1r9H4RE7Uaq+2nxvnPrnWy2jtLafl79Tjmyd7Oqqtg6OAVuWOcqlCZ4FtCZuW2/6NX/qRSClJr3yVFyOOmcX9wrXHZEa+xROXGHdtaRp5Ed/agNh2Id49nnsY+sUpL9Uvt54+dTasZT9a6d3PaDfjgGOU/K0cVO3dI/h5ZULl24vbQ21OtJ4LXnL9hYdolVH6/zmUWufjYe776oyCILgjLATPW7JFHS3Q48vITzDjdhFPbKP/n1RXrqIyC277t+/P0hql4412LhT0nnIRmub9Ks8QXAOqN/vM77sWIlxE0zF9jncsQEJgiCYkX0u7KSRWLjII1rc20W0Nie8BN4b5ZnayGbowYMHm0ePHg3y8OHDwUbiaBP1/PnzXew6rP40v31R/aUbkUPVX7As6kf7yilB358KaWy6VIfCS3Lu5PqUlXPCljc2IEEQHD3phJ6KRy7NFEkvtGm4h42HHhbJuuuB6K5ISac930NUNtw6yk4W9mxCJLpDo3ip3SWxpP5W2GhgB3apTrURqSG1NRWPXBor506uTuaUVnI6rXjk0lg5BPR19ffUnbPJikXphHSNybmTq1MrreR0Wsm1yZySyzMVi/yxAQmCIFgYTchM5novQZsQFvjPnj0bhLsJLKQVV3EORXoxwU7lr42HxJajhvQiNSdPnjwZ7nSQBzald0SC00b9dl85dhiPOUrna1F6jfmSnDu5PmXlHMiV8+LdX/3/GM5evhj/U4Qv+VDECI9uPh0ujlwkdUubjqdMvUn+5c14+D3zEqx02uPF5bTb/J/D+U6CN4hubrxB5rxE7uwF+cDjGMrdNrKdAGqetkvrVWUejk792HxzSNe+eB+zvLkYX4R53xG5ds2rsz8tp61D6kgiFO7W36WzyGz9Ur73nRDnOzkiLUfqH6ufMbz6cevP0e8x1T7iW7F3ASzSy/yozQRH4jGfIsynLJpb8NJ79Ud6bJGNsuntt98eHrtSHM5/9tlnw4IfnSqfhxdvjnDVP4KtlINNCG77OJu9W0IYIqwOC7py5z27hOKl6T198nv5qAxWX8k9Rin/Y6e2HLaeSGMF0nqsrVeR2pH6S3j5eHpq7FQ5rS6ls2PEhsuteGk+6XmbFuS3+nPoR5kSqd4UL9zDps+V1dNvyy8RhFl/zu2V36s/a+s+WPst8qfnxeXL5082yPZyNyoXNy9GhYlbF9lSZmPwte0xuV3Ao5+F1is/oo8UnjLU6ZgEQbAcTPBWgPmQeZGFewpjlsW8Hl966623hiPzJ4v3Tz/9dPP48ePhBx0WxGvEzj2tF7BDITs5Uq/a5FEONhFvvPHG8C7Lm2++OfhpQ7WBLvLEVRujh/O69oHCaV8d18CxtFFwOszV59AzJqeKV7ZjL/vFWz/8zw8leOn8wny1/W+Me5ev/nKLrRS5vUnY+4U+3WN8ruIv2l4kdH9hduh9B8RNv6sPWy9aICBxB2TcvrgDEndAxvDSa3HKglNxsUnCvEgYwsKW+VALVOLrl/fcL/CttgN6xvDqj/S6A4JgI5snNk4cSa/zugOiMtTgxWsNF2oPoXRqC9pGdY79EjaDnLMCOqLTnpNboGMMq8eS+lO9Ns8x0nAvnxKl/I+d2nLYeiKNFdi3XkVqR+ov4eXj6amxU+W0upQunV9K+ZXqR8c0XUnPVDw9rfkofal8nn4bLxc3PefpS6nNf1+89ivlf/HWr/gnhpTPnAX8/evpCxQZxdG7ALZXkLfAH8db4Pn5N24gvA2Yc5fnZneBs3ZSp5KlNyDNXIzXX2xA+m5Abi7Hw0vlSP2l+mnFrb/GfLz0drGdi0s4i1wW6xyJg83abLBgB84jWgRLl7eA9ZCefcEeNkccEezRnRvKA9qAsFjXBqSWVvu89ITn+qbOES6hHNokakPCporyqL1IR1y1k/xCepUH8cZQWqUTqd/mAfKn51NytkGq36OU/7FTWw5bX6SxAl77eaR2pP4SXj6enho7VU6rS+l0zoZZtyjVT6pHyO/Zl8vL4oW30qqf8kmH1ZXWiw2bkqcX16tfL1yk+Xj58vXArfaXm/vbCXJM7l1djIom5RxTKioIguDY0ILVLjSZ9/Aj77777t3dAmAxzyKdxTqLW9LahS9pmU9Z8BJ3aezcLndaXsjN9bUXr57IBuyz7aIyUO+qc+700DZqH4RHshAe0WLjRTri0jY8oqXNid2g2DzXgmwC6w6COYj+NR/Un0TsW79WV06W4lIT8sX1dgc2IjmjU7FYf80EfHH9clR498PK7R0FK22kZUllaXI2WQmCYDn06BRjkfmOBS2bDV7QZtEKhLNY1eIWP4tfFrS6MwJazGpcp4v8pbDz+N11IzO3j4WtAdklG6lf6lxwjrrXJpENIu/kPH36dAinrWhTBDdtTXor6gfa3CwN9qg/gXUHwZyk/ewc+lqpnJpjPGwc6bJisf403r6yFFf3fsn/5mvbqXJzwwWPjUZBrm8utrK9OBZkO9MOk21akTrnFfLCCd9O6cPR6q9p2FqogxYuzF/pyjNevq2G3bGEl/7zUD8SX//nUf0OR7d847R28p0pZRz7vOTb7u3gRhhQnYnX6jBD6XxKe/9ycPR746O+HK/Hk9+dHyr1l+idXnMdmwgtSrWhAH5F55d1FrVa7BKueNpwpItXwji2jh8Pr3yEq4yyj82VXpwHwsBuxkSN/jFay49tKkMK57FXbonFvohOmNqGtlYdKA+LdHn2p+lK5PTbYw2pLfhb8z929ikHaazMQaqnl959UDlLutLz1l9Kk1LSwXFMPLw43vj0sPrlrrGrBo3PVJ/1z2l/Dk+/0pdsLKW/vN4uPJCrK36BK8vFPUe2GdnMbYapUVm4qzEmuzsdvf4KFvaOydLkbLISBMFy8HgVwl9QYkHKYpQNB7+ef/TRR4ObBSxzIQtXhMUsv6qzOUk3Hhzxk4a0a8HONZrXx+afqrn/wFDXEmznqDtQ1D2oTGoPNlscaQ/ajDsjbLSIx3k9noUe/NJLfOKtlbG2C4IpRF/qy1j9EtYiS3Hx6Ff8n1/L3RrD5Ct56fxEfOX8QvrS+YV2uw3aufI0V1LzX7ly7G/U77FkJ4HLy9vHSEpcXN62n7Wz5M7RulBx/4iA81e0NjfeHYZxbnYLl31x2/fi1VebdVQajrd/qrof15e37y6UuLypG79pO8vPjyBjEA8d0mMXioj8JbTYBFuPVo89L70S7lRwRA+QjnO6g4FfmwXdAQDp7I2XT6sdlFt1QNnYZPFeCwtz/Cq/jmy62FjhJ+/e9eDpx44xKNcYnn7qQRtL4lJfbFQQ+gPh6kvA0epUPQnFlaBX2HieXQId9ijk9+pHpPml/pJ+z87W8FZSu1O8/NU+Vk/JnUP603zkb7XPw9Nv+18OL736V6lOCE91UCYJYVaEyu2VX+FpHvK3zg8itcOzay5a82ktv80/5y6lr5t1goC7TGOypXaQBsGh0eIQYVLUxMhCEWHRzEJRftuXictCkjik55dufvHWohNYbPOruO50AOmY2Fm4Hzv2QqI6or54NIm6odzafKn+VH7v4nYK0Pa2DwD9g03a+++//1qfsvWiPkm9IYqjcEkJ20+DZYm2GGff+ol6PV68tosNSDALaUeLSSNYE+qPLP4kgjDdycDNBgJh0ajFoj5OZx+zIY5eKueozYfNC05lLKgcdlFsy2pFceQ/B+gv9AHd+dBGlH71zjvv3D2eR30Q1/YzPQKGm42I+hKorkXan06lfx0zx94mGqcl8cilseLVT/Th02FK217d/+4f/NrO/Tle60DeS6hO/7lx+jA5dMV9ibeVE7/IbvvAthWLQh8RtsPVTiw2/X6Mp79xHlHaLpl2rj1ptt9h239VR7m66j1+bpzvhNTmn9ou/41Tf6V0tbCwA/VH0ksHRxZ5hCHysyjkV2yEjYc2KCwQteHAzULRLrYl0kfe+HvSqn9KespKnbAhY+OmugLqCF3UC6J66M3S9UsdgN1YIKoHvRdE/SBpfNWTRChfnbN29C6zRXmledba4MU7ZFn2YYr9tv2sewylT/OZq17m0lNiiv5c/Sj91H5em+8U+1pI85Hf6we97fP0z5W/1WPdpfL3XpUHZ0ZucgmCNUG/ZOGH4EbYTOBnccjiml+rEdwsHvWIjX3MhvhMslqEW+G8JuBTGQcqB+XTRgNUnyykbZ0CfuTU0UbUtrWtlw8//HD4U7746VNvv/32IHqUT39lC6hb3ZEDW3+p/mBdRPuMM1Y/pbCox/5Qx2NSi41bk26+OyC7Y4kbJ0LtL6h70/kOiP9nUo+b27UGbVSS1xt4SqcFLWb2xq3/cXviDsg4a78DkqsTi10wp3CeBZ+940F8Fn56xArRApv4Vhd93foVjmhDMnU8TMXmvw9eeoVTDi2QOcfCW5sx6opwxC6oodU+j1r796VGvzZmanObRu1PPWmjQrjtd6pTwtTXRJq/55+Kl17h++Zbq3+tTLVP7V2L9Kf5zFUvnh7Cx2RuaurH5l2yodY2L16tHo9Uz1z2tdKqf2r62vizbUC2PWrnKOAYdOwbEErQk6kd4NDYDVg6uehiO0Zr+bz+6T6C1do/erdPbEB2rltydTAGC0JBWvws+Li7gdgFIIs/FtV6lp/FdGlhySIRsfpt/1fcqQuSqXj14eXvpSdcC2ItmqkTQDfl56h6sps1znv6W2nVX1P+MaiTUt9AuNMBbNjoT4jqkzR6xE86JAq3R5H6x5gSN0erDV48L3zp8TMlPLW1pv8rPI3npRNe/dTmX6K1/q3+sfpRmI2Pu2Rfmq6EnZ/3oZR/Shqv1r5a/SVa9c+RvlR2KOlvXHUFZ8PF9mI5JgW8jh0Eh4AFsf1VmcUeGw8WhjxqxQWKMO508KgMwiaE87ojYi9iTK74tRjHrQmXPq+Fp/I9djSOKSN1QZkl1CMLaOoJN+fsgtxeiE4V+opEbW7rzN4RUr2wGaG/ffLJJ8MjWripN/5y1he/+MXhxXXqU8RcenycS5tRzjEpUQobSxPMj22rnNRQG8/yue+AlPAuIvtkflAav9NxMXzuvcx152us950Rt/aXbh93EXKYXyhKeI8Iet8J8fK/brTPLn5zaGG9L679zndANpc3wx+iYB7YOgfu/Fv39eUr/Tav2nZ78vzFUAd2UatFPnmwKIacPsIRFsZsOFjUoYcFIQtDFoLc6WjBK4cXjn1LUmM/gp1sNFgcAwtu6pU6JJx24Mhimo8wct7ru+Dl31o/nv7W8Fb7SE8e1BWbEG1stZHjuyra0KrPE19pVP/yg+IhnFM4fsKA87QZ6ceQzhLoHYM8x/D0e+l702qfVz82vOQeQ+1ZwrPfo3f9t9ZPa/lb28+jNX0rh7TfxpW7VL9tvTIIgqCB2gubfUSKi40WYsDFRRNdGqZf6/kWAy/9Eo/NBr86f/zxx8NL5a2bj3OAdkKoP+obUd1qsWwXzLZNats4uK0r+i8bAjbHegyQvsuX9rWB1oZb8VXvQN9HqH+1UQmlD9aJxg7HMTlXzrnsx4DXPrEBCYLgoKSTUs1FRIsqG5cFFwsv/YKrhRTn2LDo8SoWbizGSM8v9vw6j+DWQi3wUd2rLiXa8HGUu6ZNg1fYzRp1SN9kA0I/ZZOMH+jXbEa4A0X/pu8rDfUO6NIGsNS3bX5KF6yDdOzg9+ScSMt7buVfO1Pap/oRrGPHe4nWQ4+VlOj9CNaFY7/XiIsvsQoXwle07YVLF9pabrzkCz+C5elvnYRd+xsfwXq5U2/zmdJmz69fPXKSpiMPzrEY06/x+oUYCOedDrmRlNy5KUwpyxqpsZ86ol5534Nf4fGzeCWt6o9wFr8smFk420eDlqQ1/972qw7Tfqh8OdK39Y4NdWw3fdwlKaVHiCO3sPHt+Ryt4R6t6XtzqPLZeNbtbRI9/a3296a1ftJ+n9Ja/qXTt9Lb/tw8UpNn3AEJguBg2AuFd9Gw6E4HkxrprAAv7uq7CsTTooxHrXh+Xgs1xeeoBZz3/HvwCha+iNBFhmN68UnPBftDf+WOCBvpb37zm0O/ZpPHuOAuH/2fO33cIdHmW+Mj7fPy0zZpewbLorYB6w5uifpZN1PbJ+6AVBJ3QBpxFyJtF8HWhU7cAXHsn+kOiEjz8+vv1ZfKgUUWiy9tTDiyuGIzIWFzoV8OCVd66QDy9fKuYQ4dS+LZr3rj7gcLXW0GlY6j6hq37oDol/mlF7le+Txa03ugX/2So/LjKDf1qw0E9Wn7P+0C0kP/Z8OiP7LAXRPOq41IL72g8yVs3BxeuEdr+t4cunxpfPWNEp7+U6vf3vFTlk7fSm/70/6Zxi+lH/0OiKV1ACzNdkrfufZjO13vXHluuhffyX93LLF4+7j5t9nXXD43+XgEL3/vOxdL49vvbOC3yaUhd9wumz6Xx5Q2e7l7BIsFF4+h8EsvRy3A+ItLLLZY+CIsqIhPGKKFmyCMRZgW0t785uGVZe3zp5e/6og6Z7GLH6H+gXoEzlGvxNUmELenv3f9tObvMbd98nNEqEeOts/Sp+nrbPLUv9ONidKwAcFNnNay7gN5t9CavjeefV44bZLGsX7cY9Kb3nl4+r36acXT1ZrXnLbuQ2/7a/pvjrj3GgTBQWhZ+LDw5fEq+wIukxov6fKIFQsxFmnAwosFGAsv0K+7Om/fEdEvxcE0qFM9vkbdc9SGQ5sOoI1KF5/gdWw9UX8S9V+5tdkAbTjYhPB4FmOBR7TYkKOPsfLlL3/5rs8rD6tfuoJliXYYJ+pn3ezTPheP/nf/3EFa1XsEZe0Xqe72eY9YOY17Y76zkKfvXnPp9lt7/l77eekPqd/qkvsi+Q5NGuf+xe0dB+nhnBapuFko6ZwWVKBNAgskLWgJ5zybDoQw7ngQrjsciic7dCzBI1wtyM4SXv4eXvssDfZR39oAqh2pF45AW4HahUewWAjj98rn1d/S9eO1f2v5WiF/8lBbYK+9E/KFL3xhCGPc6NEsO47UdmBttW7yQK89WgHiK4112zipGxjbLaT6hPy2HGOU0nt4+mv19KI1f6//e7Tm76Vfuv57l2/t9WfHuaixOTYglXS3LzYgTaw9/9YBfkj9OV3eBehq9xCgFp8c5bb6yEd52TxZrOruBIshLZ4UnwWTFlAsVrSxEZ59sQGZB32PAiiz7iTxCzxtxznaCfQnZDnnlc+rv6Xrx2v/1vK1gn3kIcEeztE+sp3xpLEF2oywEaH9lEZlSfXpHBBPonQpSgNK1wvlZfOE1G6PUnoPT3+tnl605p9r3ym05u+lX7r+e5dv7fVH+jROjc13G5DWAnr0fgn36Gl8Sd7bgNzc9K2/pdvn1PP39M81AZfieekvrm83BGwMtPEYzu/ScQHTOY7WXuIQrgUSC1nO2Q0HCyXScE4LXCCeZIzYgLRB21AH/MUlvfBMmfVYD+1EHG0OgQ0Id0CI55XPq7+l68dr/9bytUI7kIdEYBdCmxDHbvDVdsBGkTj2rghQbuLkdMoNilcSOycI6/fqtxbyssif5l2ilL43vfNp1X/u6T3Wrr+3fSm1+cUGZC3EBqSJU8/f0+9dYGvtS+PJf3lzuyBRPumRxQtuCZBWCxPQ5oFwzrEAQojDnxHlPOHoYhFkF0PEkV6lt0KcMVo3IOTRk976W6GdWLTyKBxHtZVtA+KofWkvNo0sbEGbkn1Zun68/Ndmnx0roPEjP23IRkTtiTDWaDPdFVFbgsagxiv5cc62N3BeonglxsL2JdUpv8rhUUrfm975tOo/9/Qea9ff2z6LzUvu0viLDchaiA1IE6eev6ffu8DW2leKxx0OIB+JXaDksLpY3ODXpoNfYhH5WaBq44FoQ5Oic9LNEcGWMWID0gZ3MvSXx7SYVZ3jp820MaEsxCN8rj/Du3T9ePkvbZ/qHXTUWNHRhlsBHqujjWhDztF26WYEbBoYy8MeGeOg9HZzwrF1gyqkU8gv+zxK6XvTO59W/eee3mPt+nvbJ2w+1l0af3cbkNYLhIe3AfEmiN72edROYHvjbEC8DuRtQJz1WTOH6uAl1p6/235O/+qdXuFWj3VfXj8f/CW5/+DVYzm5oxY3esRK45mFDXH4sBpHicAuJF2gpOXxyhcbkDZoL97/oP2wVfbSViwu2YBoIwm0MQtXvYTOQraFpevHy39p+6hj2y6pPbQT52hHhZFG4093QTQ+aUviKQ53sjjqBwLps/HGUDxENuhYk95Dcwa6LPIr3KOU3sOL5+Wv+bAXteXoRWv+XvrW8FZa9Xv9Y+n6m2pf6i+ljw1IJZ59zcQGpIm15++2X+ME1Jqe8YWOVIDjxcvPLyAVDlf3HryWhvzQieDm3QGOCHFYqOoRKy1oUlJ99phSOi9aNyAeXv4erel7wwLxvffeG+6CgPoL51lc6pzaEjfvgHz88cfDORa3Y3jlX3v9rNF+m6faS+NJKI42APhpT7sZwU0bMmY5Mm5x201DqjcFvWOCfS0of3RZ5PfsE6X0Hl48L//W8nvUlqMXrfl76VvDW2nVXzN+Wmitnyn2pbrwl35guLr/lR8aPkToGdBK64fYetu3OM4CyS2/E145/+7N0u2z9vxb7eudPhfOpKOJ5+LF86ETEYueyvFqm+Zqe+Hk+Pzl7S+pmmhYxLB4YcGqR3eAxQuP5bA45ciCxi5ixV2+W90SLtKIdUu8CbL3hyBz9TeF1vS9oX14TIc2BeocaDtsp/51JEzxCK9pH6/8a6+fpe2njnN56BztkGsDnSceR/xsLiTacKjtGceINpTEJw79Ax0S2SO3zZ+jhPOIt0Gthfwsqd9j3/RT80lpTe/RW79H7/ppDW9l7fp7149Nn3Nr7KdcvPkr/6/jV4YdnoGlDMR2qbJzFbjo/RO9k7/HzfgzqtvL7s6Vp7WBvV9wW/W3wkUG0n4g/9L2tbKG+k1toG7v6vfy9vl7kbbD5UU+7M794ulwkJ+jFe5w2PNCNr3YntKvpogWJFp4PP74G0M8UHp7bK7fxvF97I9oeeG2zXLUpP/Sl740tC0LTuIjnEfS8U8Ybc8jWDxel24w58azv6Z8LbTm39s+Dy9/2o8NCH8BjT5Ae7NB0V1M7nSBbf/cMS2HztNX0Ek+iJ3vSEM4cM7qtHFqsennwtNVa1+qp9ZGT3/r+LP1L6zby7+2HGPlVx46Koyjl386P4lUVwkvHD3EkQjPrlpq8oc0nvytdnj5K7yUv/pPSttVNwiCg8AEwiDmaEVhbJC3S747YcPxmtxsz22Fl8mHF8pfvtjccFdjd0QH+hE9XsHkwaaCOxh2gtHiwMr7776zefetR5tHDx9s7l9uz23zePns6XZf82Tz7PFnQ1qQzRbSB+tGF/AU2rPUftGupwObDO5YstHgS+t8dZ15gs0IH6b8tm/7ts0Xv/jF4T0hNir0Cwn9gP4jwa++oTmHBTLniK87LwhuzqUbE8VV+hzKHwnaUZsFp4fGVEl6MdsGJGf0FDl2cmWycuzkymQl6AsXWV1wcxdVnUtF2HO6aCNc4HWRt9g2zelhIcDi48033xwWHfwyysKDdOjjpWMes9KjVkonrDtYP1r41bab+g9H25eC44TFP23PHQ9eSOeuFne3GN+MdcL5oYJHtfjqOsLcwA8YpNM8k85f6h/qI4Sz8dCdFbsJSSVNKxSew8YtxQk+T1rHOf+YBOsm12ZWWsnpHGSuR7A8vEewtlPUztWJzo9gNet3WPoRLE+/wtNJXf7e9vVmLfZjR2oLdawvkau+06P6L36J/CLVbRcL2y3HsMhgQYGw2dCvkqR59vTVX8nRYsPmwwK2K2f+CFYrnn4Wl2w0aXvaWO1Jm8uNDtveuPUIlkdr+XrXj8ep268NiB3TpFE65gOEfqIfIthE6M/40g9yae3G1gooDAGbRqJz9MMxpKOEF+7hpVeZPFI9tXZ5+qmrubA2yV1bPo+x8isPHRXGsbb8abxUVwkvHD3EkQjPrlpq8oc0nvyeHYzvMWrH19T8r+5/9X87vITukSqeynba2LlKzNNQRRoXGK59zfrH8V6ibW0fD09/a/jaWdp+8k8vurJpcJv+yWBnwpAMfh612h7TiSDVZdF58ry6d/sCKn/NCsENLC5uXyp//NqvlspLNnencfyt/Y9kLK3f3uGiXXVEdPHinPTQ5oTRJxAPL3+P1vStnLr9GtMazxrTmmP0o4PGP+fQSZ+h78hNX0nnA/RqngLiSkTpLohEcW1a8pHboybOGK3pRaqnl959sXrm0mmZUn6F1djhxWkNB+JI5qZWZxqvNl06JlMYY2Mon6n5z3YHxA137oBc37zYuTrR+Q4ILwGP4TWgx9J3QLwOKtJyyt/bvt4sbX/uFwrqVnK1Gz/2nJWL7QUeKIfKYsvEn8m2iwDys3c6Hjx8czhPuF1oaLFxef16/mDzSkePzXsW4g5IE55+vlTPr9swtPd2PlB/0WM2VgfhnOOXb94XIO4YreXrXT8ep26/HdP2KPArDqR3Snkciz7AfKG7Ighzie0bVq91W91p3sAPIjqfbjw4Kr3VA/LXXt9K5GyypPmWSPV4eoWnf+7y1dol5ii/dOioMI615U/jpbpKeOHoIY5EeHbVUpM/pPHk9+zIrS8stfN3Kf8Ss90BccOdOyA3m/ECNtP5DsjFmd8B8ehtX2+Wtj/NnwnBys3L240AE40mGzspXW6Fo/Sk+uhfnGPRwMWcxSZHFhCcu7q6ffSGZ7717DcLCPIY9N7cjl8mersAkD0aPTZf627mzO+AqK1LeOm9cO566SKlNlfb6rzVIbcWnPTNMbz8Pbz0rfXj0Zq/R6t9Hp5+5gBh5xnS5dISRjy1P3MC5zhqc3I7r7x6jFPzhq0rq19uGy6UH8dcuJAuSPNpoTW9SPXMpbcVa0dPG6foVlhN/l6c1nAgjmRuanWm8fZNNxWln5p/31VzEASzoAsrwoUW0WMPw+MJ2ws9svUMwh0PloXIve0kcLUd6RL+Kpb+WtZwZ28r6GVBwOMSvEiaPmb1V//qX9184xvfGF5AJT8mFhYMMNjzcrsZud7asBWrW+eEveiL1skv6I/aOtd+JUoXpeD4YCOR3q3QhgHR3ISk8xPur3/965sPP/xwmD+AuYU5hrkGwc/8o75CGvU1zkkn55Qn+WsDg32yUXkqPsegD2qvINiHi7dnegTrhdnLKK5No8mkxOX1ePhLp5+3DoTWR5y88vVO7+GlJ1w26Kg0NuxU8erHK78Nt/Wm48vdNbCUz9Xlq4uk1SX31e5P5aYC6GRTkTsv2dx/eHdxVrj9FfKt7WJAcQknHu926GOBWoD2YrCxI+4fwWjMvnX+8MLVZvvitR+LNOLoiNDu+LkbxlfQx1C/IR1H0tKvcLPo1MKzF175vPrr3f88PPt7949WPPu1CaAc9AvurOouK3OQ+ht3S5hz+NEDP+VCpN+Wk3MIOkkn3RwR8kRIox9TFN+mRUgPuEXJnQNdkLaD/F76Ujz5vfS2fi1eulo8PXPlUyKt1xTVfwkvvbDl2LdMSmfTe/m31p+XvrX+PNCPDRKhfEv2zfYOyPX2Cm7jyK2j2wGcDchW/SiefR6xAYkNyBhe+Qm3OmzdQXqBSONeFt7h0LmL7YbAojCB/kGPubASRxfg51vhPBdoRJsPxeWL5sTloo9oo6J88PfE1kcPYgMybh9tTxz1I/oI/YB8uSvmoX5GOo74cQObD/paT7zyefXXu/95ePb37h+t1NY/R8pCfM1DuPkLa5xHiMMGRJsR9UORltWmk+g8uhWeOyeR/UqbHgVxx45pfGvLGKV4qf4SjDcopW/F0zNXPiXSek1R+5Xw0sNcdad0Nr2Xf2v9eelb688D/dggEcq3ZN+sGxCw8bw0lgvHitYFgsfSG5DeePkTrjKkncaGnSpzt0+qL60/W7fD8frzdzi0qIPL3cIQrG6Fa+FoL64KG3Rtz3Ox55dAvRiqMOT59mLPJoOLPSJ9xEMn53piy9SD2ICM20d7E0f50O5qc14gZiE4BvFJq36FPm062IC0XuA8PP1e/fXufx6e/b37Rys17YuN1k7KJKGvMC+x2WWOoh/Rh/SiOu+d4Uf044h0gPou4Ryll/McOQ86n7p1h8RibSV9Ll16tGkgtbNEKV6qv4Qtn8VLV4unZ6589mXu/KfWo9d+ab9I8fR74a206qd86JAIr/9fvPEr/4XxmtnRamBr+t7EBiQ2IC146fkKuSWt65vtBmQ4bv02TO7L7cG2B7wWb3cBlnDhRbSBePPRo7uLMehCziJzOG4v9GB1ita6qaF3HmvfgPTGy199Ru2Om37BUX96eQz6E6INCGntBoS/hNWT1vpde/ssbZ9HrX2Klx75oxb0HT2ahegPYNAHNU9xVwTRxkTQb9GFaJ6zc5ncFuUN6rc2vY6I8rJpcu40H/lt3ByleF460Zrew9MzVz77Mmf+VtehyrV0/bbqp/+hQyK8/n/x5o/8i6+PmAJTDFSmlinplyA2ILEBacFLbz8UiLBYk3uQ3QYEcrqutktoC2nEoM+0FRdOLqhcvJHhwv7gwZAnF3IrsuN6e4FVWpu/7PPK10p3/bEB2bny0Mb0E/oD0A+0idAHCMdgsUha0gF9S4s6NiAff/zx4O5Fa/2uvX2Wts+j1j7iSSz0NTvXDHPWtk8huPkz0ITRx9h8IHpXhLSct7oR4o9BHKF8JXbzgagvlyAOpHnKr/ASpXheOtGa3sPTM1c++9KjnIcs09L126o/HT/C6/8Xb/49X3t9xBTwDLy4fv3XCOEZIG4ux8P5BXgMm+c+LL0BadXvUZO/8kjbzIadKjX1M4W0vu5tXl1gES6YiOJdmO/gkJet++HIFmYX9y6Nifd8u4LWRVsvdiqc+E+f3v71KoTFodXBxZYNCNjzOiLY2hPl14vYgIznT7vTf9TOxOcc/emdd95xNyBAWvoS6bQBwc0GBOlJa/2uvX2Wts+jxj4bh36ByE0/4/janLiNr40Ad0Tog3qElHPMZWxA6GtsRkiLW5sZpUeEtWEKPIY4hvKQ7cKWZYxSvFp7W9N7eHrmyqdEq/6p6dP4ten3bX8v3PbhHGm+KVPLPxXyJw+J8Mp/8dbf+6+MW77DLcDLz/+pTa9SLLEBadPvUZN/2m5KY8NOlZr6qSGtQ8B98fL2r6zYcBvn0nyqL5eXNiBKQxwWeAiT0/Xl7Z0OLtIcCdeGA3n8+NPP5UkcyTZgOJfmMYRtsel6oHx6sfYNiFe/vesHtGGwGwkWfPz6rI1JCfqd0gF9Dn3A5uOTTz4Z3Evh1d8h6reFY7ffLtBtX5cb+1UGuRXGkY0FfUyPZ+lHFunlsSzi6PEs3KRLdYHNJ4fNV7DpAekjX7nBls8ifykvUYonf6q3RCl9K56eufIp0ap/Svo07tS81Va2zTwdXrj6Vwmvf0wtw1TInzwkQnaV8r968Mv+nq8NH/FyZPjQ3ojwITJlkh5rGDYgRC+ItwFppfeH/rz0rfo99slf53rbtgb2qZ+UdOKxk8LNsyecuJMLZHtecrXt4AyBYR8+hN3KhndHSLPdoqBPOpmQWOBxYeRC/Oa7723u3X9AwObl9c3m6bPnmydPn93K9qKsb3FQDl080aVfDVU+Gw6E24VlL5RfL7al2rkKNGa/9PwxB2pj+oXyG/rW7tdfzpVE2L6ljTD9x3uJvTfWxhxe+NKcgv2au3DTTxD6CEIfsWVQXMDNhoNwu8kgDXCel9eZCzUfqu8B6RU3B/EIJx6idOrLCPkqDui84upYwgsXabzadKI1fQlPz1z5lGjVPyW9jTtXuTw9reEec5VjDPKQpJTyv3jnR//vw4jSwNqXe1v9+rVVgxiRXu8XQl38PFI7W+0WpQoSCi/l76UnnurExq2134tXssOzSxBPOlJdNqwXtXbui2f/xa7/2XjWzZfEc8juq+efDUfS2IuZZHuJG+Lai5oN5zshNly6JM8u799dsHWR5Yif85e7Z6HTXwBf4ZR/l2cJvWOyFJ593bkYv4Pi4c1/Hr3LTz+i73BE6D8cef+Dxd3rfenzePbxITrpIK7me84xXlrLJ3298Ozzwr3682jNf2la7fPSv//++8OciNAX6FPMg5oPOaqvIUL9Jtd/1GYcyV82pEfw/lQ1cW0fSPtDmn8abvPKkcZP8caHl565YAwvfa39aTwvXS0qf2pn6u+Vv6dnrnxK1OrvVX6R6hvvlUFwLuy+CD5sFHZivx7OwNHgYdJCuJCxUNNiH386oYmrew+2m5x7220Adyg2mxcvt/FvthelrZ/zl1f3t5lcDecIIw5hnL93/+Hm7Tff2Lzz6M3Nu289Go6PHj7goazNi6dPNk8+/WTz6VYeP/5se6F9ut2IcLeDiyYXDv78btviOThPbJ9vJdVVGidBsA/8kYOPPvpoOPIne9l0sOjk7h3vMH3hC18YNtP4uZtCGP1R/VAbk7Rf4te53FFuHjPkL3lpw5P+EAu2/1s3KP+xa0gQnBqxAQmCLfZiArpwSPgzuvyhBckNXybfyfXz229olC4iutjoKJQn8ZUPDPltL5Dc4eB5Zy6a/BlU/Y18wkjDxY6LHhdcXQDtxS8IpqD+p75j+2Qrc+kJghzMfcyB/LlnBDc/DAF3RZg7mUPfeuutQXAzl+qX/dL8rblYaM62QnzmXYl+lJJY3cQXGl9jY8MLF1ZXTjxyaawE6ybXZlbWytWD7/uRr+3cTfDsugYkpAX3npH26F2Jnv7WcCCOpBep7tq8cvF0rqe94hB5jHG1uR5249yTGGTbj++OW7nmrsJ2E3IjYROyc28DhnegbP8XlAu5vaOxLSPvS11y0bvN6fqaC9jWtb1I8hjYFY9WbS+M93nRciu47203IlTPDRe67abj6fZi++TJ483Tp0+2F7cXw/ntJXSIszXkVrbat5o31zdc/LizM/5bg1f/reO3laX7B+3WwjHMfyyQlA/9WBvgmry9OCwQLcSv0TsXrXkd0tYcYf94entHQ4t9bQD4oUawGWHjocdYSSPd1g3yozud11MUD3QdkB1sQHTeYvXLncpczKlrH2rzT+PNZffa82/Np5edc+kVqb6rB7/s71rFBsQr6NwVkdKaf419xJH0ItVdm1cuns71tFccIo8xrrbZywb1YV1AkM2L7UVsu5BHhj+4sJXtZenuaPu95U4nmw+OZowAFx9k2HTsFnz6Ky/8Okdc8mezwYWUl3n19+85j/5ByEFuIyI2II2cwQaEvsZRedEf6Yc1eXtx6LO279fonIKnrzW/ue2dStg/nl6Lf9CcycJfGxDc2gigi7kV0YYEN/3d6pkC6WUjR/Vz7JA77f9W7CbEhs9Fq65DpU/jzVUHa8+/NZ9eds6lV3xO/9t/3//t1WqogdaX0L2CKlz6ROrfl9b8vfTEI45E1NrvxSvZ4dkliCcdqS4b1otaO/fFs//e5vZ2PfF00bByufszutZO6+bdjRx3ce7dfghQujnPxY+L3nAhvP/wbjNCGPG4eOqRqpfP8l+Slv6XL28/ZIjfirh+2Tb+4iX0034JnX5HP7P56JGVGjz7vvnNb2avD4C/FS9/L9yjNX0rYf94evoVEE8i1N/o49poSJiDOc98iw7NuXfz7q6/Escy1mdt3nKjRzZY4RyCXZapY8LmuQ+t6T08/SpvGm8uu9R+ab2m/l75e3pa81H5StT2p17lF6m+q/u7R7CaK2CbnELajmR1HsMvgGO0hgNxJL1IddfmlYuncz3tFYfIY4yb7QI+t/FQf77ahjPE9UiW3MOROyDbBSplsPIal7fhw2Zj96ubBP/Vvdu/M8+FiosfvxjbFxqvzQbIXrjg1k4ew8rXI+duChskkUtniTsg4xO8xzHdAdFRd+LkH8MLpy/f9tNbIb6XZk5a8/LSU6Yxjj3/VnqXn7mbOHZutKI4zKVsMjgO8+r2HALE0/w8zMlbN2IXd1afjqD6t2HWbdsHN6K8sQNw67yweYxRG6+El97an8NLv285Wssl1p5/az697JxLr0j1tV1Vg+BEYAOyuX5xd7zgL2Jt5XJ4N+TVs/EpupgQPjZYnz1/ud2mXA53Oh699c4gD994NPyVK86/2M7vz15ebx4/e7755PGTzadPnm6ePH8xnOfXcx4R41EvHgG75uX3ly/ujpy72ka4vU5yEePCykWWzcutBMEYpQXGXBegMT1z5RGcL/ZuhvqTFvNa0HNe59gQ6wOZ3J3DzTlg060//IGk38GROz3KDTZvNhg2XGGc190W/dh094PTNrw0JoPgVLj7ErodPPvAXwnSoAI72JCL3S+8raR22nzAhitvhY3RWn4vD+n37C9RU4YxvPLV2r8vrem9R2Cut4ts5cHRuofjy1fPoCOa4CX3bl49goUIpb93Sb/eleFG+/ZX+/erbf9/sRVeNn95s83/8v7m6v6DzeW9B8Of4H34xu0vafpFjTz4JQ7Blicff7jTlEd29OL2Xk6Z1vxP/hGuxke0POZ6hHUM+iR9Uwum9957b3gEi7txrfr1F4ro64wBjTHSKb+etOq3v4LnsHNGjt7l8/Ds9+zzyteb1vr3oA+yieGvZemvDdJPQeOCuZqNgu5Ok4YwhM1Pir3GSFepnokDCucoAX1nxKa3+m392DhC4TZMaWvw4uXytHjpvfb1wnvTWj6bvuQew4vXGu7hpa/tR6me2TcgGhTSh3vwxwbktaNI7S9RU4YxvPLV2r8vrek1AWGnbLVuG26R/+rl4+GoNBKd45sacufa6OLm+V382w3IbX4Xu4Undx14DOvykr9mdbW5GDYf203IdiPCh0TeuH+bVmOEi5fdgAwvuY/QWn8esQFp5EQ2IMTjyHji2wn8+stiq1U/GxD+XDT9PjYgh8ez37PPK19vWuvfA/3UAUL/RHRXRW7y0NzNnQrmbo5a88gGjtIlIS7gLmHDlE7Ij52SNI5XBzYu4PfSHIrUthSv/Xvj2bdP3Vs8/b3DPbz0tf0o1dN1A4Lg5tzSG5A03VJ49p8qc9a/rSu5+SMIoPZG1Bfh8uZ2gS8/WDf9F7AzZ+uwwdjpHd6n2G5CbuPevttxs50ghwvX/Yebew+2wi9ifHhwp+vq+slgjy5cCBcyzsH94U/nlpmz/nLEBqSRI9+AaCwQDzf999133x3eA6HPturnV2Med6G/s5hQv8cdG5D+ePZ79nnl601r/XvQ3+mT9EV0UR+cY+PBvM444Mg52aKNCEf6t9JzlA7iIsz3uTou1Xt6Hp2ck05s0TGNW1sX0leDp9PT46VXnZaotbNEa/pWVH5rR8mdo3e4h5d+Sp+zzLYB4RdkDT6BTgwbjLv6/C3KffhcAXb+XAMrb6S1fHPh2X+qNNf/8HXvV3rSI49ggdpbFwHV6+X1qzsMWVt28axepeXINzpe6WPzcTvxX+6Omzcf3V2ghrsel7d/yUpy8/ijIS1jBJFuID1fXh9DdvUiNiCNrHwDMgV08QgKj1+xAKO/tupnocYGBF0sNnSdsO6etNq/dPpWvPyXts/jkPbZuVloA8K4QBgX2IQQnw0IfZuNhn5kGub9bRhCWovSqlzKM5d3DtIxdqSD647O62jdYPNIw5bGs6PVzqXLqbpP7ZC/tfyt4R5e+in91jLrBoQBxyAE6cOwwbjYgAx49p8qrfVvH5GyRxja98WTz52zx+0SbnfMtwEf87PpAb/OXW/7L/HYeDDx39s9XqVfoi7feLSLf7sJv95djBgPvBC+eZr/EJtEG6gSxOlJbEAaOYENyNAPt32XPs2jVwjn6Net+hkL2oAoH4gNyGHw8l/aPo/e9qmPS3SOvqkw+qp+ZGIDoo2INgKKr02I3YiojxNHSKfS5tB54uGWAOkk2GX9xJdu+cGmF/iJsyRe/q32LV2+tI5Te1rL3xru4aVP+1SJVM/sGxA7YBHcw+BbeAOiAVhC6fcltSslZx+k9pfw9Hu06u9dPx4Pt+s7bFAfs8L5ezfeAv51+1N7tmoG0GXLqnjPL29vvd+7un0u+D6PWvGC+W4D8nz3COLLF882L59x4dke+StVL7YbkJsXm6vtAhJdkhSvfnNp5iQ2II2c2Abk7bffHhZYorn9t3o//vjjYUGGLm1EGDuE9abV/qXTt+Llv7R9Hr3tswt0C/kius5wxK+NCGMENy+JowMhnLj0dW1A9AcYJMpH+pW/4JyFNBalUzzpkw2yQ3rTOyRAGptuSaxdPWgtn+qphGe/bW8xpcxe3NZwDy+9Vz8i1XP1YK7vgGzFdmj0vabTuYDWktrp+UXp/FzU6q+1N2Ut9u9Ls/7rV78kpUKfu7/ZLmi2y+iSbA3YKcpzseuftv/qIjPcbn/45u3Xyh+8sbniV6/tRoRt9/U2+svtP0+efLp5+fTx5vnzJ5sXW9m8eLoNeLZV+Gxzjz/le+/hoDdHTd30bp9tDrtjntb8T/47IjPNbyW8+vPK510gSI8wnuj33P3giF9hY9To52V26SO+9Hpp58CzvxVPf+/8e7N2+1vtIz390PZFzkksioewkdZ7IAjniK9NgK4hHLmOcEz1Ko2wYYCbOHKj18YhjHElt/ypWB0SxT/1DcjS+lXfJfHw4rSGe7SmF6me2TYgV9v06szS9ZrO2IAM1Nqbshb796VV/4vHn273INtNCJP8djLddrRhyXy51TvIdgNi0WQrLi+3/pvt4sduSnjxXJL8gs2ErM3H8EvXW+9uHuxeLr/i2x1b/S9f3P49+adPt/Lko82LrfvmxfPb91Vunm/HxHZjdHWxub+173rQf5snHw0cbNgWgA943n7E8zbfEr3bZ5vD7pinNf/YgLTRugHxID1Cv2aRxC+6UzYgNTBWNC51nVCevZnD/jE8/b3zb+XU7fdg8wDokQD9Pw3TBgDou4j+LC/xLerbvE/FtYO0dgMhfUpnz8uvo00Lylt5CPk5ohdRPOnhaNNxbgzij4lHLo2V3vTOw9Nvy2ndgNu2RQ4bP0druEdrepHqme0RrJr0GgS2spXOa4BWWhu4Nb3H0vl7uO1D/he3kyjvQdzyKs3l5tXjHNJldT7cbSA4pwlTx4Hr19+hSLnYfQfkYvcLE38Sd9Bxczu4LzNPyCgPeHH1zjAJc5GQsADTZH1182KI/2K7wbi9tf5sOL68vv0zjK9KV8JZoLrt17bAbe4f7JLGuPs2yn6c/CNaHo2PcHmPaNUy9PVtv9fGG+j3cpcgzhgszvRICm7ysYsejcO14i3QWvH6nxfu1b9Ha/5L09s+Tz/jw16v8PN4Fi+va+ygQ9cT4jIWdPeE96NyeUgfYxJK7ezZRzhpJbrW6R0W3NKRxkXIPz2nuIpfg/IQqb+Ep9/TU5vPvnj6vflD6dNy2noeo1b/vrTWf6kcsQHZUVuBJXrXX+/8Pdz20QJ0twnZLil2csvNze0EKjvT4+WzT4c8UgGOF5vbv4JVgj9jO6TZ6uPI98u1qCOPl7sPDQrOWbm5fH0DwoTLefHy6We3eq9vb7Xfbjxe/aUTvSRfxlnAmLzyOOkdbFn2IjYgfVl4AzKMgW0/llubb6jZHChtCfShx+qyde6lXxrvAt+K1/+88Nb6a81/aXrb5+mnf9AGdgxxTsJCH2FTwvWFc9qUD9eTnXAnRZsSUHr0pjYoP0QblBKkJZ7Gn+zTONf1TuflTkGHRXF0Pg2XX/FSnbk8cqR6Uzw9tfnsi6efOh1D6b36K1Grf19a679UjrPZgKyd1vrvjds+uw3GLbu4283Ibbm2R16WSLBlfvH4453rVV42z8sL3VXJc283/kjDl8gH927RfrNdnL26K/NqUmfS1cVgc/Xo7jyCHiZrLgQcnz++3SDBNofBLZ0ct9P34C4zPkFsK2PnKOGkd2juX7EB6cvCGxD6vDYI1IXq47af+3dAPOzCB9FYEovXv8MwR3TEK78XntbnVFrzX5re9tXWv42nsQNsPrje2LsidtOgscf1RndGtDnhPHrQLRHKo7Z/WptAurQB0fUP4RzHNE+R6hI6l8sn1ZPT24Pe+Xj6vfZR+rQ+5Z9L/77k2tni6S+V424D4tFaANJjhERIr1fAU6e1fnvjtc/l9e3fRb+FxcbuF5vdHRHuYNj216R6tzB54Txi5X2ob7sJGPrYdiHHkUeveNNC+VxuJ3zOa2LVBUAT773dS+KyKb0IbB1D+G3Zdvbc3e0h/52jiHOBoK5GaVsADW3RwLY6R7nYbsFaiA3IshsQxgF9nf6vhQduhLrhOIYXroUMEFfjHji/eP07ePa12r90+c/dfg9Pv/qz+rnia1zcXee25xlfuhuiOyIKQ0jDNYe7IXq3hKOQbrBuj3SM4tc5bALZoOskR8TaKEir6ytxpSt3RAek9k6xv4Xe+Xj6Vf4SSq86E/J7+lvDW/H0l8oRG5CV0Fq/vfHa596GBbwWFbu4ZoG+ef7pcNCEpaPk0qzgP9dJh74zfgfE2jfc+di99MGGBO7fv/1ziYg2Hzaf6927HEz2iDYenEPuv7bA25brtUfNtl73DoAT7ra/p3+c1v4VG5DOrOAOCP2detAvtBpThDEGWpB+xhUifZxfvO4r8GxsLcPSdXDu9nt4+u31h7ipaHNv+z1jjA0I1yJ9cwcBjsSXXv0ZX12f7Hi06UpIT6ofOGKP3EJ6EWzlSDwJfrBpwOoViqujSP296J2Pp1/1W0LpS3Xp6W8Nb8XTXyrH2WxAaiuoRGt6D09/7/w9PP33hkewbifFu0eTzF+mso9Y5cpyyV+i2pELf6lNTQEm8ZdbFUzM3PlAx+W92w9FEba5eHXHQ5PnEHcnz598cyij/La8g67r7QRiNh234a9s3pZgdyzhhGfK/Dqe/nFydTqF2IB0ZiUbEBYa/MUeFkaMA2DMePXjhaOLX3EfP348HBk/w7jajUVvflma1vJ7tKZv5dzt9/D0E04ftsI5K2PoS+uMP12z7KKV8cP45K68RNcpxFvgEgdKtnBOuhRXR0EeuoZip2wkLbbVkOadsyWHFy+1NaU2n33x9Hvto/RpOeT39LeGt+LpL5XjbgPiNWBtBy9BeuJIhAzy0rdSW0ElWtN7ePp75+/h6b+8fn4Xhz8zyyYEv96XuHp2+6FAlSM9pqT5XY8Xf3NxaW4RX24XTLsPBl7du/0rH9yjsXnplyT9Gnv9/BvDeZuvtfHS3OG43WDtNh+6c/PaOzA5xsfPNpOdo4ST3qFUz7VsW3TnynO53eC1EBuQdWxA2Hi88847wxE/Y4NxVLvAKMGiis0Hv+SyeAJdUxhzi9d/I9710cMrfzofprTWX2v+reVvpXf/8fQTTh1ZsbBYJ45EcbSJ4BxxGCcIY4465TzwZ7GJZ69bcqNDY8pDeVlkT4rOcVQ6BLsQuwFR+ytO6sZGkF+k/hJevJz9ltp89sXTr/opofRpOeRvtb93ei+8VI7YgOzw8m9N7+Hp752/h1s/zx5v/9EvMnpx7tUm5I2L8T/Dax/BEjb8Ovd3dA0vXt7cTt4P3xh+TWIDQp3x7jt6Lu49HI52Apdg65uXn38HhfiaOG/v8NAOO5vu7obc+q/dOwDOBdppXze9g9d/PGID0pkVbEDo62w83n2Xb948GO5UcE6LpzG8cPR/9tlndxsQLV7Qz3jEf8x410cPr/7sXJijtf+25t9a/lZay+9RWz/Es3FtveG2fsVF7FgAxgPXMUQbEsUD9OhaRrpvfvObw3mPnA2ADmuLhficU1qJ0nJ89OjRa37iW7/KpXMi9Zfw4mHPGLX57IunP63TFKVPyyF/q/2903vhpXJcPPpVv2285XZ4FdjaAbz0Xngtn6sAxy7h5c+EQRwrOXrl73K3QJSe2wlHC+mbm+2CfRtGPry+DRfXr371vBwW2Nvz24lquAOwXdlf746cv3752RCvhN7FUHlVHh0f3CNvvTQ+nBoe6yE+fe9qu4nZ7jGGx6xebI+85zHc9WDhstX9xjvvD3+oaYi/2yTYx7punn486Gbxo00HcSW3dzVWjLtAbVsAUAc9Gd7LGaE1/5PfwDRuUDzYwDCH8UsriwncjBPGJ27Gyxg15UcH3zvgToh+4bV5jOHp1zyyFK3t3/v62oqnvzW8d/stbd+U/HNufhBgzHDUhgSwC2FsMZaePn06/HCgcQXokB7i6Xwarjg6Qhq3hK6njONUrO4SpXCbfxrH02mxZRXW7ZUP0vxIo3Te+K0JL9lg8xljrH40f5fKbyEvwiSg9PvCRjrHajYgHq0VIFI75Pfs88qnDmQlRyl/Dy9/jxveYdhyl91242H/stS1+U4HGxB91wI35/RXOC40gbFg393hGLh+9Vc6cgzf5diRK/PldoOh8xfbxdDN9e1tYZr9No9tvjxatY1zyd2N+w83V/d2f0Hk6t6wMaENBqFcL3e3qF/c/hWRezevXjLnKLuJj87YgNT1w32JDUgjB9qA8DIsgptFDDBGvPnXKz/jDeEOCHdC9Isu45Hz5DdGjf4laW1/6ngMr3y9+5+nvzW8d/stbd+U/NO48tNH9IgWYhf49hEsbGXsco7r9nAd3Arxhuuj6WvERcbGN+E1/RP9Ng9E52RnTkD5owfSONgvlAbkVroSss+S+muwadAp8erHC/ds8cpnsbrkVvpcGCg8jcfRxtsXbZhTYgNiKroF0lMHVnKU8vfw6teDmxl3eQ2bDzqWdOK/P7jIhzsHbDxu3bdxnu4+FAgKuxje9WBpyfnxcujbHCA7Xi/7rU23sJnb1efu5Y+L3bscl0y8243HMKFtz3EXhHRsNGCwa1vY65e7F/WQbd+53H3IUGWA2zpQnvP0r27EBmSU2IC0wQaEiwSbD+6CMNZ00cc9xwYEdAdECxKbxxi1+peitf2Xvr56ePpbw3u339L2Tc0/9Wv80U8YO4xV3QnBbxf4QHzGFhsRjsO1cHsOP0fKI10ctYFJyym/1z9FqZzYShh6bL4I52WTzV/xFS5sHnLb8BqsDkj9JRRPdspmLz3lGKM2/xqsrlRvKczWny0PR8Sz38PmZanegJQU1OKl98LtDriFNB/5WysY1BklOUr5e5T01XLx8jafi8tbPbebj1ed7urq/p3dLN63FX5b57u7HC83t+9I3O5Zth10++/dI048xnVzu4EpYe+AoM+WG/fF1e0iZ5iItpuOi+2C63aifTC0zcv7t4siTbZakMlmXoLXRMtm5GZ3C1p3cIYybRnySur81j9tAjs0/gK+bYGa1sncxAakkc4bkJfbkcJtcjYgPOZBeXRRws1YGsMrv9JzB4QNCGOZNIxZjl76tdNq/9LpPdZun8ex5G/jpWl0rQPGj66HxOMv13HUeZuWNIwzNh/2ES0gntJJN0ebHre3wE/zs0eQTbJZR84hwzU9IU1vsfnhnrI+TNPaYw3EtWW0dpZI7c9RsmGKbcKmyaVPz9ky4CZcAjX278PV/e/7ka/t3KPkCjEFL70XXtPINaT5yN9avlpK+ffm6nLbmbZ9iPxe23zg3ppwsx3A19wmeflic82vJNsF+/VLXkK9PU+aW0tvjzyixWaGbrnV6C4wL69e/RUq25Y692JrHBbd8NeqtpPR1f0Hwwvl93j2dSs3l9z1uLfTs53MtrFvdrZdb21+8fTxdlLd2vzs6bYI283H9YutRS+3A2c76d1mMQwi8tNgsnVvnCtl3EDqpAVbF33w7G/L/2bhBuxef43t68GoZuOBsBiwF6EaauIRhx8IEOkmn14Xt0NSW08llk7vsXb7PI4pfxtX7vQc40Y/2LH41qYCP+ESXWsZY9wtYXxzh5M7EpzTxkQbgNy12eopobigvK2b9NKBjbjJW2LDsQtJdeqYO6+0Hrm0YN1jKF5tfDElvs1jn3xsGrlV5yKtL5uu5G6hpGM1d0A8qMA5SO2Q37Ovxn4NIkmOUv4eJX21bKebrY7bXwm4n3Fr46s6ffF0944HC/ttGEfucCjf66ttR9zFv33kanu8vR0y8NL5O7n8VarbPF8JZZc83Wpl0rl///YjaPeGv2J1+wvJwO5L5cMdme1GY5i4dnc66Bv6RQebBp2J/bwnkiI7wL4Ps0biDsg4cQekDe6A8PK5XkC/Gzc7Un+KV37SE4f3PxDAr/PHTmsZlk7vsXb7PI4t/zS+HSe5MK6BWrgP10/ziBbndLcBN2jjoXdEOEqPXaySJs0vh42Ti08eQuFpGmyU7bhla0ouL6s/h00Dnr+E4ql+OMo9RqksAh3SnTvW5CGUDuRO1882Dsg+5WPzRqbkn6NU/uo7IB5pgVK8cI/WChCpHfK32lebvpR/b/QXrahH3dUYFvHc6di6WchvQ7f/E+/m9g4Hi/jdHQTObLvRIBc3LPCJtg3bJsHvbg8vbm/xqh3pkEwyks2DNzb3HzzcPNge7/HV8nsPtmuue4MVyFBNW1tfPH+2laeb66efbV4+e3z77seLp8Mv4MS53YBsj2yWKMuwadrmefnqy84CP/V/2wavh62NxPTPEXdAets/Tvf6O9AdkOFPWG/LorFRixcXfYx5Fj163lxpvIszpGM3pXv9O/TO39O/dP5e+3is3f5W+2ryT+NYfy5MwvhB0KHxxVEbCZXNbi6Ujk2K/kKRFv1pXpA7Z/n/t/dmPbLrToKfcqntbPd/Md0GbMyLv4Mx/TBPMxj7exgw4ME8zusA9vjjdveg73KWqtwdP0pRJ65aUmQmkyVlVvzOiZJS4hKkKJIhUmL7fF8YfeGonuhHv8TqirTriHY4uBnCum/75bfnH7riPMYftP32gTt1a/dPSR+0fys2TN23xyzt87nSxWQMkGMvZC5tPTy9lNz0KefGn8tCbmbJ5DQ1iU/nMuXqsOMmZ7rVrrpbSCUmqqCPvttB15/rwsjHvuIdDylIepkOzZzR5mtVB53n1IOuxwEpDqlQrAFy/+GLVIb1+x7zZlFBnKf8kbhWP75Vm/VLtVuJyJYpYhhJS7GA7hmd4SV1nOKJaWSkV84T3lJObMVIqsOs04QQ9s/8r3WbKqJts9dNGCCl9R+meP4VNkC4P3XNAdKi9weke8rBSz9hcC9q5wjUzyXy7hJh5FA6fi/8seP3uHX9PY71b93ZfdpI+7t9T9btXW3MI7jFTdsg4bi6AY7R4Wdalo6WaDxs1b1XB6ifPjSsPiF9oPpYIwRBN8CtYvdP0a9v/xi63BO3F86x8eBO3dp9L32Kjae9PyRdeOdPoTeOY6dgeXhK5iaCQngJ2nocq5fnTm9SKxb93Re/TlGx59VPCo/Of9NJ1vGG15fAhV3zFStCqmnO6YJ5X/+53p7JfMtTkn1jaEiYzXbfhC+pl79NYW1WDdcvWdVQ+UkluhBDga9XSUdnsXyUfUY6pGOybT4TiHfSK4ZRqoQ29WJoh9VxCy2Von3dpofTQXX1z+vgZudPKk8DmJXoz+Hmp2h5OFO4+ArWr7/+mkZBmI6BvnQKuBfZ/3kfn4fWj7wEy0vodIi0s5Pu78zwR89fB0+/0vrnxv+W18e61f3c+HM5Rf9z8MLPPQ+44Z6jM6/veyHc5/phCDV0uCcxXHSKFuc5rqJwXRCOlbxG6IBuqnt7mpbWL+ht6xPVV+sb68e6VwPHoyvtGtcQGmcfGi5h4bato423C+884aibvm0OXvr68iimYB2p16XS1xc/xkUS+ck2TR0S4T0NZN6sgVGLXLjklg577Uea8toI4OZjWtVWOu68K7FZiayrxaF+6nguyxS/qDTbSSwSR7WVTkutAw9n99vaEEnXSQyPpBHn0nscckPx6VwqjvuHavkgcvdQzbjpm4I759PAEu6O0Yuk80u1Xb9UBwwQScesGp7jWRrSMm0c/Vz989KXnT+F9bv5ERIPbwRF7kP9/C4NHlvV+RK6axh0JOzTWOQSdfsldCyJp19p/acev6XttrRuxzB2/uSe534D7jWE3wj3I4aGjnwCx/We1E4/o6NsOW7vYX7buNlXAY3PujkHNYyA+DVuFdAttOO3nXqw/nHrdaCVc9Ph+bPn2be/VcchvPOgbvq2OZwbRhggR+p1qfT1xc+2fU5vEGS5oEOAO+kriEGSRkEwTCic5I0YHQjGx2G3roWXtHertM80pBxmjHSk0Q6JS+5VdD2k+VhSmUn8+71oxE86OmJ0zOd36YtVac2O5V21/PAhGR93D0/VXAwRRkEY9dlJGna7fbXcPteGB9OseLdDBCNqJrrPMJ4y9c+lfW2mh6Ofq39u+cjMn8L6hQEy3MByr6oBYhs8u5+DhkHDr52XSzJ6/jp4+pXWf+rxtymtz6lM/focqx/3M/ceooYEBogeIxw6+zpSwG9Ev5rVHnnQ8HRf3Vu6jp2Kja8rDdYo0fhsvOpPBQhT06rHPM5Nh+fPnrd6A7qd4r8PddO3zeHcMN7MAPHw/B9bQDza8Ryrt+fu3HD0N0YFt5iOhLBvZSHufo6M7HgMILtyw6V3OLbVYfXyamzM9pv00jmfoWXiRRotaW7gc9nvV6KcVFDpppVOigSHprumElgsHmqDozE6eJEc4b0OZPYg55luNU/aJH98Nne72YpIBfjyZ7XH6BAj5LBdidGxq5aiP4YTwld6xuTY6zsejn6u/nnpy80f7+5mfC+HMECG8497laecNMo05LbBv6TuhK0dBg33EnX71O/PXP3G9p+LF7+WAetubJ0tpXUpHT6GQzsO8hzhntSpVvY6qGhdQEedcPTrWmqIIPgF9c/WhpGLhq/xEaYaIBhQbBE1QhSrg+rR/n0K5/gBz58939ZN83II7zyom77tGLzZOyAenn8K1iVox3Os3p47bgoKihWL/u6L//XFb/lt3ag/DA32Z5IP6SbjN8ZHc8MtGQERkt9mapTk2ut2K935HA5VPS98JuZM+uLujKcGHK/Tff/4KbnjBXLyIhkijII0lcVWLCHc8eI7FQWdkO22WRBJjt1tviX/uF2QBNmmKWUC08ye00vw41Hn45RxOuiu/nkd/Nz8OTjeKXc5xDsgw/n3+PFTWoSQ+5X7U+sz6hc6GrmQfoTOAvPJeRfkkkz9/szVb2z/uXjxU9YU63ZsvZXSeuSG7/nXezi1wY1YbP+FsDAweCChU69sHaDuqBu0/8E9zb41BBTCy00f4Wk4GpbVA/2Bc+yjrwrHSIei/qxgVB2Dxg3Wv4fq14dNE27VPb817UN45wlH3fRtczg3jDBAjtTbc0eB0cKoYtHfffHrOxr2vA1nLw132j80N3caBamNEuRBOvyga31ghLzuC/vmy1LnsliKESPRpqilOzgTg4DFApeL+iW26q55R0U6suRFvS7Fz5tuvXtJeh9YNJAnoJu1BFbrT1qW0gPFv67jkYwPPg/cpH8j8YyJvS7TxDEgXP0d/w65+RMGSGEcA+Tjl19eG2nuOe5h7lc6E3RALgFhEh7rgLy8vKR4yBfd5jD1+3Ps9I2dP178Ws8rbfdT1z+X3PBP8d/Oa+Ae535X4V6lXec4+6y0rsdSey9Y98TPva0vrqc2Xn5rXPjNgfAJS0WPEa6GzXF0aZ9nq++4aBr0uLrTfQ/rrq3PEKpjHxouYeFW3fNb83cI7zzhqJu+bQ7nhvFmU7C8i5Tr/1ja8RybcZ67c8PR30w5AtKJ6FMEtmmf9zmkQ05nPb2UjtBZZwxCgpjNeadCduQHW97LqLfiRba5U7AOM7lhpRM4n/E0hJfIn6r7O97reBLj5Kk6LCQWXlTHEBK3csuI3mI4bHfVerOtNuuv9RetdIrVfiNp2EqItRzm0vmhUiAy8a/Xm7/of5Cwx+TY6zsejn6u/nnpy80fSusQuZ8ZjilYw/n3+FQvQKigrzbmXuN5LIRJeHROEEtu/oyevw6eflrf9VE6f6YQf9uN/Z0bfy6l4z8mf3Jo56WKwr0O3OvUA5wjTjUo6INwz7b10N9qqKiBgujICcc1/HOxuirtNHRBvIjWOdqv0vKmOh+LF18fnj97nn37W3UdwjsP6qZvW5K+OC7TsgTZcAukF8q5ObjRuVm48Rth3Yskcj69hC4XVG+e+6V04cXS2EldsGOU4pDMkrrTJW6SZLLdYPjM0ternp4+i3yqHu4/Vov5vdwhSftGuGHqzotWXqvVutq+PFfb9Q9Jw0ocbKvlbF/didyzjod4Q1/05l2PraSDfYyYCsNjZOMjCG4d6hPbSOh+u8ORQzsODfuScQTXS5SDctBXaBsIekwFuAbaQQfcMXpAO840q2/fvlV//vln9f3799Shx8jg4xV07PGDe0ZSP3z48BfJhbjQi/pD9WefeOlncJ596EonaWAfHXHPCCzpUQnG4WJTsHLRG6APCt8lsA0gtH/3MXt9r+KvvB7bNvrzorbkaD2iUe/DMyMI4lZF4YZIN/u3f2yOnAdhaqVh0WP36fO5tY476dyDfSqczqMLhoDIjikbImlEQ1h+/jtJS10BYBoAr5MDxxbiNxkd21VTGdTGkk4DWzB6UxBvik56b6Ug9ppeJc4UHblDm+155OZPU2T7cdYJyY3/2qdwcV8TBo00Wxpj3efdjw+fvzQuz+MY/bQDQWeGTgzx04E5Bi/8rrrP4vnPDb80x+TvEF776qUv179H7vUZ+/qNrd8p8Xfte/0r3KGjuqM8cO/qKMfnz5//lQ6aJt3S8efdL52ipfUBYanfth+FOIDjKko73nNQA8WmSdMMdt/GbY9ZwT2iadNjFvtb80KlTdcxi3deabs719+p9Pm/2BSsXLwEcgEvwfkXoNlpQcFJhY4OsLiRYiZu0VUqbPGUpo7I8WTA0IEX4d2Heo2OtYiu01G/RH4uWjF0pS9Jc2PUusoN0Rw/JEODqU/SOZFeHqMPrBo+m8uN2Hw29/7xQ5rKpWEx5Wup0Uh6+BrXfiNGB4YHFYt0LNJ0sebbVfMU/3AFl4to1ex143ZgMyFfrhp3ilNe+rLzx/U+7CA3/uufwlXfuwoNozaKNL535iXNczhGP40Pw4NOCHWW17FVctPv+c8NvzSl0+9ROn9yr09p/TzG1u+U+Ntu+c29OYTep+rXhoFfDAqEfe10qxuOcc9znNERRkxYTJDf1AH4034U4M+Ggaibtju7zUHDRs+heNBLdeO8CgYLx9WI0d+K1ZF9G2Z7vy16bgjvvNJ2d66/U+nzHwbI0Reg2RFUF6sTHfbkKDmk4Mi5tF93+KvtczI8WJujXiSwFtbt4PhCh0rOhBtGIU02XeiJIZQMDxFcMspR/663fLT3sHyo5ncP1fLxY7V8qNftmC3vqX1SUuZieaQtxoQIiwZiQG3FgNqkpxr1UOheXy4n9HQTYnjlpc8jDJBMwgAZ5BYMEO5FrbN0n21aWVgkh2P0q+uhenomT0LZ2kZ6iNz0e/7z87cspdPvUTp/cq9Paf08xtbv1PhP1afrPuV+RriP7aiGHleICyGMdkedugejRA0U3Fn/6lf7N/obsbR/n4qmAz1IB1tEj2u6oK0DW01X+5xij3eJddO173GMG2i7O9ffqfT5n8wULC+BevFzOf8C1PH36sFL1OmcyB6jQ24oRgfU/Y//kTb8ViFuldzxAW4WwtGbAGxc3Oy6z0gHhgfoFKvF/ZMYGz+/761hpHdK5OZ7WPwMj3VHMJ7SjcqL5XJeqpR0jiloNQwp/nwachD9ShJTsPLQ8tBH/VWz88nNH9eAjClYg3B9uRepJ4B97lvudb5wc/f4lI73kRs//lM9IfHSWfn69WuqP4j/LcjVf2wukf85lM6/qevncS3xW3d2P7XdA7TDV/e65b62+/QjGFnFwOAeZ8t5FcJDcMuWdzKoD6gbEO386/k2NizAXQ6qf9vQ4LjqwFb7R2z1OHT5B8536W+PsW/j1K0es+H10RVHF2135/o7lT7/VzMCcinOvQBSDNJf3KtoAUxhSCGhW88L1oxopBXJ91jRrFAuxzbf5Vw9coA7ZDGXbnMjvECeg+qj+xTav4h0IIlVuhwVX6tiJfLF/ePrgoFPn3+Vm+ounUvu0KfRFf3SF6ykUmClckY8tutVPYLTuElxM80s5Qfbep9j4kDCSqoVQ1Lf7HXjdmAzSWm9aob1z/0KVXb+uN49/fPiv/YREKkCXusHIDzqBRpTnkCyiOgQufFrfGxppHUKVhggx3GJ/M+hdP5NXT+Pa4rfuj3WH/eugh/1p1vuY/Zxx32tglGBAL+pg1T0GOeZlkUYSNtNG6uLcmw6+iAuTRdi4yY+TReGkW6tHuqmLwxFzynt/fZ5G8cQ1s8QbXfn+juVPv8xAnJ0xv4co+j0kzrjUgAPzWfeWKOjmYqE3Ff1TdhOh4aVXvrOQMPpy6fNvrmpMTy4yZf31UL20zGRLV+zEtK7GulTvxIOhpP8Zn+zqhcaIl1skyljRzj26F/nEaM/NT916VHrYsQISB4xAjLMtY+A8FU57vt0D8vNmO5Z2fIk78uXL2n0c4hLlG/iQwdeRmUEhC2/U11TmEvoPya5+o/t32Pq+nlcW/ynuk9tvvhRf23/7d/c01aoZ+yoSHsEAWz4GCXUDzoawr4NT7F+ctGwbJgaVztuzlN3pb6UpEP39WV2juGWfEMsGjbYfeiLt+2ujXde6YvP41h3ffT5n8wIyFtx/gVodgRbsBBukNn6W3XYvlSzNOKxlu22mu831UyMkNlejJMZ74hIJ6kRKVJJGGnYyZ/cdToULbiky94Y1ZK1O+6qpRn1SJ0ObhRxm25wSQuGRZo6xlestqtq8/Kj2q6+p3TqOiRozreyFuKPbEFYd+QVRj3ETa0LNx/by6SvjxgBycNevi5iBGTc65utP3dIU8dog8aWjgBPH730efFrvdOH+teG+dR3QI4Nv49L6T8WpePPDb+0f+/6eIydf6XL1zHxt92cEiduPf/6uytc4ldDAsHAAO2jcE5/6zEVOvUco65q69EV1zn0XZ+u4xyzoqMh2hfUfqGe76Ktd1+eqXjpPDYfjom3i2Pd9dHnfzIjIG/F+RegziYtXO1Cdr/+l3R+npzRkacASWed3/JnXT2kuKyoXzi2Ie7DhgV6E+uThsN9/Zk89plmBWm9DUkD73lwkzNiw1QrplgdNi9p3RFGdAh3cWdWSZb0pbjEL6RRn6peabQ2OKDRZda4xQArSIyA5MET8iHmmSvp5+aPa0DGCMggOgLCvcg9T3hseRr5yy+/SPqG88+rn9I9PoDqjw50QHQEhHBVnyGODb+P0uGXpnT8ueGX9l/6+udSWn+PY+O37k6JU+9/wrFp0TDY6jmE3/hR4Rj3OaLn6Zsg1Al8xpfjCuetAEaLfsZXp3BaPzm006fSxuqjW7Bp5Djp0hfs2VcDy/rp21esHqpfH13+u2i7O9ffqfT5v0kDhMRqgnW7k952KlDSIcZIkOIiHfFDtZSGFzer+UdxJYVHzjGFqLY35MI3ubNY/3PyT0FSKzeF1+AVkGPQp5CiYdrS1dc4HioxDqSbja4cB9tpSF+mElgxfL4QY0AMhsXyvpoz0iGdx+12XaWV08U/b3kAIRE+8vx73jok1076HPGIaDmdLk75dvXPuz+y82fu+HcMGI+pGyhLOb+SBpzGnvohPYFcLNML6PcPT1IX6IODbnLznzqGMBDqTxb/+vHjRzrHww9toM8lu3w4lA4/F0+/W8+fU9LftU97Pial8++U/OkiVz/Pvz4spcOuU7RA+ycIfSztZ1FfYIwg1GXH1B82LPRBCI9tbv3j9f9YjBE3anCp+y6dED1GuUTwM4QXP2EOkXseXYfo0+9mp2DpBXy9kIxJ8J9Ou2znjeEhe+l/+pOe9ovxsZfGWQok05DYP7B69+4lFVIND/BPxnoX5xgYVcAoQrlkHCVdZT/pKhfKxEP0TIRKSMeZNM2lgC7uHqu7hw/pizasWE4Hg9EN9H64N4Wel+O39VCofkb3sFunc+8WY8yNwSXKUFkc/Vz989KXnT+F9Zv6FC3W4tlJQ5bqq3n9LshM6gwa+4XUEzyMGOIS5ZMwNBw7DYPGVevUc7mEfkOUDj8XT79bz59T0t92y+/c8pdL6fw7JX+6yNXP8099RD+FOgHhN3WVjiRYA0GvFfWGjjIA7jmnnXYgXkTrGtBjtu9Wuv5hxEYNJasb6UOIn99sVRfVkfPsq3CsLR74GyL3vEef/5scAekqTOnrT5IJCB16nvil/WbkYC6dcr34dNBfX7ZupiAd9mKENNgCohnbFecpLJqX1IERDsJ9HQlJOpvP6NJZEsMjFb5FMz9SbsKkC0/y9Ys2si/FOu0uD6vkN90EYnxgXLGfXpaX48tZ3hOAaydGQDycSs7VP8/Ay86fGAF5HQFhRJSGkNFRRkB4WPGWIyDUq4yAIOzTwGqjfC7Z5cOhdPi5ePrdev6cmv72b8rnmIx9fXLPe3j+6cNwDVKfS9xST+kL62poQF842rfR6Vnp4arUcRxHCKONXnO2x3Tih/D8a1zoj6jhgaAb2y7UX1f4Ni+8+rMv35Tc86pnH335c9PvgNhM20gHSJre9KC7nl4lF0yNC5G77XOabsUienKg3u720oGvL+yuyWAbpu6z9S6Ax/LwcwTiIEq+TrNqtrtZ/Y5FEulAML2KQjsTSTfvov7ONjDf2+qGrL//ls6nJwlpVKc2PLTjwQjMeyYMEI/uCuQVV3/Hv0Nu/sgtMYj3DpHH1A0QUreWez81xFLWU8f/4TFNDaAuKW2AKIRD3Hz3HwOE+gidcuvP0vdP6fBzydVvbP+5HBu/dWf3c8tfLqXzLzd8z39u+Gog6HVoX49Pnz69dtQR7dDiDtHf1C3UKRgg1hBBP3WrYunrIB+Ll350Jk70U2OBOPHHVr+eZdNndS2tX+718+gL/2YMEC6SJpKtisL0gwQL5bFQoBgfGBh7jBDZ3u+e0+l0saX7n87ziarG/W5e9jOVGCAYHpA0ED3U+EjcfUyFkBEPCmgyPHjXo4l3va/Tu2i84J8nAmmUY7up9psf6Rif2U1bCZ3P6Go+6U3xXgkDxMOpAF39y1agHmGA8CnuelqDGiD3Tx+SAZJGU+unMr1cqnwSDvUPc7d5B4TOgTa2OZS+f0qHn0uufmP7z+WU+K1b3c8tf7mUzr/c8D3/ueGrkZD6OKazrf0StvR76Kgz5YqtdtTxp/WI+uV6ckzl27dv6Rjh2L6O+rfHzsFLvy1f6tb6IX500TTqVtNUWj/vfC594d/8S+jA/n77XBeCZqpVGgUQ4cLye9FMxZo1BYURATrpyn72rw0Q/KmoBX8uaaqXdoKbm0J/s7+8/1TfLFIwU1xyjqlYNv5USHf1PMPddi1GR239M9LDV7xwp2lK6eN3k09jz2EfmzBAPMIAGeKaDBB9wPH48VMyQBgxfWsDhKeTGCA8ILlE2JfSr4/S4eeSq9/Y/nM5Nf6pXc/S+pS+vrnhUydYCM8K9YQetx11hL4PnxJXNCy2uq8jIYSjwm89T7g5eP7pm2laVKyepAc3amiQRps+zoP1r79B/fWh7vrwzufSF/7NvIRuE6gFTy8oMtt8lau0qg4sGChb1uuYNet0zA+bZGCIrzqcFJRc5BQaF1u8Hv560dsZ2v59Klve8ZiJgcELoQu+XvUoRsdDtbj/8LpiOS+NMv2KeWR8AYsXzBmkQcT8SOt2bF+eq83L92q7+iGBrqplta0WfApX1EPFtHigbOkOsi+ZISmUlDejL++WkdOfW37K4+jn6p+Xvtz84d4eInedk8m/hC5CDuCuafequ+aLM/z21M/Nf/XPFqFOphOgDeelwi9F6fBz8fTTzk4fU89/j2PS33Yzts6W0rockz855IZPJ7srDPVHR5zz/KbOaBsT+gAWUT92a0dNEI2Pc4infy4an41H40b0HRf22+njYQ3H2bdGE2iY9lgXXvq887nh93FTBohmgl5EFS7acvu1fu8hCYYHL11LwZVmmY74Tjr9dSdUJAVDhsuFZeSAbZP/Nh6b6Xb/HLa8BCvGRTJAlnxCVyzfO7lppGDOZXvAykh6NC+hJxpdRO/119+qrVj5jOowyrEUV6SL9PHMk2Y+vXwv7tMCgkhKI8fl/MgjAKMTBoiDo5+rf176cvNnuPok/LzrP3UDhNHOVIOIO+ozthggNMrUbZ76ufmv/nWrDSxbuFT4pSgdfi5j59/Y+XNs/Nbd2DpbSuuSG77nPzd87VgTDp11RgAsnNPzKnocv7xPxigH4N8aGYie09ETK9SBer4Uqr8KoBf6IPpBDkBv1R23HEc/a4BoGMei+dWHd97jXP+TmYJlE8CXqV6nCjUZvZ7Xn1oDzqXVuuWculvsX14vjDU+9KLe8U5HBnQw0NHqqfElPebakDI9SrSSDg2zukTLdP7jflXtJCkpZQcpWOKOEY1kdDCq8eF/EkOhKZBiEBDNTIwOzA3YzB+b0QtJO8aTrlK+FpHCeXc33IF671OscuErZENItdDslSG3ghibVMYHOMg9kUNu/rjRZy506C+Emae/B48XqElo2LZSEaHv57/9mqZgPb+sX98dO5dj8p+4gfqQhpR52TS8HNevEZ6Lt5Cip593Hp2HKB1+aY65fkO0O4xtvPTl+vfIvT5jX7+x9Tsl/q597Yf1kXv9NR62hMWIAqILAeJfw2Br3SPUQ3TwdaFD6ieOqzGgHX9LOwyw8egxaPttY9120Q6XNKpu7D89Pb3q0c5LTyc9r/5VLOq2j7b7Y5nMCIhOLZJskK0ckATz0F+yJn2BimlJydjAOJEOOAVa3+GQ0iHCyt281yEFhQ46DZpI/cldRgEyMRlMZrcvyLzaVjPpxRBXOoOebFP8ojkvgjMeMb9Ln79M06run0SYXiXHlh+reoFyEi36EogYGwvJEwySNBKzlxtjJTeKGB4YH6xPQp7cLYjV4cwCEtR4T8jd/M/k3Bt8KvgjDHnpy84f1/uwAy9+377K1N+B3E9VStKzbmAepNGicd7u6noyh2Pyn4ZRGzuEhp5Gn+NH1GCDeA9YPP2O0X+I0uGXpnT6PUrnT+71Ka2fx9j6nRJ/2y2/S3VgFfWvdQv9QowG6hedwoRox1076eqOd0h0NESnahGmnsevxsEWsXFZsagfD89dqiN73KAD6dT3XKwO+MEvx1RXTY/mheaHCn5sXLj18PTvYzIGCCbCXhKqSWUvjTrwg044Z6RTXxsXGBxifEhGVjvp2Kf9eml+zWhEMyVl6BGZOIT1bS+I7vOeRYouGT78Tz/kvxQA2d3yjsniIU2rWj58qBaI7M9ZrXx5l9KIDxYMY6SDl9JTWPtN2u7XzyKr9G7Hdv09jYDghnc/cC9dCNTop8mL4DzCAMkjDJBmp5dM/R1S7ouO6EndlBrbB6mPpPHZvaEBolBv6rQC/IYBMi6l0+9ROn9yr09p/TzG1u/U+E/VJ1d//Gu/D9G+IPULYvuGXWjHmy11I/UiWxU67WDjUPd1HVqPmKiAbo/Bc2vrTrB6IGp8qAGiaVUhDZpGq6Oet+HrMeWYdBzjpovJTMFaH8QSaxqh1ESSSdKt1oTNpAOuGcPIh90yIjJrpiqBzYxX/yZDzyGNwnSEC+jwMJcLL3ozlQRDiibffsVq//i318I6E4ODYzYM3ijndyokhLTFepdCJTfPToysw/ZH7U4KVioqGGIYPRgp/Fz8/ApEJ60CHJyG95Ukf4pNHn8pK9eI+45RXvnMzR/XQLjyKVhMZT1oHSDXgukJfAWLhmmz3b/JFCzqNupKYPv9+/f0JSyOjz0FK5drvz9z9R/bv8fU9fO4lvitO7uv930fuenT8AlHw2qHyW/tgzHKodO0+G3fAenShXWLMGRwp519DQ+hw9/2h05WrxzQUcMjLkXDteFbvVQY4dF9wgI1VBCOq64K4ai0z7Wx8Z/CZAwQRkBead7XqF8Ul610yJl6lDrmkhH6/oe6S8d6HuFpxmW2r68LEYJmtt2mEYsEhgcFgHc85GLP76ThF/Po6d/o2bS1pHc+dnxmTs6JIbLbb6q9GCB7MTwo6KRhtvme4pFykkZJ2BFOhSoAADXISURBVNe1SjgfBkhZwgDJJAwQh7LXVw2QVFcu7tKc4bvHet4wX9N7CwMEN1ofA8YHwvEwQMYlV/+x/XtMXT+Pa4rfutV9e993kZs+DZ9wVCx0snGDcI4HL7wfggGCMUIHXP1Yv+oHd/TFmM6l74lgiGi42qm3cFxp65ODpkFh3xooKhxXd+pGDS8dEVFIRxsbh8cpbi2TMUCWjf6va3OItfm6L5k5ZyqSgBECdOT16T/Q2Vdwb7c1eS2sxqQXFtiqiL1QH1/UQ3Y08q+rlcvx77P7V33ZvqajOcaqHsnCXr3UBVuMjzQVS/ymm2O3Su4sddx1wd95PagwQLIIAySTMEAcyl5fNUCoT6mX0srC9w+pPuOjGG9lgBA/WwTjg1EQ9sMAGZdc/cf27zF1/TyuLf7S7j3afUDtbOtv4uOYGh58jIMOOv017bOlurHpf/JbdeS3GiP01VK/TbZ6zmL95WDD1fBsuOy34wZ1QzqA36RT06r7GCU2PCA8lfa5Nt75PqbzEjordW/X0pNe19utdLjpdGN4sF5HGiOh484ISP0hWjrx/F7Ib22Aui5CzXkZpGiomtFsES3EFQsF3j1Wc9buWD6lbXUnIoYIa4zsxJiCZDhhfDSfAyatvKC+2/BC5ovsY3RtkjtSxGjHfF7vp06MdORSCGxFtnI+fUK3KWB9zJobMDgTr4falItSnHuDTwXK7BC5n8HNzh/Xu6f/8HnXwPEVyCKFLjpSPy4Wy3pIXrY0pOkdu8zoj81/rZ9xr413+v1aw55H7jsg/e1Gjee/dPilKR1/bvil/XvXx2Ps/Ctdvo6Jv+3mknnihWXPo0s7P/S8GhxAp5z6jzrIbm1nHcEPox6Eyb523vWFdUZScMfx1BdsUP+IxzHXry2WVI83dLlBN34TTzvdajyxz/l22NB1zOKd72MyIyC7P/4xbVPnXNCpSq+jHPUnon7+FqPDPjWjIw59mXeohj8D6kEDZwsJYWphRhaf/+c6Hlryg2jPRpynF+v5MWvmDIomjObwMv1us6q261Ua7aAwEB7ld5kKcW2oUFj4HC/GB/7ljwQvxockXWzzZHcQx0OTX32kT/4G5+M8AU/XvSDp2l8xtQndj47knUtu/nCLDnIDIyDSCqVGZnn3UP3yyy/ye1kbAJL3bzECAqk+E7fUdXz6khEQGHsE5JgOwBClwy9N6fhzwy/tv/T1z6W0/h7Hxm/dXTJPvLA4b/OA3yqgHfS2nrpVo6Pug/31M77aeQf82zD0OFCXMiqiIyMa5zFY3btAJ7B62C1xcQ53Vq8uXdvn2JJ+jCpNN/saJ+fVTx/e+T6ONkBm8/qFb1pqPhE7kwaZTsNSKn4i/7qvv2YCqZPdTB/ieT0sdhQQPpErF4YO+G4lmcaq5PUn0pYz5x2GTA4V4dcvcKOHqCc7FJAm+bOfS/3TWdKVwRljqXd4yVwu4lwuDJ/RXdYyFwuYY2vTwdIpVoSlU8t4h4NCok/9tHDiBpk3IyTj4RSgwh3sW0c/SDAWlLFp8/P+6cTV3/HvkJ0/3v3hGDAe+0z9ZtLA6DsgD48fqs+fP6dOO3UR9Zi+T9eHlz/H5B9x06ilOBtj6Lfffqvrf9qWITLrH89A8dDGuI/UNmYw9fvzEtc/h7Hzx4u/dPnIZezrk3u+NPpgBNhqR15///3f/33a1+vIMStqwLAP/GbUhIcsOnoCthyoW90OlZHc8uX5B8JA0MeO8rCvozyKuiWdbHGrxxDAfV8a9ffRU7Dq+ls6UbLDs3m5RKnrzvzh9IL2UixHuu4Sblq3Qo7xEnmKUDrku/VG3O7SV532h3rF7vQYP4G/vBEKF9KLUZS+lkUmS9zpGGlhWoIkUDqJrD2C+YDeyeCQ8xgkyfC4f6zuHx9TA754eEqf0GXqCBPC8Ef6lxLOHXnBBd/VcwO3m7XYN/U6JbpWCWlPIYsObOvLMSaOBk2BCc4kswOUi97w0yW3/OWlLzt/CuvnTTHySF8BlDBI5/KufspFmDQgfDCDOnEIL3+OzT/cESeNGlu+LgPu3XFk+H1k51+mf4/S4edyqet/LmPnz9jpz2Xs63Mt+YceVhfdZ6SWkQ2gs41wjjpMRx/oM7LPMaCOowPPdNe6nq1rOdyl/rH4wQ2i06A4hru25KLp6AMdrBvVkfSo6KgOx8Hqb4+poLduFT2n7o82QOruMoKiNFhqiNTKpqUs5EdyRQebF8hFWV2nYycXL3XAD2J4kAgJsTZAJMTkr6wBMmcKFHGmoY9m24jYUOkJNWdIU0qrGETMlZ4x0iGF6P7pS3XHooEYH/difEijnZ4g7vmKDGmQAibhpAd1GBlMq+KCbV6qzVos4G29uiYF0V4s3dZ7Y+Jo0OganEkYIA655S8vfdn5U1i/SxsgNIypPpfjb2GA2DpPG2OOvRogzflenPA9wgDJI/f65zJ2/oyd/lzGvj5Tzz/tLLf1oI5CGMXQjjgjuIit06w/9glPO+c6kqCjCdohxz91oY4Ic1z10PPqpq3XqXj+rU661bg1zZp+24cFwrZi0wAalvpRd2n/2ClYa+mli+lRRyB+UyDiU2ykdH7BqEajcDI+UJKOOJEeUBpX0vAQW1q/gnEFDqYTEp5YMAWZzWv9mArBfOw6M5pMR/a1RZsypvmSVZpmJQWD0Y/t4j651YxDe4Ww7mf1J9m4UPvG2ND0J8OHF+sbNAxL17G3xYk/WVbBucQULA/HQHP1d/w75OaPVI+DUHvmkDsFiw4+NTX12uPTxzSkzgMU6izqt1RHDXCp8kPjRN1IvcqWKVjpuOwPkln/5E7BKn3/TP3+zNVvbP+5ePHf+vXzKH19S+uvHXCo+4Y/t8B56srUvxWov/R9CWtYsEUA/9ppTw985LceYzRFP+dLn5F6Wf0odr90/mpcx1wH0mnTyjFGedha/5redjqsu+NfQm+mSOGPxiq9R5HWoJCGg0h20sF+nXJVW0msjaGRo/ChmXKF4cLlfn0XA5qXzEsxFwMhZYbEjAHC1LHUKLGVo8v5Q2qIU6aK4ZEKRJO5yPO2ybDmd5qx1ewj+5c/05es6ilXq5R+PqOrF+vQNLC4tWj+tI+/PU78YYBkEQaIh9NBdPV3/Dvk5s+1GCA0mBgg1G/aKadOZNrsEJcoP9R11K80wMRvDZCZNMKDhAEyKrn6je0/Fy/+W79+HqWvb2n9qZe0L9a15bzuW9ALoQNOnWZf4MYt/UD1wzF1z3HqP4wPtnySnGPWPe7UD8dzIIwhCF91U7Ggk+rFtu22vdChPQeaH2DTd7QBcj+/l4ZKmjBexj5s0zod+510tNknwGSM6KiGIAli/zWyO56y1ZEzCsLWtnn60ncp5od1HQfveaCZGBtoq4bPQ5pWJb8l81JhE3dM2kLPpKu4BxpqvtiSCkv6jG492rNdf0vnGf1JaW7SD2R0CruB38lNQ4pj5A6qaNVsewgDJIswQDyc+9/V3/HvkJs/UzdAiH0r9QwjH08fPqX6iPqNdB+zDsglyg/1nDVAqDfVAKmaOdC9hAEyKrn6je0/Fy/+W79+HqWvb2n9bf9M+2a2j6bxWz1Sv60RjlO3Ua8x2qFbHR2hrmuHa8PkZXXc6EeKEOvH6ncOVu8urC7Q1lW3baw/dNQ8QNjnGMJvwrACR78DsthKA5E63BvpYz/LvgjTivas0yFbacTSpxQl4HqdjnrqEfolQyTNvQKOY3w0ivM1LY7UP8uBLTBjmpUuEvgoiX+q5f5DdXfPiAcrYooljHEiiidzStSmgb6/k8wlECkUO6ZYrX5Um5fv1Xr1nPYZ9eHdD5KxxEgh3bJNoTASZBpAezG5cAgux8WJnwsZnE9hA9tDK4rpklv+8tKXmz9SpTZ73eSuc5L7DgOx87GQetpAvQAhYdI4UB15/Xsvf2yd1oX6r+OrDRG2TENISL06SO71yfTvkVt+pn5/Xur6n8vY+fPe9ffwwvfKh8db6W/1tHFSbwHn1TDgPMepy3iowjG2akSwr37ogFs0Ho2DEQQ1WHBLuDZ+dd+HdXsOmj7QuNpxEkdbAHcq5I0V8kDzht9g/R49AjL//q2OhM/mVhsxHPjsLt1mMTbEuNju68/ovj71x/hoplzBphnuSMkUo4PufP273u6a86WY7SgwclGXd9Xs7lG2LBgoOsvv9HnKXf0ypJ2WQOpeM2r7UhseaxHZMvqBwYWRwUv06UtggqY/jZQQQuN/szOjQc0FsLI9jPuEnCs2SIyAZBEjIB4/K8BOXP0d/w65+SN3d7PXTe5X/i4xArKRBoAVfz98/Fw3EFLX0fBspW5cUokN4OWP1m194B832ljT0LL9/fff0/lD84WZXkYeAfHILT9Tvz9zr7/t4JzD2Plz7de3dPy55cPzn1t+PM7RHz/qj/Pss9XONzrriACfPee3HrPxadj2GP4xYtSQ+fr1a3OmG+v3XNppJEwV/W1BR/wg1Oe6r+FYf+QBou/N6PWcffpP/29yvZhLZ1w61GmtjjS1apOMjX3zudzF1nlClYkX+myu71BIUyoJokHBvtk1Rs7n7TcJYy6GzCKNNuyqZdrfNw3/3ad6qf3FQixMGl7Mg/QySF1YNnKcjHp9t2PfvPHPV7zI6G//I4VTCjf9zcUcCy/+0k8Ybx2vgyp3ZbNXhrHLl4/TALn6j9sBckd4nXVCvPi9hQ73+/opHFOwaABoMEAbjJ1T/nLTr4YHdak2yvxm6gEy4x3CHDIN/GufouWd107BWOTmT24HtHT+5F6fsa/f2Pp54XvX34s/1/8loM5jpIM6mPpX02zj5piK/ga+FsjICltGjTFMOEeY1Kecs35Ir91S7wJxaXzqHnLTb8PqAj00DvbVGJl9+T/+P2kbpYO9YRqQvuNRGx/1+wy1UbLIXEjLw+2AVyuRupFJK4GnvXnd8EoK7rbPyfBI4w40RqzRsXyQdomFAsXweKTBrS1U5lXNmfrFBWrClAPpXDI2SHdjeaZ9OT7f1Cv2liIMkPdNGCAeTv3j6l+2A+MxtgFCtacdfxo/2zBRv90/PDUuy6FxETfCb/0SDA96sggDpNnrJrV7I5KbP5SXHErnT+71Gfv6ja2fF753/b34c/3nQt0LpJN9hHpYDQiMEnSwouCH39SXCMYHBod+QYt+Kulr56ENS+Nv4+X7sRxz/VQX0HyYffmP/y0d2a9empPSFWYUhPU6GP1ofs8YISmI1wFfVD+fkL1+wQpeG57GcsTgaAyPBYuTsJZHeqejjuFAT0AMEM0uyYK0ne/ql4C4oHzFinddyA+Ms3S+cAfQS/+lCsq5ePGHAZJHGCAeTgfE1b9sB8aDameQwgaIhJDCoCGwjbE2CtSpQ2jDcS4aZ6pTRQ+EfRpPhMVbswgDpNnrJvf65ZKbP7bMnkPp/Mm9PmNfv7H188L3rr8Xf67/XIhfDQj9rQ+D2DI1ljxQUdAL4Rh+2PKbfqp+yjf1WUU0DTYtNjwbLlj3Xv54tMNuQ/jEo6LMHv/9f5Uju2rBC+XpiJxkIcG0VgfKiXXFId6XKIjXAb+fbcUNyotJkBJQj3Rownf3n2vLUowOLiiGB6Mhkor6woubRXMx1Jg4pAJRf21g8fxHGu1IBaT5nDDvsOAeIZySTN0AcckswO8dHd3rw+9g5jH58hUGSLPXjVc+7Evw2gDYhsDjFLddpDp5gNzw37sBMnVy9ff8j50/pdNXmqnHf+35q4YHoIuK/qZ+RHSKrNaX1IsqXehxPuPLgxx9AZ74CJc+sRouivrBjYZd2gCx5/+y//Dv/ovEf6ju9B0LdGuMj/rDVXXGbef1Qnyl8Drg+nI3e/XXW8T4WMyrxZyXyGfV9q7+tCSjHZrhGA2a2SldCQlHjKpd+qKXbJlitdtXy9WfzXnc1nGlEIhLfm8KL5Topd+7wKMTBkgWYYB4OOXL1X/cDuZUDBBtcBANk23fEL2i9ei52Pg0LH4j1Nc0mlmEATJpcvX3/I+dP6XTV5qpx3/t+av1n4oes0YARgcjIvqiNr+1L8vWutdjKjqSzKiIihoiGrZFdVBwk0M7vC5wo6LMPv7Df04x78Xo0OlI2ln/2Wmvqt0REeTgdcB30sIm5Zf1d5XTKuXNSuVcgNXsr98Zxi3Heak8XSRp4DE6mF61Xq/SauXpi15ijMCyUYCPwaQMYhRIzml4VbMSeinCAHnfhAHi4ZQvV/9xO5hjGyDp8+KmflQIN4UtjddbQfwaL0L9zBolWYQBMmly9ff8j50/pdNXmqnHf+35qw942vWvRY+jK+7VEGFfVxoHdadhIdShCr/1HRGdooVxoucIB8GP7mOo5KC6DWHdqN6zz//wf0vbuK82KQF1IurRj9ox63TAfpb5hMrBTf79F0mAZNhSDA4xNuayZZpVykTpvG2ar6iQFkhrkggpg5m6tebl+l21FeNjyyd3Wb9EfqdPCYscDk+N28Yf/pupWMic90kK4qX/mAtcEvJgiFlzgwVn4nRAGeUrydjly2c4fyQBzU4fjn+H3PyZogGiYbJlpfQhctNPPd2O2zaa61wD6J0bIJqvfZTWz6N0/LYsdVE6f0pfn9L5V1p/j2v376Hlk3y0eUm8COcxAjAUOM8xDA9GLtgyMmK3Wp/iXo0HjtlzHFfjg69nafhsEY0bsTqdA2EMYeOwcc0+/7v/K/1aawdbWkpGC0CNjxmt27xZMKoQXgf8/m//tk6EdMQwOOr3QcSf/KlfLH9+vWBL8oJpU2IF7jaNBfhc6z+fYXTsq4Vs01Qzvvwlob3sv9TnzfQruYxuxl6KMEDeOWGAOAznjySg2enD8e+Qmz9TMkCgfT8vnRooO/0SH42exksjqWEmvRaZD3jCAGn2uimtn0fp+ClPQ5TOn9LXp3T+ldbf49r9e7Q7/IrWifRdFc5rfrNFMBwwPhgJQXRkRN2o0aG/wcZFPPSDdXoWfeN2fZyDTdMxqG6vU7ByOVS8pE6nHSSzJdR6NKEOfn9Y/8wQaSzSJ3PJWDnNlhGHtFq4nGOaVb1aOZ/Srb9itbPvoIjb9kjHfPkk9oTsb8Xo2L5Uh+2qOmzY8jUrCdtZaGvqDHcPTi8Ab423ErTbQQsGiYUOPZwKtnD+ZedPpn40Vu0GSkG39rE2l7q+Go7VJUlmA+jiGHjVyAsd5nagPaZ+f3r65Z5/q/J9Ll78pctHLqXzL/f6e4x9/T2sgcE+D9rtuyIYJ6kebUTpShfGjJ2ixW8Et1Ysep642dq4kPY7Jm2sTpaLGSC8QQLSzKWtqPiaiDSdabZ//dQj5oPd8rWqlLDmC1YYHjwR4zhI0sVQETfiHHesMg4YHylhTK3ayUne2+DTwXxTfrcS2YqtwrGdhDduBy2XMECCIcIA8XA6iDdugOg7Fn169DUQyqWur4aj8bFFvAYsmzBAmr1p4umXe/6tyve5ePGXLh+5lM6/3OvvMfb19+D6a10J6MtDJYRzfMaXbeo/N31dRjgwHHT0hfMI+4SjhgfnWQxWfyNgw8dYsWVMw2OLEMYQfeXzYgaIdpFRpk2d4J9WUzI8pEFNCRCjIyVi8dD8XqbRD44lw0OCxQ8jHhzDTRr1EKMjDSE1b/qvNy91ZGJspOlTYoikL2fxnoe438/KvkRemuHL253vUyIMkLKEAeLhdBDfgQGCDlqHKn0NQwnaeaDtAWJ1KkIYIM3eNPH0yz3v5d/Y+ePFX7p85FI6/3Kvv8fY19+D6691ZftaozuGB8KICJ/yZd+WGTUQcKtptfv6+V6dosV+l5+ucqbnhugrn5czQGbNOiJS0et85PRuBltkv3xNyF++ZCVbplht5vUc4NdMlg7Dq3sR1gF5Pcc7HVhq23Xasn7Hdr/Ch+ghPsXgYJSEzwir4bI/lH2JvDRhgARDhAHi4XQQJ26A6GhwH1748/vH1CCp4F7r07eiraONf/XyI22LMXEDpPT9Uzr8XHL1G9t/Ll78t379PEpf32vK3y5dMRY4Tt2uhoiKjmTghv4yW+pddc9Ww9QREDVE1DABdaduNRyE8M/hYgbIfFavHE5DiQGiq5WnwQr5vZw/JEPjL4aHZJQmaH3468IrGA6g55c7PpvbMjya1cqT+/kW86OhuRikjBfNZf+wDwNkTMIAKUsYIB7v2wB5+vzLvzJAQOtPj0tdXxuvbpE///gt/S5GGCDN3jTJ1W9s/7l48d/69fMofX2nnr+AjioW6k/qdLapX9z85r0QBIPEfsZXt7hT1E/ql8t5jAsMj/QhJwnz69evjctu2jody+UMkMNa/vAGCBOf5tVOGvTUaMoxeHxolprXoSE5nwwUSXgScct51u3AJ8f2abHAZjGV3areitHBlqlV4vu1MWVF8zY2U3Q05loJAyQYIgwQD6eDeOMGyIdf/y650foS0QZIt0Pk6t/lX+t++PNf/jltixEGSLM3TUqUr1MYO3+8+G/9+nmUvr5Tz1+wOtq6k23qUzf7gFvE1vf6FS2dogU6iqFh6xY0DqQ9RUsNHQ3b+juFxf2//d/+e7OfxYwe5IwRjUV6h2O+eKwWd0/VfFlv7x/upI3n3Q5GSDAxmBYljWCznaeFEPfySxIsxsRsKwbH5iUtHMjXrHaSAYc0CoLhgTu6FJLxkvCF+E1f05UjkhXpX71PXEtxxRKLXhd+2nhdhHMLwFvh6jdt9adPZgcol6mXP7eAFc6/3PyRun4QL/yHj5/+4obGw249LnV9u8JBh3XpKVju9c9L3+FC+dNHbv5f6vqVwtPv2HLahxf+2Plz7de3dPxe+F758PyPnX8e6NdXZ3OubRCo4QEc15EMDA4VDQd3GCTqXs/Z8xguGDBpBlMjHLdxDKHu2lxsBGS2wwpbiEkjltXyQWyRBzFCHmT/ruITi/Oqni7FK+IpcXKERl8TsTzIeTE80vsd23Uz+tEsFsjXrpoOAkYHpC9ryTnlsNcnmJJQDBw2sq3NDoyR5iX1KyVGQIIhYgTEwzEwCudfbv7oFwT70CdgfXz++//ltZGwjYXq5TUgNDiXgjitLsjXf/nH9LsYEx8B8cgtP1O/Pz39vPLp+c89X5rc+K9dfw8vfK98ePXj2Pl3KuhrRetRzYd2fpB+a3TotCxGQzAsFGu46Ba20i/nnJ4nLIwafWGdr2gNYcOyvBogG7GOcJQcSiR0aFBWG76n2er1d9pqg94otHho5hg3VhLve9gpVnzNSmE0Io2BiD/9pG71/Fuy0EgMQgJBE1y2er99pm7AePGXfsJ468xnw5853bljbHmMXb58nBrG1T+vhsrOHx7UUOdSb0rdTR28aRqcx6eP1ePHT43D8yh9/ZiCpXW+Gju0A8Bv0jFE8fKVaaBe+xQt77x3fUqTmz+56S+dP1PXz2Ns/ehHDpEbvxf+2PeHp9/Hjx9fX17HIME9OuuoieaPzSebJp2axboi1Nucw+1QvnLuVauFGAJImt4kntmmY+ICI+Flc6hWLLGBAcIUq/vH6k4atvunz0mWYklxLDWC4mazr5Xf7n4aH8nwkPBYqTwlbrtOS8S/fP+elNbEJrco1xgfQ4kIgiAIurmW+rNLx6j3gyAIysMIxo8fP6rv0hdH6JfTJ6cOxjBRY4Pf9MtVtI5mJOXp6an69OlTEtYlwZDBnxokbejrv74DspjzPoVEwMhEOllvxVRIx7bVUiyRZTW/exBPT7J9qpZp+5iOpWlX80Wlb2jUvurGLyUinZHQMDJ2m2q/WVdbXmxZ857Huprt/7o0vPpTkRPpeHAeXu6lPB4RN/6R9bt23ClwzbYUY5cvn9zyl5e+/PyR2rYZcWZqK43Dvqkz7+6lzjbD7OdQ+vptVs+vdT+6Q/v3EMXLV+YIRu4Ibun0eeEXz99McvXLTX/p/Jm6fh7Xnn8eY+evh6efDgCw1X3qX/WHEWLrZa2bOa/HGanG6LCjKJxHtG9v+/icfzVAlmnRjDoysT2S+YABIa5T07p4+iKOH8XoeKxmGB3p3Q4RqZiZjsWL3sklEYp7Ak+SRlFm1YJ3OnaSuPUqNTYb2fJSeXXYi3HCSzE/h21At5CON/vBedSXvB+b35Nk6vpNnuH8OxTO3smXL6+GcfXPS19+/lB3aie5rvR3Um9SB98/UF8PT8HzKH39aBeo57UNQGx74FFav/dugEydXP09/2Pnz3u/PkFZaCeAOhcjAQPEGiR2GizXUkXrbNxCMirELQYLRgjC6AhudWrtX8LRd0AO5oVuDAoCmokHtrwPMvvwa/KQaObDppEOIpcQ7prP7dajKHJm34Qn4eJm+/IjvWROYnT9jrRYIPFIuDsxTjR83aqibJdNBgXnMfV3QFzi+mcht3+z140uHlqKyZevND47gKt/XvnMzh+pZ/n6YHrC1NTfvANCpf/x05dqfnffODyP0tfv5dsfr19q0TZBn5YdE3fx8vXO3wGZOrn6e/7Hzp/S6SvN1OO/9vz18PRTAwOh3gX8qHBejQlGODAwALeIhq91N9itGjT64jrC71cDZNVU/EyzIjIWC2SUg32O7/iUrQSkFSmNHKMfaiQsZF8NDwwNCV3axJVs6xfKeTkF/xgdacszedw2/veNAaPocc2UO9EjOJ8wQN43YYB4OOXL1X/cDiZ1LnU2dSXv4BHeVvZpKD59/kUq6GmPgKx/fE1tRGqUJC7anDBAflI6fcXzrzC5+nv+x86f0ukrzdTjv/b89fD0o77VPrdFj2k9rIaIGiNsOaak9qcxSgA/1igBzmGIUN//XAfk4ZMYHLxI/pSmWvFuR3XH53TvpfG6a0Y0RBkUEUlqyZ96xENktxFjo363Y795rg7r79VhU6/lMRNDZLtvXnIXRZYYIfihW3wQo4XpWRKHYjMCxVMiTAKC0/mZo93YAjIGXYXfMgsDJA9vjlXh6z92+fLJzZ+89GXnj9Sj6TPo7IouhEcTQOPw8CB1+cQ7wPttPfqhBojGpw2fR2n93vsULLd+Lp3/Drnxe/7Hzp/c+D1y9fMYO/9yKX39poDVkX0V0AdCzGBi9IItdTVw7ezDIhuOom4JB6FdSu+VpKPCw4fPSfiy1eLhKb3nwVMfRj42e7F8MB4ag4HFABnZYNhfZb9+qTYvIqvv1eb5W7VbPSfjY7FfV3eHTfV433yeV/yjDC+iE8Y8NZw/K3dbEEmIKhwEQRCcTleDMDWuQccgCIJbhD62rYPph6uAPhjSERD2GcH47bffqn/6p3+qvn37lr6khWHCOfsOiApxEF7q/4vBkuL88r//Pwd2tosHMTDo8DOqwbsdtZGhls3q7nN6zXzJquNigMx4gVwEIwM3lRggwfXC09Ihpt5BiIUO8/CuL++Fjcn0y9/wFB0e35SEqa2vnzufN/NzJc/4NOKHj5+rbd4DUhfv+njnd6v6E5A0TrRHtCn40f1cSpcfb4pjbv2TO4WLfBxCOxrnUjr8XHLLp3feS1/p8ufhXZ/c9JWmdPk65fpYt7o/9evvkasf6VfjRKdmIRzj2jFqQhw2HvzM75huxbQraUA5SV2PFXNILda8Ws7vqnsCne3q1cq3q9RYbEU2L9/TZ3QZ7QiCIAimg1b4Y3cejsE2TEEQBNfANdStbwFGBg+KGBX5+vVr9ccff6Qta4uwpkiabiVuyC9EHyrNd7Nl/eSMb++mrRzcz6uZ/Jwd5um53WwvDRnvdKx/VPuXb9Xu+Y9q+/xnMjx4z2MuhkkQBEEwPtooUuFfU8dedVXDKQiCYGq0jY4wQn7W3QxeYIRgdOiihkzPQjiG4UG7xOgIRsli/r/+h/++EwtkgcEhAaQ1O8QBA8rps7nrTbUR2a9/F+Hl8peK9TxmfHVltq+WYqHgh3VAguvFu4Wm3iFw9Yv+zCBe/tWfjRiP6XdIvfI3PIUgHyrwJg7Zkl/zZkh8wZpNha9f7vWZHXZpmJ7GnLC0Ubf7OZQuP5LbzV4PmdHnvsT+3il9/T3Gjj8Yxrs+tj5STrmmU7/+l9CPMJhypdOugCm1GCX62d3XkY/m4VgyHZC5GBNJmGbFV6s2z9V29VKtVz+qFVOtWMdjsxLDY10tmY61mInxUc/RnXrmBkEQvBe0sbQNwdShDbESBEEwNezDkEs8GLkVNC9obxjZ0ClXgNHBeYwQRkR+//339PI6oyLz+/mhelhIYzXbistVtVl/r55//FE9P/9RbVZ/ijHyXM2rdXrJURcOVKODdUC2Bxa8igYjCIJgTLTjro2BduavoaFUXbuIhj4Igqlg6yP2o36qIR90xAOxox2g53UNEIwRsSDWVbV5FuuEhaB+r1Yvf4qDr9Vu80MCeJFGYVMtFptXw4NP8/JFl121FONjUe0Os2rrDT8HQRDcMNoQ9UlpNA5rcLzW2RPA5kWXqAHSZ4QEeXTluZVcusK0MnW6dD5Fpk6XzqfI2HTpZKU07TjeIs5rgzzB6FDRPNI2iS2j8oyOsJ++eLh++VY9//hW/fiO8fG92u5W1eywqWZzvvvL4iFb+S3WjBgavKxOwFu2REjALFJoFhEMgiAIxic680EQBJchjI5+NG944NV+DwSbwX4FC8MDSUbJ4z/8n8nnonpIjoPgHOrBtn7G7ww58bOkf3A281m99kQfUt00e2WYfmfbGYlw9R/2v99vUxleLO7SqHR1WFRf/vZr9fjwofqxeqmaRdJ78UZKSje+hL95ea6/lLLbpOu51Dw5SIPlrLNSmuLlKzN9ueuElE7f9O/PYUqPJHr5453PvT9z4y+tn4cXf2m88pGbP2PXz6Wuv6QqXiIPgiC4JbTBKt0wXRLaoWiLgiAI3gdzKvxFVPpBEARXi3bc1eDAAOHYtRggYXgEQRC8L+YLpqYcyg4vBkFw29DRHZKgPNbgsCMgx3Tu7bXqktKgo5UgmBJd94SV0nTFaaU0XXGeIrdOV5pPEY8uP1bGpksnK33MWe0cCYIgCK4T7bRrZc9LgBzjBcBrYMjwGGrAgiAIgutk7lkoQRAEwfShA982QPjd17GfEmqAWAmCIAhulzQCUsVCgkEQZKAPMvokeBvIazrvp74DYq9Vl7wVbcPjLeMOgj7a90NbStMVp5XSdMV5itw6XWk+RTy6/FgZmy6drPSRRkCCIAiC20E78tTvMZoQBEEQTI3Zx3/4z2GBBMWZ/johDs53uINhvOu799bJyOTqO+HuOhGSf+KGdz7uHh+rz58/p9/b7bZa3D+khZ9yKJ1/yVDa76rv379Xq5cfaeGqO7nnkt4HESf9+5Gvb+n8mVXD6Wfplxy8dUS89Hnncx90jr0Ogkfu9c9NX+ny5+HpX7p85FK6fJ1yfaxb3Z/69ffo028414MgCIKrgEaKiv7YRmtqWN2DIAjeO9dWh59KGCBBEAQ3Ah14+zSP39fQiKnhYY0Q9L71BjgIgsDSrvNuuQ4MAyQIgmDiaGe8TxQ1QNrHrwFrfFi6jgXTwpbFLsmlK0wr105XmqxMnS6dT5Gx6dLJSmna8bxFnFMgDJAgCIIrh046jRbGhxog9vg1oAaIGhzvpREOgiAAW+e9h/ovDJAgCIIbQQ0QoAG7FgPEGh+q83togIMgCCy23rv1ejAMkCAIgomjDVGf0GkHtnYEBOz+lLEGiKX9O5getix2SS5dYVq5drrSZGXqdOl8ioxNl05WStOO4y3inAJhgARBENwANFq2A3+NjVjb2HgvDXEQBO+b91jXxTogwVUw/XVEnPjn8RQ3h/ls2ex1s6vKVmNTfwqf1nGY31cP9x+qpw9fqvl8UW32W8mVTTVfiu57bx2RPLz88c6naWO7bbVaraqX5+9p/ZKl+MHfIaVj+FmZF/6trxPi4q4jM4y3TohH6fSPnr+Z6LTJUnj5453P7Rznxj82pfXLzZ9c/Tz/pYyjsqU+CIIgeDNKN5Sl6GvgYgQkCILgNgkDJAiC4Mqho85TVDVArrXjjv7XnoYgCILAJwyQIAgmD53RIQnqzrv9AhZwbAr5Y69Vn4A1QILgvdB1P1gpTVecVkrTFaeV905XnpwiHl1+rJQiDJAgCIIbAOOjbYBcC6qvGiBqhFxbOoIgCILjCAMkCILgyqGjTqe9/TLrtYwmtA0QCOMjCILgdgkDJAiCyUNndEiCuvM+1RGQ9vXqkiB4r3TdD1ZK0xWnldJ0xWnlvdOVJ6eIR5cfK6UIAyQIguAG6BvtKNmAXArV0Y6ABEEQBLdLrAMS3ARTXyfEi/8Qna4svPzdF37WUr58Deu/u/9cPT4+Vg8PD6kzv9/vk04Iv9tTs07FLb+ZRg7rvBy2O4loX+026+rb9z+qw25TLRai/06u3nx4HZjcdUI8bn4dkcx1Qjy8dUS89BUvf879kRt+LrnXPzd9pctf7vUvXT5yKV2+Trk+1q3uj3X9h3MlCIIgmDw0EAgNydiNbRAEQTB9RjfMmm0QBEFwpZR6QvVWaEOo6VCDKgiCILgcbaNjTCMkDJAgeAO4yYckCHJgiL/dYbed+K4yZ8Wjy4+VSxLGR9Cmq8xZyaUrTCvXTlearEydLp1PkbHp0slKadrxvEWcxxAGSBAEwZVjDZCpNC7noMZHGCFBEASXZWpGSBggQRAEV07fCAhcm0ESxkcQBEEZ2kbImO1DGCBB8Abojd4nQZCDGiB9Zald3tri0eXHyqWwxoduLxl+cJ20y1tbcukK08q105UmK1OnS+dTZGy6dLJSmnYcbxHnMYQBEgRBcENMpXEJgiAIpsEU24VYByQIhOmvw+HoN48pKznMquF1EPaFs9ebcjQ/LKvD/FDtdqv02GixWFbb3Uz0vqsenj5V9x8/Ni678RofL36PXP9oN9PVfHbbarVaVauX57Seyd1Cwt5nNlPe/XHIexZ38+uEeGSuI+KtE+JROv2j528m3joUuXj5453P7Ryfcn2sW90fu3N+iv7n4IWfe96jz3+MgARBEFwJpRuqKfAe0hgEwfjEaPG4hAESBEFwBXR1zDlW+unmGIQREgRBCdpGRxgh4xEGSBAEwZWhjaYaIPwekmuB9Fi5FF15YiUIbpmuMm+lNF1xWilNO563iPOa0Pw5Vzy6/CBhgARBEEwcKmtod8r5fUsjICWMjyAIAtB6FOx+MA5hgARBEFwZtvG8tSlYanyEERIEwaVpGyFhiIxHGCBBEARXgu2U03DqaIE2pH1yLbSND01bLu38aEsQ3DJdZd5KabritFKadhxvEec1Ya/FOeLR5QcJAyQIguCK0c76rXBr6QmCYHzo8AbTItYBCYIjaFYo6GXsTpMX//TXOZk2Xv7uCz/LWc6W1WazquZ382q+XFQv2101mz9Wjx9+qR7uP1SHatu47Ca3fHr+c8PfH2bVkvU+hPlhX+12u+r7tz+rl5eX6m4+/7lGSA+58Xt4z+qy019Yf4/S+Ze7ToiHt45Ibvn1Oq+lwy9N7vX3poF66cv175F7fca+fmPrd0r8Xfus59RF2VYzCIIgKAKVu9cwXCPaWN5i2oIgCN4LruHZbIMgCIIJox1yKnU1PpDST9/ekjA+giAIrpd2ezTUPoUBEgQ3ADf5kAS3g15Ppi1MpaPeLm9tOYa2WzWwgqA0tqx2SS5dYVq5drrSZMWjy4+V0nTFeYqMTZdOVkrTjufYOMMACYIgmDhdFToGyK19glcbMjU+wgAJgiC4Dk41QsIACYIguAK0M64Vuxogx1T01wDpsGkJ4yMIguC6sHV4u05vEwZIENwAeqP3SXA76PWc0ghBu7y15Vis+ymlL7htbFntkly6wrRy7XSlyYpHlx8rpemK8xQZmy6drJSmHcexcYYBEgRBcIXcWufcNlpheARBEFwP5xg6sQ5IELwB01+Hw9FvHh3CHA656yDs9tVyuUzrHWy2+2rx8FR9/PSlmt/dV9vtNrvD7vn3znuNj+d/vrirtptVSmO1a9Y0OeyqP//8s9pvNtVi7q3Ek/csLdvg8e6PQ55+N79OiEfm/eOtE+JROv2j56+Dp9+t58/Y6c9l7OvTdz5GQIIgCK6IqTd2l+a9pTcIguA9EAZIEATBxNFOOCMN7E/pE7yX4Jzh+yAIguB6CQMkCIJg4mBs0Em3BshbonH3ySXoCoe0XoOh1c6PtgTBLdNV5q3cOl1ptvLe6coTJAyQIAiCiaMGiO7rCIgeu3Y0HbeSniAIgmCYMECCIAgmjo4C0EFnX3/fEm3jQ9N5i2kNgiB474QBEgRBcAXQQVcD5K3fAdG4+yQXG8YlwntrbF50SRDcMl1l3sqt05VmK++drjxBwgAJgiCYOG1jQ39TiQdBEATBtRHrgATBBPBWORh7GooX//TXOZk289my2evmbn6oVttDtV88VsuPX6r7h6f6mhx21fywz17nIJfs8jlbVIf9No3skJ7dTtI1O6Q1Tr7/+We1mG0ah93M5sP5dzjk6ZebPjd6Z50QL/69q16e/rlklw+P3HV2HLz7y0ufd957kFA6/NLkXn/voxte+nL9e+Ren7Gv31j6jdtqBUEQBC5awXsNwa1g0/le0hwEQfCeCAMkCILgCtCOONtb7pS/l3QGQRC8Z8IACYLAhSfwQxLk0ZWnbYG3fvl8TKwh4tGVX1aCYEy6yqSVXLrCtHLtdKXJikeXHyul6YrzFBmbLp2snEsYIEEQBBNHK3k6420j5BYMknZDZo2PW0hfEARB8FfCAAmCILgS3lOHXNMaBkgQBMHtEQZIEAQu+oS6T4I8uvK0LfDeOuTHprcrv6wEwZh0lUkruXSFaeXa6UqTFY8uP1ZK0xXnKTI2XTpZOZcwQIIgCK4A2xG/ZSNEjY5bTmMQBMF7J9YBCYIbYPrrcDj6zaOzOcj8vtodFtXT51+qh49fqvVmWx32u+phQc7uq42zjsTYHGNM4EafqC0Wi/R7vV5XLy8v1ezlt8bVuTj54+qXl7/ZxpR3f2Re/32ufpmMbmxmriOSuw5P6fSPnr8Onn63nj9e/KXXMcnl3PzLu2uCIAiCN8FW8mM3mKWxDeqtpzUIguA9EgZIEATBxKFDrl+/0s653b9FSBtpDAMkCILg9ggDJAiC4AroMkBuhXaarGEVBkidH0MSBLdMV5m3cut0pdnKtRIGSBAEwRWg70XQ4LDV/WtugPrQdJFGb/5zEARBcH1EzR4EQTBx6IzrCMh+v0/H1AC5BWw62mkinUEQBMFtEQZIEATBFaAGCNx6pxwjBCGdMQLyMz/6JAhuma4yb+XW6UqzlWslavYgCIIrgM44og3OLRkh19yIBkEQBKcT64AEwTugnrTTz9idWS/+6a9zUpbN/a/Vp0+fqvv7+2qz2aRpWMvlMuXbdru9+VGCr7/9czU77NL+vGqmo0mpTobLfivlI28dB+9Z3MzJ38Mhr3zm3n9u9M46IV78e1e9PP1zKV5/Za8T0uz0knd9vPOegV86/NLkXn+v/vTSl+vfI/f6jH39+uIfzrUgCIJgdLQCH7uhHwvSbxux95oPQRAEt0IYIEEQBBOn/YTNe6J1a7y39AZBENw6YYAEQTA6PNEekvcOn+AF8qI9EvAeOuekUaXNW6TflsUuCYIx6SqTVnLpCtPKtdOVJiseXX6slKYrzlNkLMIACYIgmDjpnQfpaGtj8Rad7imh6beM2XAGQRAEeYQBEgRBMHHsCAioMYK8B2OENGo6Nd1BEATB9RIGSBAEo6Odyj5573hfWbl11AAZy9jqKpNWgmBMusqklVy6wrRy7XSlyYpHlx8rpemK8xQZizBAgiAIJo59+g9jdcTHYii97y0vgiAIboFYByQIApepr8Mxmw0/S8lcpqE4u2opSu6qu9mhWohsdiKi9OL+qVo+fKgePnxuXHbjdcLHfMp1EbYv1fP3r9Vut5P8qdI6KHPJpzQytN9W8qtxOBZO/NnrlAyTbYTNHf/OOiIe+5Hrj+JGqpc/Xv467J36zcMbQc2tH6b+EMDTr7T+Y+ePF3/p8tFHXqkOgiAILsbVGwpBEARBcARhgARBEEwIO81K5b0TeRAEQXBbhAESBEEwMn2GBscYHscoyZFboJ0/t5a+MbF52SXBddN1Ta28d7ryxMqt05VmK6UIAyQIgmCCqFHSZZi8NzQPuvKiZAMZBEEQlCEMkCAIgolCh/u9f4JXCeMjCILgdoiWLQiCYGRs59p2qjmO6FD4uXLt2PzRfU3XLaRvbGxZ6ZLguum6plbeO115YuXW6UqzlVKEARIEQTBBbKc7CIIgCG6JWAckCIJsYp2QPA6zRTWv9tV+u62Wy2W13e+rw/Kp+vC3v6u2h3m1qIar6WONlba79mjCZDksqvWPb9Xm5Wu1OKzTGiBcs51c19l8KTvbxuFUcZ71TXydECmNadtXfmKdkEwyr3/uOiGl0z96/l6I3vKfydj548VfSr8YAQmCIBiZsRugqUP+qChqNE3eeAqCIAj+FWGABEEQTADbyW7Le6cvL0rPUQ6CIAhKUFX/P7UYqxUijKRZAAAAAElFTkSuQmCC;opacity=10;" vertex="1" parent="1">
          <mxGeometry x="-26.75" y="120" width="953.37" height="690" as="geometry" />
        </mxCell>
        <mxCell id="Ln3pn8HurW_zNOlzEYXV-11" value="" style="ellipse;whiteSpace=wrap;html=1;aspect=fixed;fillColor=none;strokeColor=#666666;strokeWidth=6;dashed=1;" vertex="1" parent="1">
          <mxGeometry x="115" y="130" width="670" height="670" as="geometry" />
        </mxCell>
        <mxCell id="Ln3pn8HurW_zNOlzEYXV-12" value="" style="group" vertex="1" connectable="0" parent="1">
          <mxGeometry x="480" y="290" width="220" height="210" as="geometry" />
        </mxCell>
        <mxCell id="Ln3pn8HurW_zNOlzEYXV-1" value="" style="rounded=1;whiteSpace=wrap;html=1;fillColor=none;strokeWidth=3;strokeColor=#FF0000;" vertex="1" parent="Ln3pn8HurW_zNOlzEYXV-12">
          <mxGeometry width="220" height="210" as="geometry" />
        </mxCell>
        <mxCell id="Ln3pn8HurW_zNOlzEYXV-2" value="&lt;font data-font-src=&quot;https://fonts.googleapis.com/css?family=REM&quot; face=&quot;REM&quot; color=&quot;#ff0000&quot;&gt;&lt;b&gt;IMOC Zabbix&lt;/b&gt;&lt;/font&gt;" style="text;html=1;strokeColor=none;fillColor=none;align=center;verticalAlign=middle;whiteSpace=wrap;rounded=0;" vertex="1" parent="Ln3pn8HurW_zNOlzEYXV-12">
          <mxGeometry x="65" width="90" height="40" as="geometry" />
        </mxCell>
        <mxCell id="Ln3pn8HurW_zNOlzEYXV-3" value="&lt;font color=&quot;#1c1c1c&quot;&gt;Time responsÃ¡vel pelas tratativas referentes ao Zabbix Server e Proxy, bem como implantaÃ§Ã£o, sustentaÃ§Ã£o e melhoria dos mesmos&lt;/font&gt;" style="text;html=1;strokeColor=none;fillColor=none;align=center;verticalAlign=middle;whiteSpace=wrap;rounded=0;" vertex="1" parent="Ln3pn8HurW_zNOlzEYXV-12">
          <mxGeometry x="5" y="30" width="210" height="140" as="geometry" />
        </mxCell>
        <mxCell id="Ln3pn8HurW_zNOlzEYXV-13" value="" style="group" vertex="1" connectable="0" parent="1">
          <mxGeometry x="194" y="290" width="220" height="210" as="geometry" />
        </mxCell>
        <mxCell id="Ln3pn8HurW_zNOlzEYXV-5" value="" style="rounded=1;whiteSpace=wrap;html=1;fillColor=none;strokeWidth=3;strokeColor=#009900;" vertex="1" parent="Ln3pn8HurW_zNOlzEYXV-13">
          <mxGeometry width="220" height="210" as="geometry" />
        </mxCell>
        <mxCell id="Ln3pn8HurW_zNOlzEYXV-6" value="&lt;font data-font-src=&quot;https://fonts.googleapis.com/css?family=REM&quot; face=&quot;REM&quot; color=&quot;#009900&quot;&gt;&lt;b&gt;IMOC OperaÃ§Ã£o&lt;/b&gt;&lt;/font&gt;&lt;font data-font-src=&quot;https://fonts.googleapis.com/css?family=REM&quot; face=&quot;REM&quot; color=&quot;#009900&quot;&gt;&lt;b&gt;&lt;br&gt;&lt;/b&gt;&lt;/font&gt;" style="text;html=1;strokeColor=none;fillColor=none;align=center;verticalAlign=middle;whiteSpace=wrap;rounded=0;" vertex="1" parent="Ln3pn8HurW_zNOlzEYXV-13">
          <mxGeometry x="52.5" width="115" height="40" as="geometry" />
        </mxCell>
        <mxCell id="Ln3pn8HurW_zNOlzEYXV-7" value="&lt;font color=&quot;#1c1c1c&quot;&gt;Time responsÃ¡vel pelos acompanhamentos e acionamentos referentes aos alarmes do Zabbix.&lt;br&gt;&lt;/font&gt;" style="text;html=1;strokeColor=none;fillColor=none;align=center;verticalAlign=middle;whiteSpace=wrap;rounded=0;" vertex="1" parent="Ln3pn8HurW_zNOlzEYXV-13">
          <mxGeometry x="5" y="30" width="210" height="140" as="geometry" />
        </mxCell>
        <mxCell id="Ln3pn8HurW_zNOlzEYXV-14" value="" style="group" vertex="1" connectable="0" parent="1">
          <mxGeometry x="340" y="510" width="220" height="210" as="geometry" />
        </mxCell>
        <mxCell id="Ln3pn8HurW_zNOlzEYXV-8" value="" style="rounded=1;whiteSpace=wrap;html=1;fillColor=none;strokeWidth=3;strokeColor=#004C99;" vertex="1" parent="Ln3pn8HurW_zNOlzEYXV-14">
          <mxGeometry width="220" height="210" as="geometry" />
        </mxCell>
        <mxCell id="Ln3pn8HurW_zNOlzEYXV-9" value="&lt;font data-font-src=&quot;https://fonts.googleapis.com/css?family=REM&quot; face=&quot;REM&quot; color=&quot;#004c99&quot;&gt;&lt;b&gt;IMOC N3&lt;/b&gt;&lt;/font&gt;&lt;font data-font-src=&quot;https://fonts.googleapis.com/css?family=REM&quot; face=&quot;REM&quot; color=&quot;#004c99&quot;&gt;&lt;b&gt;&lt;br&gt;&lt;/b&gt;&lt;/font&gt;" style="text;html=1;strokeColor=none;fillColor=none;align=center;verticalAlign=middle;whiteSpace=wrap;rounded=0;" vertex="1" parent="Ln3pn8HurW_zNOlzEYXV-14">
          <mxGeometry x="65" width="90" height="40" as="geometry" />
        </mxCell>
        <mxCell id="Ln3pn8HurW_zNOlzEYXV-10" value="&lt;font color=&quot;#1c1c1c&quot;&gt;Time responsÃ¡vel pelas tratativas referentes a incidentes em servidores Windows e Linux&lt;br&gt;&lt;/font&gt;" style="text;html=1;strokeColor=none;fillColor=none;align=center;verticalAlign=middle;whiteSpace=wrap;rounded=0;" vertex="1" parent="Ln3pn8HurW_zNOlzEYXV-14">
          <mxGeometry x="5" y="30" width="210" height="140" as="geometry" />
        </mxCell>
        <mxCell id="Ln3pn8HurW_zNOlzEYXV-17" value="" style="shape=image;verticalLabelPosition=bottom;labelBackgroundColor=default;verticalAlign=top;aspect=fixed;imageAspect=0;image=data:image/svg+xml,PHN2ZyB2aWV3Qm94PSIwIDAgNDc4LjQxIDE1Mi4zNCIgeG1sbnM9Imh0dHA6Ly93d3cudzMub3JnLzIwMDAvc3ZnIiBkYXRhLW5hbWU9IkxheWVyIDEiIGlkPSJMYXllcl8xIj48ZGVmcz48c3R5bGU+LmNscy0xe2ZpbGw6I2U5NGQ0OTt9LmNscy0xLC5jbHMtMntmaWxsLXJ1bGU6ZXZlbm9kZDt9LmNscy0yLC5jbHMtM3tmaWxsOiMxMjE3Mjg7fTwvc3R5bGU+PC9kZWZzPjx0aXRsZT5MT0dPIEFaVUwgRSBWRVJNRUxIQTwvdGl0bGU+PHBhdGggdHJhbnNmb3JtPSJ0cmFuc2xhdGUoLTE2Ny45IC0yMTMuNikiIGQ9Ik0yNzQuODQsMzIzLjdBNTAuNzEsNTAuNzEsMCwxLDEsMjg3LjM2LDMwNmwxOC41NSwxMS43OGE3Mi43NSw3Mi43NSwwLDEsMC0zMC41MywzMi4xMkwzMDAuNzQsMzY2bDExLjYyLTE4LjMxWiIgY2xhc3M9ImNscy0xIi8+PHBhdGggdHJhbnNmb3JtPSJ0cmFuc2xhdGUoLTE2Ny45IC0yMTMuNikiIGQ9Ik0yMjkuMTIsMjU5LjcyQTI4Ljg1LDI4Ljg1LDAsMSwxLDIxNCwyOTcuNjIsMjguODUsMjguODUsMCwwLDEsMjI5LjEyLDI1OS43MloiIGNsYXNzPSJjbHMtMiIvPjxwYXRoIHRyYW5zZm9ybT0idHJhbnNsYXRlKC0xNjcuOSAtMjEzLjYpIiBkPSJNMzQ2LjI1LDI1OS45bC0zLjYxLDI1Ljc3Yy0uOTIsNi4zOS0xLjY0LDEyLjg5LDExLjU1LDEyLjg5YTI4LDI4LDAsMCwwLDE2LjM5LTQuNzRsNC43NC0zMy45MmgxNi41bC03LjIyLDUxLjU0aC00LjEybC04Ljg3LTUuNTZjLTYuMzksNS40Ni0xMi4yNyw3LjYzLTIxLjM0LDcuNjMtMjAuOTIsMC0yNi4zOS0xMS41NS0yNC40My0yNS43OGwzLjkyLTI3LjgzWiIgY2xhc3M9ImNscy0zIi8+PHBhdGggdHJhbnNmb3JtPSJ0cmFuc2xhdGUoLTE2Ny45IC0yMTMuNikiIGQ9Ik00NTksMzExLjQ0SDQ1NC45TDQ0NiwzMDUuODhjLTYuMzksNS40Ni0xMi4yNiw3LjYzLTIxLjM0LDcuNjMtMjAuOTIsMC0yNi40OS0xMS41NS0yNC40My0yNS43OGwuNjItNC4xMmMyLjE3LTE0LjIyLDEwLTI1Ljc3LDMzLjMtMjUuNzdoMi44OGMyMy4wOSwwLDI3Ljg0LDExLjU1LDI1Ljg4LDI1Ljc3Wm0tMTQtMTcuNjIsMS4xMy04LjE1Yy45My02LjcsMS44Ni0xMi44OC0xMi42Ny0xMi44OHMtMTYuODEsNi4xOC0xNi44MSwxNi43YzAsNC42NCwyLDkuMDcsMTIsOS4wN0EyNy45NCwyNy45NCwwLDAsMCw0NDUsMjkzLjgyWiIgY2xhc3M9ImNscy0zIi8+PHBhdGggdHJhbnNmb3JtPSJ0cmFuc2xhdGUoLTE2Ny45IC0yMTMuNikiIGQ9Ik00ODcuMTcsMjM5LjM2bDExLjQ0LDcuMjEtOS43LDY0Ljg3SDQ3Mi40MmwxMC42My03Mi4wOFoiIGNsYXNzPSJjbHMtMyIvPjxwYXRoIHRyYW5zZm9ybT0idHJhbnNsYXRlKC0xNjcuOSAtMjEzLjYpIiBkPSJNNTE0LjY4LDI1OS45LDUyNiwyNjcuMTJsLTYuMTksNDQuMzJINTAzLjM0bDcuMjEtNTEuNTRabS0yLjU4LTEzLjA3Yy43Mi00LjIzLDMtNy43Myw5LjktNy43M2guODJjNi45MSwwLDguNTYsMy41LDcuODQsNy43M2wtLjIxLDEuMjRjLS43Miw0LjIyLTMsNy43My05LjksNy43M2gtLjgyYy02LjkxLDAtOC41Ni0zLjUxLTcuODQtNy43M1oiIGNsYXNzPSJjbHMtMyIvPjxwYXRoIHRyYW5zZm9ybT0idHJhbnNsYXRlKC0xNjcuOSAtMjEzLjYpIiBkPSJNNTU3LDI1OS45aDE1Ljg4bC0yLjA2LDE0LjQzaC0xNmwtMi4yNywxNi41Yy0uNjIsNC41My0uNTIsNy4yMSw4Ljc2LDcuMjFhMzYuODksMzYuODksMCwwLDAsOS42OS0xLjEzTDU2OSwzMTJhNDYuMDksNDYuMDksMCwwLDEtMTAuNTEsMWMtMTguNTYsMC0yNC40My03LjIyLTIyLjU4LTIwLjFsNy41My01My42aDQuMTJsMTEuMzQsNy4yMVoiIGNsYXNzPSJjbHMtMyIvPjxwYXRoIHRyYW5zZm9ybT0idHJhbnNsYXRlKC0xNjcuOSAtMjEzLjYpIiBkPSJNNjM4LjM3LDMxNi42Yy0yLjA2LDE0Ljc0LTExLjQ0LDIyLjY4LTM0LjQzLDIyLjY4YTkwLjI4LDkwLjI4LDAsMCwxLTIxLjY1LTIuNThsMi4xNy0xNS40NmM1Ljg3LDIuMDYsMTQuNzQsMy4wOSwyMS4xMywzLjA5LDE0LjY0LDAsMTUuNjctMy41MSwxNi42LTkuNzlsLjQxLTIuODlhNDYsNDYsMCwwLDEtMTMuMywxLjg2Yy0yMy4wOSwwLTI3LjgzLTExLjU1LTI1Ljg3LTI1Ljc4bDMuOTItMjcuODNoMTYuNDlsLTMuNjEsMjUuNzdjLS45Myw2LjctMS43NSwxMi44OSwxMi4xNiwxMi44OWE0My4xNiw0My4xNiwwLDAsMCwxMi4yNy0xLjY1bDUuMTUtMzdoMTYuNVoiIGNsYXNzPSJjbHMtMyIvPjwvc3ZnPg==;" vertex="1" parent="1">
          <mxGeometry x="339.87" y="160" width="220.13" height="70" as="geometry" />
        </mxCell>
        <mxCell id="Ln3pn8HurW_zNOlzEYXV-18" value="" style="shape=image;verticalLabelPosition=bottom;labelBackgroundColor=default;verticalAlign=top;aspect=fixed;imageAspect=0;image=data:image/png,iVBORw0KGgoAAAANSUhEUgAAAI0AAABHCAYAAAA6LcR3AAAGiklEQVR4nO2cQVJcOQyGxdTsw6xYpllrMXCCwJIFNcMJBk4AOQHhBJATQE4AFAuWdE6QzsLr9CzZ9dxgypQ69fJakqXXfiap0ldFFfXabfv5/ZYlPbshCIIgCIIgCIIgCIIgCIIgCIIgCIIgCIIgCIIgCIIg+JnZaNm358ODPQDY61/fenj8wJVHRPZ6JqUkfqaBiDsA8LdQZJ5SujHWk+t4BwC5vgn9LVkAwCzXBwD3KaW7IX3ttDWhPuf2NpkxnFGb9wBwl1Kar9NeidaiuWUe2Gzr4XG3X5Ye7helut2U0szbB0R84oRLXKWU3he+n8V6Sg/PSn6gFymlK2df8xhcKv2VmALAyVji+W2MShW4gV4IxUsPZcfbOCKylq7Df8p3dxAxi/jcKRig8peIeO3o6weaNF7BAH3nC4muOq1Fww3AZ0fZLu8GtH9e+HzKXaTBfxoi1B7HiHhWKkTiKvW1RBbqLSJ6BV6kmWieDw+kzkuW5k2hStcDNFgZti806NcDrIuEKgZEPM7iqtTWpGJd32lpaaSHLPklJVF4Z31x5go+0pnSVrZMRwDwR0ppI/8BwDZdk/yJTXKiVyCBXgrfe/GLyJfb6LS3DwCa8/6P8tkgfq9docJE+EiyNFL572TrkVJil5R+uTWszKlQ/oSLtMj5nCPiVFnS8jUuojoTLFoW835KaaWPdP9TRPxMFpFrqyotLQ0rgq2HR8nSFEXjcBIt/gHXj2PhIV6VQnN6wBfCx38K1zmB5nqOOMH02ruRrHZth7ilaLiBYk244yalwe/WZbEyUl/+Yq5pYugjWcEVIVI/OYF+dITO5vbWoaVouI6L676xTosYrFHIv8b670qzfom1nNIWFPyVPmLKoCYtRcMNirQ0WZedTcqWsjiszEpf6LscUorAA3ffXAphXilB506CajQRjRJuSzNDCre5m9eWMs7KSCa8bxUkMdZ4ANx9c+1VedhOi1eklaXRQlZr+alQnk3yCVZmIT0IJgpjReN5daFYK64Orr2v1rYIbiyqWhloKBpvYo8bwIUwiJIgOSvz0dEPs+OuYLpvxfGv0V5VKwMN8zTsoDjD7a/CrFmZzYqVyS8Mb5k6uHo9jrsEe9+MVZPE5W3vnv66FPNYXlqJ5i1zTQq3JV8iO4UzRFz0BznP1N6ywVqZvLYL9XN98TjuEtx9czPfs4yJDN0u4qXV8mR9UFLZbnnV2hSsjFT/D+G28pLPG9JanVvW8a/twNbiNR1h7zunZXku5O36H5qVsb7/8r4nk+Dq4SaLZ3xendd0hKVZy87yzqzj1ugXy2KwMlaH3Ou4S3D1cEnEJg5sLUYXDW3x5JAcNC5s7JZlw1VaUkQrQ/+zfWEcU6sDK6KE21ZLUyOJOAotHGHvrFVfIdAyM2f8hbOClQHDHp0lVgdWwxQRKY6/qz1E/MaMSX7lceTsd5EWy5M33LbMOm7Gl6yMVDdXV43srNUvqpV5rpEcNNFCNOZZ65h1lsGY96wMKEnDPlYHVoO7by4iWjuxpzj4o/hFLUTjmbXWWWfxLS6YB2SdjVYHVsNq1STH3yPSMd+TrfBay5M0IKZZZ3j/s3J+SUsa9sqtvWGJnHLrfRf3BBmQNtn/sqLxzFrPrNOsDbdJyiSaShuWpMN4XEQ0VnvzsZKDo4pGCbelGeB5SyuFpNIpyXUTdh6LIG3m9oTsJotHpxe4CbHWqU6NsS1NjXBbKis9bGkrZilpWKp3z3KGiM41cZNlKlhMqT3JWnXbknJTmU+l7w9lbNFI4bZnH41kUbjB1s5il5KGL5CIOKHmB/SkCYcEIx1BkcQsLdXnZEWktiZ02oGzMtMhR5atjJ3c45JpUrjtskp51iLifu+yFnF4rNidcMgsi/obHU/pRl1vyTJI9zBVssl3itCuEfGUxL187fKGLJm2fFk3vg9ibNHUfFG5gietL9Qv5Xs+KScTN0kgxeWDyMI8kT4k8U+V7RE7zrNLF85xcTP28lRzS8RgrOH2Ehp0zykAiQUdcivdw/tKibibFntqXkM00hou7cmtsRvfLciU0gmTUfaQhbdt8S2ozP4aE2R5oE60aDUZTTTPhwfe5YYLaWs5c4PCbfqtmn1H+LogC5WtC3uMVmkr92WX/BGreGZkpbbX/eEkD01/1OhXh7Y79H/1Cpa/elUzYqEldcL4OnP6m/2sO/uCIAiCIAiCIAiCIAiCIAiCIAiCIAiCIAiCIAgCCQD4H/0jS1c6472/AAAAAElFTkSuQmCC;" vertex="1" parent="1">
          <mxGeometry x="390" y="200" width="141" height="71" as="geometry" />
        </mxCell>
      </root>
    </mxGraphModel>
  </diagram>
</mxfile>
